<svg width="20" height="21" viewBox="0 0 20 21" fill="none" xmlns="http://www.w3.org/2000/svg">
<path d="M20 10.2698C20 4.59733 15.5234 0 10 0C4.47656 0 0 4.59733 0 10.2698C0 15.9422 4.47656 20.5396 10 20.5396C10.0586 20.5396 10.1172 20.5396 10.1758 20.5355V12.5444H8.02734V9.97291H10.1758V8.07942C10.1758 5.88506 11.4805 4.6896 13.3867 4.6896C14.3008 4.6896 15.0859 4.75779 15.3125 4.78989V7.08454H14C12.9648 7.08454 12.7617 7.59001 12.7617 8.33216V9.9689H15.2422L14.918 12.5404H12.7617V20.1424C16.9414 18.9108 20 14.9594 20 10.2698Z" fill="#363636"/>
</svg>
