<svg width="20" height="21" viewBox="0 0 20 21" fill="none" xmlns="http://www.w3.org/2000/svg">
<path d="M10 0C4.47714 0 0 4.59813 0 10.2698C0 15.9414 4.47714 20.5396 10 20.5396C15.5229 20.5396 20 15.9414 20 10.2698C20 4.59813 15.5229 0 10 0ZM10.0143 3.12306C11.9621 3.12853 13.5255 4.76476 13.5155 6.78719C13.5057 8.76298 11.9167 10.3643 9.97217 10.3576C8.04747 10.3509 6.46895 8.71213 6.48041 6.73235C6.49125 4.73093 8.07059 3.1176 10.0143 3.12306ZM13.9595 11.7789C13.5288 12.233 13.0103 12.5616 12.4346 12.7908C11.8903 13.0075 11.2939 13.1165 10.7034 13.1892C10.7928 13.2888 10.8348 13.3378 10.8904 13.3949C11.6917 14.2222 12.4968 15.0452 13.2953 15.8748C13.5675 16.1576 13.6241 16.5081 13.4744 16.8365C13.3109 17.1959 12.944 17.432 12.5841 17.4066C12.3562 17.3904 12.1784 17.2742 12.0207 17.111C11.4159 16.4861 10.7996 15.8723 10.2075 15.2356C10.0346 15.0503 9.95192 15.0856 9.79949 15.2465C9.1912 15.8899 8.57289 16.523 7.9511 17.1528C7.67182 17.4356 7.33954 17.4869 7.01545 17.3251C6.6711 17.154 6.45217 16.7928 6.46895 16.4295C6.48082 16.1845 6.59826 15.9967 6.76235 15.829C7.5556 15.016 8.34639 14.2006 9.13739 13.3857C9.18997 13.3317 9.23867 13.2743 9.31499 13.1903C8.23611 13.0745 7.26322 12.8018 6.43028 12.1329C6.32675 12.0497 6.22015 11.9695 6.12604 11.8762C5.76123 11.5166 5.7246 11.1046 6.01289 10.6806C6.25985 10.3175 6.67396 10.2204 7.10465 10.429C7.18813 10.4692 7.26752 10.52 7.34363 10.5738C8.89575 11.6692 11.0281 11.6992 12.5864 10.6228C12.7407 10.5018 12.9058 10.4022 13.0971 10.3519C13.4686 10.2536 13.8157 10.3942 14.0149 10.7283C14.2431 11.1101 14.2404 11.4824 13.9595 11.7789Z" fill="#363636"/>
</svg>
