<svg width="20" height="21" viewBox="0 0 20 21" fill="none" xmlns="http://www.w3.org/2000/svg">
<path d="M10 0C4.47734 0 0 4.59792 0 10.2698C0 15.9416 4.47734 20.5396 10 20.5396C15.5227 20.5396 20 15.9416 20 10.2698C20 4.59792 15.5227 0 10 0ZM15.0725 11.3805C15.5386 11.848 16.0317 12.288 16.4501 12.8039C16.6355 13.0321 16.8102 13.268 16.9432 13.5334C17.1331 13.9118 16.9616 14.3268 16.6318 14.3493L14.5831 14.3489C14.054 14.3939 13.6329 14.1747 13.278 13.8032C12.9946 13.5071 12.7317 13.1909 12.4587 12.8848C12.3472 12.7591 12.2298 12.6408 12.0898 12.5477C11.8105 12.3611 11.5679 12.4183 11.4079 12.7179C11.2448 13.0228 11.2076 13.3607 11.192 13.7C11.1697 14.1961 11.024 14.3258 10.5393 14.3491C9.50363 14.3989 8.52092 14.2375 7.60757 13.7013C6.80184 13.2283 6.17821 12.5608 5.63478 11.8049C4.57657 10.3316 3.76614 8.71444 3.03795 7.0509C2.87407 6.67625 2.99396 6.47579 3.39642 6.46801C4.06506 6.45478 4.73371 6.45646 5.40235 6.46738C5.67448 6.4718 5.85453 6.6317 5.95908 6.89541C6.32041 7.80839 6.76338 8.67704 7.31847 9.48265C7.46639 9.69719 7.61739 9.91109 7.83243 10.0626C8.06977 10.2299 8.25064 10.1746 8.36256 9.90248C8.43417 9.72955 8.46506 9.54464 8.48061 9.35931C8.53381 8.72453 8.54015 8.08996 8.44808 7.4577C8.39079 7.06203 8.17412 6.80652 7.79008 6.73172C7.59448 6.69369 7.62312 6.6193 7.71826 6.50458C7.88338 6.30622 8.03806 6.18351 8.34721 6.18351L10.6619 6.18309C11.0267 6.25663 11.1085 6.42473 11.1581 6.80211L11.1601 9.44378C11.1558 9.58982 11.2315 10.0227 11.4869 10.1183C11.6915 10.1876 11.8265 10.0191 11.9488 9.88609C12.5039 9.28115 12.8994 8.56715 13.2536 7.82814C13.4099 7.50224 13.5448 7.16499 13.6757 6.82712C13.7731 6.57728 13.9245 6.45436 14.1991 6.45856L16.428 6.46129C16.4937 6.46129 16.5604 6.46192 16.6255 6.47348C17.0011 6.53946 17.104 6.70545 16.9878 7.08178C16.8049 7.67307 16.4495 8.1656 16.1021 8.65939C15.7297 9.18806 15.3326 9.69824 14.9639 10.2292C14.6251 10.7146 14.6519 10.959 15.0725 11.3805Z" fill="#363636"/>
</svg>
