<svg width="12" height="24" viewBox="0 0 12 24" fill="none" xmlns="http://www.w3.org/2000/svg"><path d="M11.3533 12.0123C11.3545 12.6689 11.226 13.3193 10.9751 13.9261 10.7242 14.533 10.3559 15.0842 9.89129 15.5483L1.71929 23.7193C1.53069 23.9014 1.27808 24.0022 1.01589 24 .75369 23.9977.502878 23.8925.31747 23.7071.132062 23.5217.0268924 23.2709.0246139 23.0087.0223355 22.7465.12313 22.4939.305288 22.3053L8.47729 14.1343C9.03909 13.571 9.35458 12.8079 9.35458 12.0123 9.35458 11.2167 9.03909 10.4536 8.47729 9.89029L.305288 1.71929C.209778 1.62704.133596 1.5167.0811869 1.39469.0287779 1.27269.00119157 1.14147 377571e-10 1.00869-.00111606.87591.0241854.744232.0744663.621336.124747.49844.199.386787.292893.292894.386786.199001.498438.124748.621334.0744667.744231.0241852.87591-.0011158 1.00869 38147e-9 1.14147.00119209 1.27269.02878 1.39469.0811882 1.5167.133596 1.62704.209778 1.71929.305288L9.89129 8.47629C10.3559 8.94035 10.7242 9.49162 10.9751 10.0984 11.226 10.7052 11.3545 11.3557 11.3533 12.0123z" fill="#4694d1"/></svg>