<svg width="8" height="6" viewBox="0 0 8 6" fill="none" xmlns="http://www.w3.org/2000/svg">
<path d="M0.607239 0.97998H7.39276C7.51287 0.980006 7.63027 1.0156 7.73013 1.08227C7.82999 1.14894 7.90781 1.24369 7.95377 1.35454C7.99973 1.46539 8.01176 1.58736 7.98834 1.70504C7.96491 1.82272 7.90709 1.93082 7.82217 2.01567L4.42941 5.40486C4.31551 5.5186 4.16105 5.5825 4 5.5825C3.83895 5.5825 3.68449 5.5186 3.57059 5.40486L0.17783 2.01567C0.0929137 1.93082 0.0350883 1.82272 0.0116636 1.70504C-0.0117612 1.58736 0.000266709 1.46539 0.0462263 1.35454C0.0921859 1.24369 0.170014 1.14894 0.269871 1.08227C0.369729 1.0156 0.487132 0.980006 0.607239 0.97998Z" fill="#999999"/>
</svg>
