<svg width="43" height="36" viewBox="0 0 43 36" fill="none" xmlns="http://www.w3.org/2000/svg"><path d="M26.2807 9.75607 26.8685 6.18515C27.0227 5.24243 26.9204 4.27562 26.5725 3.386 26.2246 2.49639 25.6438 1.71672 24.891 1.12869 24.1382.540668 23.2412.165931 22.2938.0437487 21.3464-.0784339 20.3836.0564355 19.5062.434225 18.2937.978368 17.3196 1.94374 16.7646 3.15135L13.5016 9.75607H5.24879C3.85672 9.75607 2.52167 10.3091 1.53733 11.2934.552996 12.2777.0 13.6128.0 15.0049V30.7512C0 32.1433.552996 33.4783 1.53733 34.4627 2.52167 35.447 3.85672 36 5.24879 36H38.5226L41.9903 16.6897 42.0183 9.75607H26.2807zM3.49919 30.7512V15.0049C3.49919 14.5408 3.68352 14.0958 4.01164 13.7677 4.33975 13.4396 4.78476 13.2553 5.24879 13.2553H12.2472V32.5008H5.24879C4.78476 32.5008 4.33975 32.3165 4.01164 31.9884 3.68352 31.6603 3.49919 31.2152 3.49919 30.7512zM38.4911 16.2296 35.5693 32.5008H15.7464V13.096L19.9786 4.52303C20.1219 4.26372 20.3247 4.04213 20.5704 3.87647 20.816 3.71081 21.0975 3.60582 21.3916 3.57012 21.6857 3.53442 21.9841 3.56904 22.2622 3.67113 22.5403 3.77322 22.7903 3.93987 22.9914 4.15736 23.1633 4.35725 23.289 4.59261 23.3595 4.84665 23.4299 5.10069 23.4435 5.36715 23.3991 5.62702L22.1411 13.2553h16.35V16.2296z" fill="#4694d1"/></svg>