<svg width="29" height="49" viewBox="0 0 29 49" fill="none" xmlns="http://www.w3.org/2000/svg"><path d="M29 16.3333V14.4305C28.9973 11.6871 27.8903 9.05682 25.9222 7.11693 23.954 5.17705 21.2854 4.08604 18.502 4.08333H16.5714V0H12.4286V4.08333H10.498C8.00673 4.08596 5.5976 4.96173 3.70122 6.55411 1.80483 8.1465.544805 10.3517.146353 12.7756-.2521 15.1994.236994 17.684 1.52621 19.7851 2.81543 21.8862 4.82074 23.467 7.18371 24.2448L12.4286 25.97V40.8333H10.498C8.81301 40.8317 7.19752 40.1713 6.00605 38.9969 4.81459 37.8226 4.1445 36.2303 4.14286 34.5695V32.6667H0V34.5695C.002742 37.3129 1.10966 39.9432 3.07782 41.8831 5.04598 43.823 7.7146 44.914 10.498 44.9167h1.9306V49H16.5714V44.9167H18.502C20.9933 44.914 23.4024 44.0383 25.2988 42.4459 27.1952 40.8535 28.4552 38.6483 28.8536 36.2244 29.2521 33.8006 28.763 31.316 27.4738 29.2149 26.1846 27.1138 24.1793 25.533 21.8163 24.7552L16.5714 23.03V8.16667H18.502C20.187 8.16829 21.8025 8.82875 22.9939 10.0031 24.1854 11.1774 24.8555 12.7697 24.8571 14.4305V16.3333H29zM20.5071 28.6262C21.939 29.0959 23.1546 30.0526 23.9363 31.3249 24.718 32.5973 25.0148 34.1023 24.7737 35.5706 24.5325 37.0389 23.769 38.3747 22.6199 39.339 21.4708 40.3032 20.0111 40.8329 18.502 40.8333H16.5714V27.3318L20.5071 28.6262zM12.4286 21.6682 8.49286 20.3738C7.06096 19.9041 5.84539 18.9474 5.06368 17.6751 4.28197 16.4027 3.98515 14.8977 4.22634 13.4294 4.46753 11.9611 5.23098 10.6253 6.38006 9.66105 7.52915 8.69682 8.98887 8.16709 10.498 8.16667h1.9306V21.6682z" fill="#4694d1"/></svg>