<svg width="25" height="17" viewBox="0 0 25 17" fill="none" xmlns="http://www.w3.org/2000/svg"><path d="M22.2913.29429 8.47229 14.1123C8.37938 14.2056 8.26897 14.2796 8.14738 14.3301 8.0258 14.3806 7.89544 14.4066 7.76379 14.4066 7.63214 14.4066 7.50178 14.3806 7.38019 14.3301 7.25861 14.2796 7.1482 14.2056 7.05529 14.1123l-5.344-5.34901C1.61838 8.67001 1.50797 8.596 1.38638 8.5455 1.2648 8.495 1.13444 8.469 1.00279 8.469.871135 8.469.740777 8.495.619195 8.5455.497612 8.596.387199 8.67001.294289 8.76329.201012 8.8562.127 8.96661.0764983 9.0882.0259967 9.20978.0 9.34013.0 9.47179.0 9.60344.0259967 9.7338.0764983 9.85538.127 9.97696.201012 10.0874.294289 10.1803L5.64029 15.5253C6.20424 16.0882 6.96849 16.4043 7.76529 16.4043 8.56209 16.4043 9.32634 16.0882 9.89029 15.5253L23.7083 1.71029C23.8014 1.6174 23.8753 1.50705 23.9257 1.38556 23.9761 1.26407 24.0021 1.13382 24.0021 1.00229 24.0021.870755 23.9761.740512 23.9257.619022 23.8753.497532 23.8014.387181 23.7083.29429 23.6154.201013 23.505.127 23.3834.0764985 23.2618.0259969 23.1314.0 22.9998.0 22.8681.0 22.7378.0259969 22.6162.0764985 22.4946.127 22.3842.201013 22.2913.29429z" fill="#4694d1"/></svg>