<svg width="42" height="42" viewBox="0 0 42 42" fill="none" xmlns="http://www.w3.org/2000/svg"><g clip-path="url(#clip0)"><path d="M40.25 22.75C40.2437 17.9503 38.4461 13.3258 35.2093 9.78184 31.9725 6.23784 27.5295 4.02954 22.75 3.58925V0h-3.5V3.58925C15.67 3.90915 12.2516 5.22702 9.3833 7.39305 6.51502 9.55907 4.31196 12.4864 3.02455 15.8421 1.73715 19.1979 1.41704 22.8476 2.10063 26.3762 2.78422 29.9049 4.44408 33.171 6.89152 35.8033L3.51752 39.5098 6.10752 41.8653 9.49202 38.15C12.8069 40.6519 16.8469 42.0054 21 42.0054 25.1531 42.0054 29.1931 40.6519 32.508 38.15L35.8925 41.8705 38.4825 39.515 35.1085 35.8085C38.4123 32.2626 40.2495 27.5965 40.25 22.75zM21 38.5C17.885 38.5 14.8399 37.5763 12.2498 35.8456 9.65971 34.115 7.64099 31.6552 6.44891 28.7773 5.25683 25.8993 4.94493 22.7325 5.55265 19.6773 6.16037 16.6221 7.66041 13.8157 9.86308 11.6131 12.0658 9.41039 14.8721 7.91035 17.9273 7.30263 20.9825 6.69492 24.1493 7.00682 27.0273 8.1989 29.9052 9.39098 32.365 11.4097 34.0957 13.9998 35.8263 16.5898 36.75 19.6349 36.75 22.75 36.7449 26.9256 35.0839 30.9287 32.1313 33.8813 29.1787 36.8339 25.1756 38.4949 21 38.5z" fill="#4694d1"/><path d="M9.66528 3.05365 7.79803.0979004C4.77745 1.87002 2.13734 4.22227.0297852 7.01915L2.94004 8.9599C4.77342 6.56978 7.05842 4.56304 9.66528 3.05365z" fill="#4694d1"/><path d="M39.0602 8.9599 41.9705 7.01915C39.8629 4.22227 37.2228 1.87002 34.2022.0979004L32.335 3.05365C34.9418 4.56304 37.2268 6.56978 39.0602 8.9599z" fill="#4694d1"/><path d="M19.25 12.25V21.7245L25.0128 27.4873 27.4873 25.0128 22.75 20.2755V12.25h-3.5z" fill="#4694d1"/></g><defs><clipPath id="clip0"><path d="M0 0h42v42H0z" fill="#fff"/></clipPath></defs></svg>