<svg width="14" height="14" viewBox="0 0 14 14" fill="none" xmlns="http://www.w3.org/2000/svg"><path d="M.846231 3.87848C.650886 3.9343.4735 4.04016.331626 4.18558.189752 4.331.0883066 4.51095.0373286 4.70762-.0136494 4.90429-.0123934 5.11086.0409723 5.30689.094338 5.50292.197964 5.68162.341596 5.82531L2.33213 7.81356V11.6559H6.17845L8.1824 13.657C8.28988 13.7655 8.41781 13.8518 8.5588 13.9106 8.69978 13.9695 8.85103 13.9999 9.00382 14 9.10423 13.9998 9.2042 13.9869 9.30135 13.9615 9.49793 13.912 9.678 13.8116 9.82343 13.6703 9.96886 13.5291 10.0745 13.352 10.1298 13.157L14 0 .846231 3.87848zM1.1706 5.00038 11.1046 2.07168 3.50009 9.66413V7.3305L1.1706 5.00038zM9.0114 12.832 6.66208 10.4891H4.32851L11.9319 2.89195 9.0114 12.832z" fill="#999"/></svg>