<svg width="44" height="44" viewBox="0 0 44 44" fill="none" xmlns="http://www.w3.org/2000/svg"><g clip-path="url(#clip0)"><path d="M21.9045 44.0166 21.2555 43.7288C20.5332 43.4116 3.6665 35.7941 3.6665 22.0001V10.0394C3.66715 8.88841 4.03094 7.76694 4.70608 6.83472 5.38121 5.9025 6.33327 5.20706 7.42667 4.84743L21.9998.0166016 36.573 4.84743C37.6664 5.20706 38.6185 5.9025 39.2936 6.83472 39.9687 7.76694 40.3325 8.88841 40.3332 10.0394V22.0001C40.3332 37.7246 23.3052 43.5509 22.5792 43.7929L21.9045 44.0166zM21.9998 3.8611 8.58717 8.30877C8.22224 8.42796 7.90438 8.65959 7.67913 8.97046 7.45387 9.28134 7.33277 9.65553 7.33317 10.0394V22.0001C7.33317 32.0724 19.1398 38.6064 22.086 40.0786 25.0267 38.8961 36.6665 33.4823 36.6665 22.0001V10.0394C36.6669 9.65553 36.5458 9.28134 36.3205 8.97046 36.0953 8.65959 35.7774 8.42796 35.4125 8.30877L21.9998 3.8611z" fill="#4694d1"/><path d="M20.3702 26.6604H20.3097C19.8457 26.6533 19.3879 26.5521 18.9641 26.3631 18.5402 26.174 18.1592 25.9009 17.8439 25.5604L13.6162 21.1604 16.258 18.6267 20.372 22.9167 29.8705 13.4182 32.4629 16.0105 22.8177 25.6557C22.4965 25.9767 22.1147 26.2308 21.6946 26.4032 21.2745 26.5757 20.8243 26.6631 20.3702 26.6604z" fill="#4694d1"/></g><defs><clipPath id="clip0"><path d="M0 0h44v44H0z" fill="#fff"/></clipPath></defs></svg>