<svg width="42" height="42" viewBox="0 0 42 42" fill="none" xmlns="http://www.w3.org/2000/svg"><g clip-path="url(#clip0)"><path d="M12.25 13.9999v-1.75C12.2495 10.3099 12.8937 8.42468 14.0814 6.89069 15.2691 5.35671 16.933 4.26094 18.8113 3.77567 20.6897 3.29039 22.6761 3.44314 24.4582 4.20989 26.2403 4.97663 27.717 6.3139 28.6562 8.01144L31.717 6.31219C30.4015 3.93624 28.3338 2.0648 25.8388.992038 23.3438-.0807219 20.5631-.293973 17.9338.385807 15.3044 1.06559 12.9755 2.59985 11.3131 4.74743 9.6507 6.89501 8.74909 9.53413 8.75 12.2499v1.75H3.5V36.7499C3.5 38.1423 4.05312 39.4777 5.03769 40.4622 6.02226 41.4468 7.35761 41.9999 8.75 41.9999h24.5C34.6424 41.9999 35.9777 41.4468 36.9623 40.4622 37.9469 39.4777 38.5 38.1423 38.5 36.7499V13.9999H12.25zM35 36.7499C35 37.2141 34.8156 37.6592 34.4874 37.9874 34.1593 38.3156 33.7141 38.4999 33.25 38.4999H8.75C8.28587 38.4999 7.84075 38.3156 7.51256 37.9874 7.18437 37.6592 7 37.2141 7 36.7499V17.4999H35V36.7499z" fill="#4694d1"/><path d="M22.75 24.5h-3.5v7h3.5v-7z" fill="#4694d1"/></g><defs><clipPath id="clip0"><path d="M0 0h42v42H0z" fill="#fff"/></clipPath></defs></svg>