<svg width="42" height="50" viewBox="0 0 42 50" fill="none" xmlns="http://www.w3.org/2000/svg"><path d="M40.6566 29.7443C40.0659 29.1514 39.3421 28.7406 38.5529 28.5391 38.9158 27.0303 38.512 25.3718 37.3409 24.1962 36.7387 23.5916 36.0091 23.1916 35.2381 22.9943 35.5807 21.5727 35.2638 19.8922 34.0244 18.6481 33.6087 18.2308 33.1319 17.9118 32.623 17.6885L37.3416 12.9524C39.1311 11.1539 39.1343 8.24262 37.3409 6.44254 35.5497 4.64441 32.6493 4.64129 30.8553 6.44254L16.1366 21.2178 15.2758 17.4733C14.7816 15.3222 13.1611 13.6078 11.0468 12.9992 8.93303 12.3904 6.65384 12.9823 5.09893 14.544 5.09873 14.5442 5.09854 14.5444 5.09824 14.5446 4.82455 14.8196 4.67053 15.1931 4.67091 15.5819L4.68911 33.8052.427477 38.0833C-.142492 38.6555-.142492 39.5831.427477 40.1552L9.80686 49.5707C10.0805 49.8455 10.4517 49.9999 10.8388 49.9999H24.4179C26.0598 49.9999 27.6038 49.3576 28.7655 48.1915L40.6565 36.2548C42.4257 34.4805 42.4698 31.562 40.6566 29.7443zM32.9193 26.268C33.5712 25.6136 34.6259 25.6145 35.2769 26.268 35.9269 26.9206 35.9269 27.9823 35.2769 28.6348L31.9604 31.9639C31.3075 32.6195 30.2526 32.6163 29.6031 31.9642 28.9531 31.3113 28.953 30.2494 29.6027 29.5972L32.9193 26.268zM27.5388 27.5254C26.8889 28.1778 25.8313 28.1774 25.1812 27.5254 24.5312 26.8728 24.5312 25.8111 25.1812 25.1587L29.6028 20.72C30.2534 20.0671 31.311 20.068 31.9604 20.72 32.6124 21.3744 32.6114 22.4334 31.9604 23.0867 31.9603 23.0868 31.96 23.0871 31.9601 23.087 31.9604 23.0867 27.5388 27.5254 27.5388 27.5254zM26.7017 46.1194C26.1001 46.7233 25.2678 47.0696 24.418 47.0696H11.4434L3.52348 39.1192 7.18119 35.4474C7.45528 35.1722 7.60901 34.799 7.60872 34.4099L7.59062 16.2565C8.35538 15.7227 9.32864 15.5526 10.2421 15.8157 11.3368 16.1308 12.1758 17.0183 12.4316 18.1318L13.8848 24.4523C13.9473 24.7241 14.0847 24.9663 14.2742 25.1569 14.2744 25.1574 15.3801 26.268 15.3801 26.268 17.8585 28.756 17.8585 32.8043 15.3801 35.2924 14.8101 35.8645 14.8101 36.7921 15.3801 37.3643 15.95 37.9365 16.8743 37.9363 17.444 37.3643 21.0606 33.7338 21.0606 27.8267 17.444 24.1962L17.3708 24.1227 32.9194 8.51434C33.5864 7.84461 34.6423 7.87723 35.2769 8.51444 35.9276 9.16757 35.928 10.2266 35.2769 10.8811L23.1173 23.0867C21.3291 24.8816 21.3291 27.8022 23.1176 29.5975 23.9716 30.4543 25.081 30.9009 26.202 30.9394 26.2404 32.0646 26.6854 33.1785 27.5388 34.0358 28.3922 34.8926 29.501 35.3393 30.6216 35.3782 30.661 36.5481 31.1321 37.6421 31.9598 38.4731 32.3698 38.8852 32.8444 39.2083 33.3603 39.4356L26.7017 46.1194zM38.5932 34.1822C38.5929 34.1824 38.5927 34.1827 38.5924 34.1829L36.3814 36.4025C35.7389 37.0483 34.6821 37.0629 34.0244 36.4019 33.3685 35.7435 33.3785 34.6842 34.0249 34.0354L36.2356 31.8162C36.8917 31.1577 37.9467 31.168 38.5931 31.8169 39.253 32.4783 39.2343 33.5395 38.5932 34.1822z" fill="#4694d1"/><path d="M15.5288 9.19934C16.3348 9.19934 16.9883 8.54338 16.9883 7.73427V1.45734C16.9111-.486512 14.1457-.485047 14.0693 1.45734V7.73437C14.0693 8.54348 14.7228 9.19934 15.5288 9.19934z" fill="#4694d1"/><path d="M8.24359 8.7704C8.81356 9.34265 9.73779 9.34246 10.3076 8.7704 10.8775 8.19824 10.8775 7.27066 10.3076 6.6985L8.74438 5.12931C8.17451 4.55716 7.25038 4.55716 6.68041 5.12931 6.11044 5.70147 6.11044 6.62905 6.68041 7.20121L8.24359 8.7704z" fill="#4694d1"/><path d="M22.8137 8.7704 24.3769 7.20121C24.9469 6.62905 24.9469 5.70147 24.3769 5.12931 23.807 4.55716 22.8829 4.55716 22.3129 5.12931L20.7497 6.6985C20.1798 7.27066 20.1798 8.19824 20.7497 8.7704 21.3197 9.34265 22.2438 9.34246 22.8137 8.7704z" fill="#4694d1"/></svg>