<svg width="42" height="42" viewBox="0 0 42 42" fill="none" xmlns="http://www.w3.org/2000/svg">
<path d="M28.6996 42H28.6419C28.199 41.9929 27.7622 41.8961 27.3577 41.7157C26.9531 41.5352 26.5893 41.2748 26.2881 40.95L20.7441 35.2415L23.2746 32.823L28.7084 38.423L39.3501 27.7795L41.8246 30.2488L31.0429 41.0323C30.7361 41.3412 30.3709 41.5858 29.9686 41.7519C29.5662 41.9181 29.1349 42.0025 28.6996 42Z" fill="#374957"/>
<path d="M19.25 10.5V18.5255L14.5128 23.2628L16.9873 25.7372L22.75 19.9745V10.5H19.25Z" fill="#374957"/>
<path d="M21 0C15.6127 0.0451649 10.4489 2.15906 6.57645 5.9045C2.70398 9.64994 0.419083 14.7404 0.194325 20.1232C-0.0304336 25.5059 1.82213 30.7692 5.36888 34.8243C8.91564 38.8796 13.8853 41.4165 19.25 41.9107V38.4107C15.8023 38.0669 12.5341 36.7082 9.85892 34.5063C7.18371 32.3046 5.22177 29.3587 4.22133 26.0416C3.22091 22.7243 3.22695 19.1849 4.23869 15.8712C5.25044 12.5574 7.22244 9.61823 9.90514 7.42556C12.5878 5.2329 15.8607 3.8853 19.3095 3.55327C22.7582 3.22124 26.2281 3.91972 29.2798 5.56031C32.3316 7.2009 34.8281 9.70987 36.4534 12.7697C38.0788 15.8296 38.7599 19.3028 38.4107 22.75H41.9107C41.9597 22.1707 42 21.5915 42 21C41.994 15.4323 39.7796 10.0944 35.8426 6.15741C31.9057 2.22045 26.5676 0.00602189 21 0Z" fill="#374957"/>
</svg>
