<svg width="569" height="324" viewBox="0 0 569 324" fill="none" xmlns="http://www.w3.org/2000/svg"><path d="M180.493 89.7951C180.493 89.7951 185.014 50.9678 268.062 60.6878L293.422 64.1697C293.422 64.1697 202.554 81.106 191.971 104.89 191.971 104.89 187.681 92.0252 191.065 87.4282 191.065 87.4597 181.136 90.2053 180.493 89.7951z" fill="#dbdbdb"/><path d="M114.497 212.177C161.611 223.315 283.411 259.417 291.316 290.91 291.316 290.91 407.256 217.426 554.816 177.534 554.816 177.534 455.74 90.4031 396.716 111.399 337.692 132.394 291.316 58.9099 291.316 58.9099 291.316 58.9099 44.6799 112.448 27.8159 136.593c0 0 66.39150000000001 70.786 86.6811 75.584z" fill="#4694d1"/><path d="M291.261 291.39C291.261 291.39 293.875 299.048 378.219 249.312 391.858 241.275 410.894 232.828 426.178 232.828 441.461 232.828 462.921 218.953 471.501 216.702 493.731 210.853 513.663 217.754 554.77 177.78 554.77 177.78 495.08 193.475 480.64 197.767 463.385 202.9 402.462 223.539 291.261 291.39z" fill="#377fc2"/><path d="M27.7529 135.881C27.7529 135.881 53.0498 207.666 109.441 234.764 165.832 261.862 281.512 279.524 291.262 291.358 291.262 291.358 299.915 261.736 116.471 208.255 100.228 203.552 30.388 141.141 27.7529 135.881z" fill="#377fc2"/><path d="M170.817 145.78C170.817 145.78 158.991 170.795 159.549 199.871 159.549 199.871 189.874 175.15 203.956 179.095L170.817 145.78z" fill="#377fc2"/><path d="M430.046 109.288C430.046 109.288 409.092 106.069 396.623 111.508 384.154 116.946 366.825 114.726 366.825 114.726L241.026 183.208C241.026 183.208 442.084 150.556 430.046 109.288z" fill="#377fc2"/><path d="M226.681 89.0482V187.931L170.817 175.308V73.269L226.681 89.0482z" fill="#ebebea"/><path d="M366.868 49.0742 226.681 89.0481V187.931L366.868 141.95V49.0742z" fill="#dbdbdb"/><path d="M170.817 73.269 316.274 34.3472 366.867 49.0743 226.681 89.0481 170.817 73.269z" fill="#f3f3f3"/><path d="M17.0438 165.315C26.4568 165.315 34.0875 157.699 34.0875 148.305 34.0875 138.91 26.4568 131.295 17.0438 131.295 7.63075 131.295.0 138.91.0 148.305.0 157.699 7.63075 165.315 17.0438 165.315z" fill="#1355a0"/><path d="M552.662 207.76C561.685 207.76 569 200.46 569 191.455 569 182.45 561.685 175.15 552.662 175.15 543.639 175.15 536.325 182.45 536.325 191.455 536.325 200.46 543.639 207.76 552.662 207.76z" fill="#1355a0"/><path d="M96.5283 196.01c0 0 7.114699999999999-31.905 48.2217-14.369C144.75 181.641 123.206 193.475 120.36 217.228L96.5283 196.01z" fill="#377fc2"/><path d="M335.837 237.741C328.385 247.934 280.805 265.691 296.837 291.39 296.837 291.39 391.859 242.285 445.224 210.601 445.245 210.601 342.846 228.147 335.837 237.741z" fill="#377fc2"/><path d="M291.325 324C301.833 324 310.351 315.499 310.351 305.012 310.351 294.526 301.833 286.025 291.325 286.025 280.818 286.025 272.3 294.526 272.3 305.012 272.3 315.499 280.818 324 291.325 324z" fill="#1355a0"/><path d="M18.2345 149.282C21.9776 149.282 25.012 146.254 25.012 142.518 25.012 138.783 21.9776 135.754 18.2345 135.754 14.4914 135.754 11.457 138.783 11.457 142.518 11.457 146.254 14.4914 149.282 18.2345 149.282z" fill="#1d6cb4"/><path d="M298.039 304.918C301.782 304.918 304.816 301.889 304.816 298.154 304.816 294.418 301.782 291.39 298.039 291.39 294.296 291.39 291.261 294.418 291.261 298.154 291.261 301.889 294.296 304.918 298.039 304.918z" fill="#1d6cb4"/><path d="M554.834 189.971C558.577 189.971 561.612 186.943 561.612 183.207 561.612 179.472 558.577 176.443 554.834 176.443 551.091 176.443 548.057 179.472 548.057 183.207 548.057 186.943 551.091 189.971 554.834 189.971z" fill="#1d6cb4"/><path d="M269.833 51.7673C269.833 51.7673 213.969 50.0421 225.985 8.1956 226.091 8.04833 214.939 20.819 212.062 30.8335 207.793 45.7291 213.727 50.5681 263.435 64.2013L269.833 51.7673z" fill="#9c2415"/><path d="M267.366 52.0407C267.366 52.0407 321.596 38.2392 300.716 991314e-9 300.589-.114723 314.239 9.92082 319.225 19.0833 326.603 32.7059 321.891 38.7125 276.336 62.7915L267.366 52.0407z" fill="#9c2415"/><path d="M180.946 81.2009C180.946 81.2009 185.51 42.3736 268.515 52.0935L269.833 64.3592C269.833 64.3592 203.007 72.5855 192.425 96.3279 192.425 96.3279 188.135 83.4626 191.518 78.8656 191.518 78.8971 181.579 81.6112 180.946 81.2009z" fill="#9c2415"/><path d="M356.738 61.75C356.738 61.75 343.879 24.8266 264.921 52.2824L266.271 64.5481C266.271 64.5481 333.318 58.0471 348.823 78.9703 348.823 78.9703 350.214 65.4739 345.913 61.7289 345.913 61.75 356.201 62.2759 356.738 61.75z" fill="#9c2415"/><path d="M255.909 66.6208C255.909 66.6208 225.037 15.6435 212.979 28.4036L225.985 8.19572C225.985 8.19572 259.967-2.10283 273.712 64.0014L255.909 66.6208z" fill="#e21018"/><path d="M285.001 63.6437C285.001 63.6437 303.278 7.07006 317.803 16.8321L300.717 976562e-9C300.717 976562e-9 269.043 13.3291 269.043 64.6852L285.001 63.6437z" fill="#e21018"/></svg>