<svg width="308" height="358" viewBox="0 0 308 358" fill="none" xmlns="http://www.w3.org/2000/svg"><path d="M191.977 104.198H123.059V318.882h68.918V104.198z" fill="#d3d3d3"/><path d="M68.9183 157.114H0V288.66H68.9183V157.114z" fill="#d3d3d3"/><path d="M57.4909 219.974H26.2773V225.437H57.4909V219.974z" fill="#bababa"/><path d="M57.4909 227.328H26.2773V232.791H57.4909V227.328z" fill="#bababa"/><path d="M57.4909 234.682H26.2773V240.144H57.4909V234.682z" fill="#bababa"/><path d="M57.4909 242.036H26.2773V288.657H57.4909V242.036z" fill="#bababa"/><path d="M148.355 76.9463H54.1411V333.433H148.355V76.9463z" fill="#e5e5e5"/><path d="M136.859 29.6567H66.3623V82.5088H136.859V29.6567z" fill="#e5e5e5"/><path d="M101.266.0H99.2104V35.2674H101.266V0z" fill="#e5e5e5"/><path d="M139.82 95.3811H76.5913V104.198H139.82V95.3811z" fill="#d3d3d3"/><path d="M97.5793 36.2969H88.7642V45.1138H97.5793V36.2969z" fill="#d3d3d3"/><path d="M111.52 36.2969H102.705V45.1138H111.52V36.2969z" fill="#d3d3d3"/><path d="M97.5793 36.2969H88.7642V45.1138H97.5793V36.2969z" fill="#d3d3d3"/><path d="M111.52 36.2969H102.705V45.1138H111.52V36.2969z" fill="#d3d3d3"/><path d="M125.455 36.2969H116.64V45.1138H125.455V36.2969z" fill="#d3d3d3"/><path d="M111.52 47.6384H102.705v8.817H111.52v-8.817z" fill="#d3d3d3"/><path d="M97.5793 47.6384H88.7642v8.817H97.5793v-8.817z" fill="#d3d3d3"/><path d="M174.708 108.887H165.893V117.703H174.708V108.887z" fill="#bababa"/><path d="M188.644 108.887H179.829V117.703H188.644V108.887z" fill="#bababa"/><path d="M174.708 120.232H165.893V129.049H174.708V120.232z" fill="#bababa"/><path d="M188.644 120.232H179.829V129.049H188.644V120.232z" fill="#bababa"/><path d="M35.2687 193.319H26.4536V202.136H35.2687V193.319z" fill="#bababa"/><path d="M49.2043 193.319H40.3892V202.136H49.2043V193.319z" fill="#bababa"/><path d="M35.2687 204.665H26.4536V213.482H35.2687V204.665z" fill="#bababa"/><path d="M49.2043 204.665H40.3892V213.482H49.2043V204.665z" fill="#bababa"/><path d="M125.455 47.6384H116.64v8.817H125.455v-8.817z" fill="#d3d3d3"/><path d="M139.82 110.153H76.5913V118.97H139.82V110.153z" fill="#d3d3d3"/><path d="M139.82 110.153H76.5913V118.97H139.82V110.153z" fill="#d3d3d3"/><path d="M139.82 124.925H76.5913V133.742H139.82V124.925z" fill="#d3d3d3"/><path d="M139.82 124.925H76.5913V133.742H139.82V124.925z" fill="#d3d3d3"/><path d="M139.82 139.698H76.5913V148.514H139.82V139.698z" fill="#d3d3d3"/><path d="M139.82 139.698H76.5913V148.514H139.82V139.698z" fill="#d3d3d3"/><path d="M139.82 154.465H76.5913V163.282H139.82V154.465z" fill="#d3d3d3"/><path d="M207.604 221.421 211.712 216.211C211.712 216.211 225.335 227.236 229.242 226.931 233.148 226.626 226.789 231.007 226.789 231.007 226.789 231.007 213.314 221.821 207.604 221.421z" fill="#ffa76c"/><path d="M107.825 310.838 91.6733 272.999" stroke="#f5f7fa" stroke-width="5" stroke-linecap="round" stroke-linejoin="round"/><path d="M107.288 310.838 91.1362 272.999" stroke="#b3b3b3" stroke-width="2" stroke-linecap="round" stroke-linejoin="round"/><path d="M256.909 295.361C252.842 301.144 246.603 317.323 241.683 320.3 241.683 320.3 235.272 329.025 220.579 327.221L150.326 328.424 150.426 324.116 158.104 318.882 88.5 305.532C88.5 305.532 100.921 278.83 123.452 276.425 145.983 274.02 185.434 272.481 185.434 272.481 185.434 272.481 172.544 293.093 176.852 302.743 181.159 312.393 182.662 318.004 197.687 317.904L220.559 317.936C220.559 317.936 238.858 317.03 247.541 290.684 247.541 290.684 251.011 280.785 246.872 271.299 242.733 261.813 234.651 246.652 234.651 246.652L225.083 230.121C225.083 230.121 228.641 228.318 229.242 226.915 229.843 225.512 233.85 224.763 233.85 224.763 236.005 220.102 249.925 217.301 252.161 218.587 253.199 219.216 251.231 234.044 251.231 234.044 251.231 234.044 243.767 233.011 241.511 232.542 239.741 232.122 238.001 231.586 236.302 230.939L241.11 240.116 254.601 262.631 258.608 270.113C258.608 270.113 264.867 282.164 267.559 284.14 269.911 285.855 262.451 287.478 256.909 295.361z" fill="#4694d1"/><path d="M155.515 272.67H71.8115" stroke="#f5f7fa" stroke-width="5" stroke-linecap="round" stroke-linejoin="round"/><path d="M276.539 356.064C292.178 356.064 304.855 343.384 304.855 327.743 304.855 312.101 292.178 299.421 276.539 299.421 260.9 299.421 248.222 312.101 248.222 327.743 248.222 343.384 260.9 356.064 276.539 356.064z" fill="#1a1a1a"/><path d="M276.539 351.889C289.872 351.889 300.68 341.078 300.68 327.743 300.68 314.407 289.872 303.597 276.539 303.597 263.206 303.597 252.397 314.407 252.397 327.743 252.397 341.078 263.206 351.889 276.539 351.889z" fill="#000"/><path d="M276.539 347.38C287.382 347.38 296.173 338.588 296.173 327.743 296.173 316.897 287.382 308.105 276.539 308.105 265.696 308.105 256.905 316.897 256.905 327.743 256.905 338.588 265.696 347.38 276.539 347.38z" fill="#666"/><path d="M276.539 342.27C284.561 342.27 291.064 335.766 291.064 327.742 291.064 319.719 284.561 313.215 276.539 313.215 268.517 313.215 262.014 319.719 262.014 327.742 262.014 335.766 268.517 342.27 276.539 342.27z" fill="#000"/><path d="M276.539 339.994C283.304 339.994 288.788 334.509 288.788 327.743 288.788 320.977 283.304 315.491 276.539 315.491 269.774 315.491 264.29 320.977 264.29 327.743 264.29 334.509 269.774 339.994 276.539 339.994z" fill="#666"/><path d="M117.313 358C132.952 358 145.63 345.32 145.63 329.678 145.63 314.037 132.952 301.356 117.313 301.356 101.674 301.356 88.9966 314.037 88.9966 329.678 88.9966 345.32 101.674 358 117.313 358z" fill="#1a1a1a"/><path d="M117.313 353.824C130.646 353.824 141.455 343.014 141.455 329.678 141.455 316.343 130.646 305.532 117.313 305.532 103.98 305.532 93.1719 316.343 93.1719 329.678 93.1719 343.014 103.98 353.824 117.313 353.824z" fill="#000"/><path d="M117.313 349.316C128.156 349.316 136.947 340.524 136.947 329.678 136.947 318.833 128.156 310.041 117.313 310.041 106.47 310.041 97.6792 318.833 97.6792 329.678 97.6792 340.524 106.47 349.316 117.313 349.316z" fill="#666"/><path d="M117.313 344.206C125.335 344.206 131.838 337.702 131.838 329.678 131.838 321.655 125.335 315.151 117.313 315.151 109.291 315.151 102.788 321.655 102.788 329.678 102.788 337.702 109.291 344.206 117.313 344.206z" fill="#000"/><path d="M117.313 341.929C124.078 341.929 129.563 336.444 129.563 329.678 129.563 322.912 124.078 317.427 117.313 317.427 110.549 317.427 105.064 322.912 105.064 329.678 105.064 336.444 110.549 341.929 117.313 341.929z" fill="#666"/><path d="M245.67 322.413C245.67 322.413 251.58 299.469 264.254 290.404 275.641 282.256 294.959 279.271 307.781 302.547 307.781 302.547 310.786 304.499 294.558 304.238 278.33 303.978 266.51 314.626 266.51 314.626 266.51 314.626 255.086 324.216 245.67 322.413z" fill="#4694d1"/><path d="M270.665 291.43C272.969 289.947 264.121 289.378 257.542 303.452 257.907 304.318 264.286 297.04 270.665 291.43z" fill="#f5f7fa"/><path d="M133.225 272.818 71.1221 272.834" stroke="#b3b3b3" stroke-width="2" stroke-linecap="round" stroke-linejoin="round"/><path d="M80.7827 321.739C80.7827 321.739 92.8634 282.256 133.449 281.03 174.035 279.804 169.09 300.243 169.09 300.243 169.09 300.243 167.996 314.598 150.414 324.116 150.406 324.116 106.964 315.98 80.7827 321.739z" fill="#1d6cb4"/><path d="M89.001 320.301C89.001 320.301 99.4189 286.32 134.411 285.23 169.403 284.14 165.132 302.306 165.132 302.306 165.132 302.306 166.033 311.592 151.144 321.11 151.144 321.11 111.972 316.87 89.001 320.301z" fill="#4694d1"/><path d="M147.978 303.777H125.739C125.531 303.777 125.363 303.945 125.363 304.152 125.363 304.358 125.531 304.526 125.739 304.526H147.978C148.186 304.526 148.354 304.358 148.354 304.152 148.354 303.945 148.186 303.777 147.978 303.777z" fill="#000"/><path d="M146.824 306.134H124.586C124.378 306.134 124.209 306.301 124.209 306.509 124.209 306.716 124.378 306.884 124.586 306.884H146.824C147.032 306.884 147.201 306.716 147.201 306.509 147.201 306.301 147.032 306.134 146.824 306.134z" fill="#000"/><path d="M146.824 306.134H124.586C124.378 306.134 124.209 306.301 124.209 306.509 124.209 306.716 124.378 306.884 124.586 306.884H146.824C147.032 306.884 147.201 306.716 147.201 306.509 147.201 306.301 147.032 306.134 146.824 306.134z" fill="#000"/><path d="M145.674 308.486H123.436C123.228 308.486 123.059 308.655 123.059 308.863 123.059 309.071 123.228 309.24 123.436 309.24h22.238C145.882 309.24 146.051 309.071 146.051 308.863 146.051 308.655 145.882 308.486 145.674 308.486z" fill="#000"/><path d="M145.674 308.486H123.436C123.228 308.486 123.059 308.655 123.059 308.863 123.059 309.071 123.228 309.24 123.436 309.24h22.238C145.882 309.24 146.051 309.071 146.051 308.863 146.051 308.655 145.882 308.486 145.674 308.486z" fill="#000"/><path d="M144.52 310.843H122.282C122.074 310.843 121.905 311.01 121.905 311.218 121.905 311.425 122.074 311.593 122.282 311.593H144.52C144.728 311.593 144.897 311.425 144.897 311.218 144.897 311.01 144.728 310.843 144.52 310.843z" fill="#000"/><path d="M144.52 310.843H122.282C122.074 310.843 121.905 311.01 121.905 311.218 121.905 311.425 122.074 311.593 122.282 311.593H144.52C144.728 311.593 144.897 311.425 144.897 311.218 144.897 311.01 144.728 310.843 144.52 310.843z" fill="#000"/><path d="M143.37 313.195H121.132C120.924 313.195 120.755 313.364 120.755 313.572 120.755 313.78 120.924 313.949 121.132 313.949H143.37C143.578 313.949 143.747 313.78 143.747 313.572 143.747 313.364 143.578 313.195 143.37 313.195z" fill="#000"/><path d="M123.011 288.949C126.012 288.019 113.463 288.548 101.815 302.102 102.684 304.578 115.198 295.149 123.011 288.949z" fill="#f5f7fa"/><path d="M185.762 268.697 116.275 272.656C115.281 272.713 114.521 273.565 114.578 274.559L114.636 275.591C114.693 276.586 115.545 277.346 116.539 277.289L186.026 273.331C187.02 273.274 187.78 272.422 187.724 271.428L187.665 270.395C187.608 269.401 186.756 268.641 185.762 268.697z" fill="#1d6cb4"/><path d="M112.674 272.341C112.196 272.368 111.728 272.203 111.371 271.885 111.014 271.566 110.798 271.12 110.77 270.642L108.767 256.756C108.711 255.766 117.057 259.008 118.051 258.952L139.84 257.71C140.83 257.653 141.042 263.965 161.742 266.839L179.773 268.947C179.236 268.891 112.674 272.341 112.674 272.341z" fill="#000"/><path d="M229.975 205.991C229.975 205.991 233.513 207.394 233.914 208.127 234.315 208.861 238.77 221.954 238.77 221.954" stroke="#b3b3b3" stroke-width="4" stroke-linecap="round" stroke-linejoin="round"/><path d="M229.975 206.392C229.975 206.392 233.513 207.795 233.914 208.528 234.315 209.262 238.77 222.354 238.77 222.354" stroke="#fff" stroke-width="2" stroke-linecap="round" stroke-linejoin="round"/><path d="M204.683 301.232C204.683 301.232 203.822 311.556 204.175 313.892 204.283 314.59 207.011 314.361 206.979 313.656 206.911 310.979 207.781 300.968 207.781 300.968L204.683 301.232z" fill="#ffa76c"/><path d="M241.147 225.788C243.133 224.967 244.423 223.527 244.029 222.572 243.634 221.616 241.704 221.507 239.718 222.328 237.732 223.149 236.442 224.589 236.837 225.544 237.231 226.499 239.161 226.609 241.147 225.788z" fill="#f5f7fa"/><path d="M252.351 226.4C252.603 222.103 252.506 218.601 252.135 218.579 251.764 218.558 251.259 222.024 251.007 226.321 250.754 230.619 250.851 234.121 251.222 234.142 251.593 234.164 252.098 230.698 252.351 226.4z" fill="#f5f7fa"/><path d="M206.447 311.68C206.447 311.68 188.444 319.719 201.975 324.536 215.506 329.354 235.913 319.487 232.343 316.521 228.773 313.556 229.935 318.369 206.447 311.68z" fill="#e6e6e6"/><path d="M207.501 311.792C207.501 311.792 191.497 318.938 203.526 323.222 215.554 327.506 233.694 318.733 230.52 316.108 227.347 313.483 228.392 317.752 207.501 311.792z" fill="#fff"/><path d="M208.242 312.169C208.242 312.169 194.218 317.659 204.908 321.286 215.599 324.913 231.47 318.148 228.625 315.992 225.78 313.836 226.766 317.267 208.242 312.169z" fill="#000" stroke="#000" stroke-miterlimit="10"/><path d="M222.322 228.134C222.322 228.134 225.832 224.635 224.726 224.078 223.62 223.521 207.749 210.745 205.893 208.492 203.657 205.779 190.968 197.704 189.253 195.916 187.838 194.442 183.956 189.656 183.956 189.656L176.543 203.399C176.543 203.399 205.857 222.928 210.433 224.078 215.009 225.228 222.322 228.134 222.322 228.134z" fill="#e5e5e5"/><path d="M146.095 233.644 171.138 231.844 174.648 242.861C174.648 242.861 217.121 248.949 219.925 259.236 222.73 269.524 209.415 297.124 210.016 304.162 210.209 306.406 202.403 303.605 202.403 303.605 202.403 303.605 200.985 282.22 205.392 273.363 209.8 264.506 198.701 268.442 193.32 269.32 190.423 269.792 144.837 267.568 144.893 257.325 144.949 247.081 146.095 233.644 146.095 233.644z" fill="#0e456f"/><path d="M210.71 225.328C210.71 225.328 220.298 230.995 223.864 230.871 226.737 230.77 233.248 226.133 234.451 226.382 235.653 226.63 239.423 231.46 239.439 231.993 239.455 232.526 237.656 237.543 235.252 238.245 232.848 238.946 235.38 236.04 235.52 235.207 235.785 233.604 233.85 229.897 229.278 234.337 229.278 234.337 227.443 236.072 222.133 234.169 216.824 232.265 207.604 229.636 207.604 229.636L210.71 225.328z" fill="#ffb982"/><path d="M234.852 236.446C235.792 235.506 235.792 233.981 234.852 233.04 233.911 232.099 232.386 232.099 231.446 233.04 230.506 233.981 230.506 235.506 231.446 236.446 232.386 237.387 233.911 237.387 234.852 236.446z" fill="#000"/><path d="M252.105 271.772 238.214 246.163C238.115 245.98 237.886 245.912 237.704 246.012L237.436 246.157C237.253 246.256 237.185 246.485 237.284 246.668L251.175 272.277C251.274 272.46 251.503 272.528 251.686 272.428L251.954 272.283C252.136 272.184 252.204 271.955 252.105 271.772z" fill="#f5f7fa"/><path d="M108.767 256.756 109.701 253.814 119.854 256.756 118.051 258.953 108.767 256.756z" fill="#555956"/><path d="M139.82 257.71 139.219 255.686 119.854 256.756 118.051 258.952 139.82 257.71z" fill="#3f3e42"/><path d="M104.933 239.519 67.1517 241.046 66.3623 271.836 104.54 271.917 104.933 239.519z" fill="#a08163"/><path d="M71.6631 238.321 67.1514 241.046H104.772L108.334 238.834 71.6631 238.321z" fill="#e5c7a3"/><path d="M107.781 270.117 104.552 271.916 104.888 241.118 108.334 238.833 107.781 270.117z" fill="#a57c58"/><path d="M231.725 204.522C233.353 201.203 233.629 198.001 232.341 197.369 231.054 196.738 228.691 198.916 227.063 202.234 225.436 205.553 225.16 208.755 226.447 209.387 227.735 210.018 230.098 207.84 231.725 204.522z" fill="#f5f7fa"/><path d="M231.725 204.522C233.353 201.203 233.629 198.001 232.341 197.369 231.054 196.738 228.691 198.916 227.063 202.234 225.436 205.553 225.16 208.755 226.447 209.387 227.735 210.018 230.098 207.84 231.725 204.522z" stroke="#b3b3b3" stroke-width="2" stroke-linecap="round" stroke-linejoin="round"/><path d="M206.611 301.773C206.611 301.773 205.749 312.097 206.102 314.433 206.21 315.131 208.939 314.902 208.907 314.197 208.839 311.52 209.708 301.509 209.708 301.509L206.611 301.773z" fill="#ffb982"/><path d="M149.705 233.644 174.748 231.844 178.258 242.861C178.258 242.861 220.731 248.949 223.536 259.236 226.34 269.524 213.026 297.124 213.627 304.162 213.819 306.406 206.014 303.605 206.014 303.605 206.014 303.605 204.595 282.22 209.003 273.363 213.41 264.506 202.311 268.442 196.93 269.32 194.033 269.792 139.752 267.961 139.82 257.718 139.888 247.474 149.705 233.644 149.705 233.644z" fill="#1355a0"/><path d="M199.29 151.387C199.29 151.387 200.392 155.495 199.991 157.599 199.59 159.703 202.595 161.006 202.295 161.507 201.994 162.008 200.436 163.11 200.223 165.915 200.223 165.915 200.824 166.031 199.755 166.769 199.755 166.769 200.107 166.885 199.67 167.286 199.342 167.59 199.486 171.145 198.785 171.947 197.33 173.61 184.981 169.109 183.927 176.022 183.595 178.202 184.629 181.364 185.029 184.771 185.43 188.177 173.81 174.219 173.81 174.219 173.81 174.219 176.615 168.007 175.012 164.468 173.409 160.93 175.413 127.109 199.29 151.387z" fill="#ffb982"/><path d="M185.715 160.116 199.266 156.854" stroke="#000" stroke-width="2" stroke-miterlimit="10"/><path d="M200.501 157.776C200.501 160.14 200.1 162.06 199.623 162.06 199.146 162.06 198.742 160.14 198.742 157.776 198.742 155.411 198.249 155.071 199.619 155.071 200.705 155.071 200.501 155.407 200.501 157.776z" fill="#000"/><path d="M172.945 172.664C172.945 172.664 181.724 181.709 185.767 182.078 185.767 182.078 194.274 212.912 196.934 215.209 201.574 219.216 221.124 230.341 221.124 230.341 221.124 230.341 221.5 234.044 219.06 234.75 216.62 235.455 188.063 231.011 182.373 217.313 176.984 204.344 176.443 242.56 178.258 242.853 180.073 243.146 147.369 258.29 139.84 248.472 139.84 248.472 139.888 186.831 172.945 172.664z" fill="#f5f7fa"/><path d="M184.068 169.626C183.291 170.692 176.856 175 173.875 172.744 163.541 164.921 174.227 170.852 174.227 164.48 174.227 158.108 173.558 158.068 177.301 158.068 181.043 158.068 187.831 164.48 184.068 169.626z" fill="#0e456f"/><path d="M180.35 169.626C179.744 170.692 174.74 175 172.416 172.744 164.374 164.921 172.688 170.852 172.688 164.48 172.688 158.108 172.168 158.068 175.093 158.068 178.018 158.068 183.279 164.48 180.35 169.626z" fill="#9c2415"/><path d="M189.694 164.537C188.941 165.619 183.916 167.342 180.931 165.094 170.597 157.271 181.283 163.202 181.283 156.83 181.283 150.458 180.614 150.418 184.357 150.418 188.099 150.418 197.055 153.993 189.694 164.537z" fill="#1f62b1"/><path d="M189.926 162.557C189.237 163.487 184.661 164.961 181.944 163.034 172.532 156.309 182.265 161.411 182.265 155.928 182.265 150.446 181.656 150.43 185.07 150.43 188.484 150.43 196.63 153.492 189.926 162.557z" fill="#0e456f"/><path d="M208.422 151.488C207.52 150.324 206.383 149.363 205.087 148.666 203.79 147.969 202.361 147.551 200.893 147.44 197.84 147.224 191.176 150.029 189.694 155.985 189.694 155.985 198.325 153.552 201.125 153.055 203.221 152.69 208.422 151.488 208.422 151.488z" fill="#000"/><path d="M200.893 147.432C200.893 147.432 195.484 132.956 177.954 139.369 160.52 145.745 170.741 167.522 170.741 167.522 170.741 167.522 175.377 165.943 182.89 168.047 190.403 170.151 190.319 161.29 189.774 158.204 189.586 157.146 189.441 156.157 190.082 154.878 190.591 153.86 191.601 152.658 193.48 151.091 195.663 149.358 198.19 148.11 200.893 147.432z" fill="#ff0510"/><path d="M199.775 145.272C199.775 145.272 194.45 145.945 191.978 150.022" stroke="#000" stroke-width="2" stroke-linecap="round" stroke-linejoin="round"/><path d="M192.142 216.01C192.142 216.01 196.822 215.609 196.686 214.924 196.917 215.118 197.158 215.3 197.407 215.469 198.132 215.99 192.142 216.01 192.142 216.01z" fill="#e5e5e5"/><path d="M189.613 217.052C190.595 216.92 198.949 217.585 196.97 215.574 196.97 215.574 196.97 215.009 198.625 216.652 200.28 218.295 187.013 217.405 189.613 217.052z" fill="#e5e5e5"/><path d="M179.74 215.317C180.269 212.873 171.639 223.425 172.664 246.244 172.664 246.244 178.611 244.797 178.274 243.254 176.17 234.177 179.107 218.175 179.74 215.317z" fill="#e5e5e5"/></svg>