<svg width="294" height="367" viewBox="0 0 294 367" fill="none" xmlns="http://www.w3.org/2000/svg"><path d="M38.11 74.2375H146.351V262.151H38.11V74.2375z" fill="#544848"/><path d="M86.3038 21.1917 88.1987 74.065 19.7563 80.2607 18.2283 28.9914 86.3038 21.1917z" fill="#cda889"/><path d="M80.8134 15.0608 12.7767 28.9915H18.5177L85.9414 21.2306 80.8134 15.0608z" fill="#d8c5b6"/><path d="M20.5723 80.2607 14.827 78.1653 12.7766 28.9915H18.5176L20.5723 80.2607z" fill="#e6d1c8"/><path d="M140.502 88.0001V100.905H106.043V66.4851l34.459 21.515z" fill="#ac8261"/><path d="M140.502 63.4111V88.0005L106.043 66.4853 140.502 63.4111z" fill="#704e2e"/><path d="M106.043 100.905H95.891V65.2563L106.043 66.4852V100.905z" fill="#bd9777"/><path d="M88.1986 74.0652H95.8906V65.2566L87.7065 63.8079 88.1986 74.0652z" fill="#201716"/><path d="M139.785 20.6914 137.838 72.2241 87.7065 63.8078 85.6519 14.2412 139.785 20.6914z" fill="#e1cab8"/><path d="M112.721 6.55811 139.785 20.6919 85.6519 14.2416 112.721 6.55811z" fill="#080609"/><path d="M209.423 14.2416l-69.638 6.4503L112.721 6.55811 177.732.0 209.423 14.2416z" fill="#d0b8a4"/><path d="M137.839 72.2241 207.783 62.5919 209.423 14.2412 139.785 20.6914 137.839 72.2241z" fill="#a48163"/><path d="M215.268 50.7262 179.506 66.4851 140.502 57.2669 175.889 43.2327 215.268 50.7262z" fill="#e0c9ba"/><path d="M259.884 63.8077 215.268 50.7266 179.506 66.4851 259.884 63.8077z" fill="#130b08"/><path d="M259.884 119.963V63.8079L179.506 66.4854 177.887 122.42 259.884 119.963z" fill="#c6a286"/><path d="M140.502 57.2671V110.128L177.887 122.42 179.506 66.4854 140.502 57.2671z" fill="#e0c8b6"/><path d="M32.201 74.0652V106.437L106.043 100.905V74.0652H32.201z" fill="#d1ad92"/><path d="M150.348 129.025 152.631 215.072 163.889 225.222V127.952L150.348 129.025z" fill="#e0c6b3"/><path d="M282.036 127.952 234.96 103.367 140.502 100.905 163.889 127.952H282.036z" fill="#c9b7ac"/><path d="M150.348 129.025 128.813 100.905H140.502L163.889 127.952 150.348 129.025z" fill="#0a0000"/><path d="M151.889 93.1138 155.58 176.203 43.2771 180.196l-2.0503-79.291L151.889 93.1138z" fill="#ceb097"/><path d="M29.7403 169.132 43.2769 180.196 41.2265 100.905 24.8195 98.4473l4.9208 70.6847z" fill="#d4bdad"/><path d="M151.889 93.1139 41.2265 100.905 24.8195 98.4474 120.503 90.251 151.889 93.1139z" fill="#bc906a"/><path d="M-12207e-8 178.557 20.9219 167.903H83.2781L91.7988 181.838-12207e-8 178.557z" fill="#bc906a"/><path d="M-12207e-8 274.444 93.5342 282.64 91.799 181.839-12207e-8 178.558V274.444z" fill="#cbad93"/><path d="M100.967 178.144V273.215L93.5338 282.64 91.7986 181.839 100.967 178.144z" fill="#332617"/><path d="M282.036 127.952V220.764L163.889 224.455V127.952H282.036z" fill="#ceb096"/><path d="M293.63 187.491V303.866H143.99L146.351 186.262 293.63 187.491z" fill="#c39e80"/><path d="M123.275 176.586 146.351 186.344 143.989 303.948 123.275 284.688V176.586z" fill="#d8b79d"/><path d="M289.624 171.594 293.63 187.573 146.351 186.344 134.813 171.594H289.624z" fill="#d3b49a"/><path d="M106.043 262.151v52.041L14.3566 307.225V255.184L106.043 262.151z" fill="#cdb7a3"/><path d="M123.275 284.688 106.043 314.192V262.151L123.275 246.582V284.688z" fill="#8d6846"/><path d="M106.043 262.151 14.3566 255.183 38.1103 238.386 79.5833 232.647 123.275 246.582 106.043 262.151z" fill="#060407"/><path d="M62.7661 252.726 106.043 262.151 123.275 246.582 79.5832 232.647 62.7661 252.726z" fill="#d0b59d"/><path d="M14.3563 255.184 60.2019 249.859 79.583 232.647 38.11 238.386 14.3563 255.184z" fill="#e0c3b1"/><path d="M243.19 332.509C243.19 332.509 267.605 332.509 261.562 346.688 255.518 360.868 228.699 346.688 228.699 346.688 228.699 346.688 228.488 329.343 243.19 332.509z" fill="#e6e6e6"/><path d="M158.272 328.583C158.272 328.583 134.809 328.583 140.614 342.778 146.419 356.973 172.197 342.778 172.197 342.778 172.197 342.778 172.404 325.413 158.272 328.583z" fill="#e6e6e6"/><path d="M159.336 329.019C159.336 329.019 135.873 329.019 141.678 342.167 147.484 355.315 173.261 342.167 173.261 342.167 173.261 342.167 173.465 326.086 159.336 329.019z" fill="#fff"/><path d="M202.325 203.653C202.325 203.653 197.486 218.83 213.098 218.67 213.098 218.67 195.81 244.989 173.842 222.342L180.919 215.5 202.325 203.653z" fill="#ffb982"/><path d="M179.466 182.751C179.466 182.751 172.615 188.059 176.246 202.223 176.409 202.854 177.67 207.559 177.67 207.559 177.67 207.559 181.086 219.191 185.449 218.981 188.537 218.833 195.95 218.362 198.283 212.987 200.616 207.613 203.341 175.441 179.466 182.751z" fill="#ffa76c"/><path d="M179.504 180.115C179.504 180.115 171.441 185.649 174.88 199.863 175.035 200.498 176.239 205.218 176.239 205.218 176.239 205.218 179.557 216.901 184.543 216.559 188.065 216.329 196.528 215.667 199.46 210.176 202.393 204.685 207.04 172.108 179.504 180.115z" fill="#ffb982"/><path d="M200.944 169.673C200.944 169.673 197.068 222.039 217.409 221.174 217.405 221.174 241.786 164.837 200.944 169.673z" fill="#1d6cb4"/><path d="M161.386 232.125C161.386 232.125 152.18 237.238 157.706 247.313 163.232 257.388 161.662 260.531 163.794 264.554 165.749 268.238 173.85 272.444 178.949 270.691 184.049 268.939 171.578 244.252 171.578 244.252 171.578 244.252 175.692 227.888 161.386 232.125z" fill="#ffa76c"/><path d="M223.418 236.218C223.418 236.218 223.4 253.54 225.098 255.001 226.797 256.461 226.687 269.823 232.349 268.518 238.011 267.214 241.695 260.48 239.857 253.906 238.019 247.333 235.607 242.511 235.184 237.834 234.761 233.157 227.525 229.496 223.418 236.218z" fill="#ffa76c"/><path d="M179.539 216.299C180.302 215.912 179.99 213.643 178.842 211.232 177.693 208.821 176.144 207.18 175.38 207.568 174.617 207.955 174.929 210.223 176.077 212.634 177.226 215.045 178.775 216.686 179.539 216.299z" fill="#ffa76c"/><path d="M175.046 219.374C175.046 219.374 151.99 229.784 155.942 239.945 155.942 239.945 166.3 233.714 170.43 239.579L170.169 243.524 173.261 261.205C173.261 261.205 207.84 285.74 228.661 264.71 228.661 264.71 224.789 254.974 224.509 253.268 223.894 249.716 223.573 242.944 223.573 242.944 223.573 242.944 227.325 238.302 236.358 243.177 236.358 243.177 237.49 221.018 213.121 218.666 212.003 218.697 210.884 218.619 209.78 218.432 208.422 218.14 195.331 225.773 185.842 221.902 176.352 218.031 175.046 219.374 175.046 219.374z" fill="#e21018"/><path d="M185.732 211.056C185.732 211.056 184.856 213.755 182.399 212.458 179.942 211.161 185.543 212.415 185.732 211.056z" fill="#ff7676"/><path d="M254.152 273.231 236.347 263.834 160.68 267.923 163.752 273.231H254.152z" fill="#d5b4a4"/><path d="M223.807 246.99C223.807 246.99 223.902 239.302 219.802 238.71 219.802 238.71 219.738 251.172 222.286 253.676 224.834 256.181 225.098 255.001 225.098 255.001L223.807 246.99z" fill="#bd1818"/><path d="M187.865 254.974C182.539 238.115 172.438 249.588 170.2 239.396 170.2 239.396 169.799 257.988 180.791 260.508 191.783 263.027 203.745 259.102 203.745 259.102 203.745 259.102 188.605 257.318 187.865 254.974z" fill="#bd1818"/><path d="M177.473 220.484C177.473 220.484 178.677 229.204 174 239.287 169.324 249.37 167.206 253.182 165.96 258.171 165.311 260.749 164.711 267.907 168.063 268.596 171.415 269.286 179.009 274.049 180.18 271.576 181.35 269.103 180.583 267.046 183.097 265.146 185.611 263.245 183.977 226.677 183.63 222.443 182.92 213.876 182.191 213.054 179.274 211.811 173.144 209.202 174.548 207.555 174.548 207.555 174.888 206.351 175.559 206.114 176.484 205.818 178.711 205.113 172.332 203.991 171.309 208.084 170.728 210.425 177.473 220.484 177.473 220.484z" fill="#ffb982"/><path d="M182.463 260.188C182.463 260.188 193.485 262.494 208.973 257.696 224.46 252.898 240.042 255.2 240.325 258.79 240.608 262.381 240.703 267.923 234.184 269.531 227.665 271.139 178.145 267.923 178.477 265.586 178.809 263.249 182.463 260.188 182.463 260.188z" fill="#ffb982"/><path d="M242.092 297.501C242.092 297.501 250.102 294.65 253.71 295.309 257.319 295.967 268.809 301.006 258.172 316.128 247.535 331.251 225.246 335.211 225.246 335.211 225.246 335.211 215.473 330.172 225.246 315.926 235.018 301.68 234.505 306.05 242.092 297.501z" fill="#4694d1"/><path d="M243.296 331.963C243.296 331.963 266.759 331.963 260.954 345.843 255.148 359.723 229.371 345.843 229.371 345.843 229.371 345.843 229.152 328.882 243.296 331.963z" fill="#fff"/><path d="M163.752 330.335C163.752 330.335 140.289 330.335 146.094 341.832 151.9 353.328 177.677 341.832 177.677 341.832 177.677 341.832 177.885 327.769 163.752 330.335z" fill="#000"/><path d="M239.408 331.924C239.408 331.924 262.871 331.924 257.066 344.343 251.26 356.762 225.483 344.343 225.483 344.343 225.483 344.343 225.275 329.151 239.408 331.924z" fill="#000"/><path d="M153.183 295.978C153.183 295.978 145.174 293.127 141.565 293.786 137.956 294.444 126.466 299.483 137.103 314.606 147.74 329.728 170.03 333.688 170.03 333.688 170.03 333.688 179.802 328.649 170.03 314.403 160.257 300.157 160.767 304.527 153.183 295.978z" fill="#4694d1"/><path d="M153.184 295.978C153.184 295.978 157.283 305.477 162.171 306.883 165.091 307.715 168.175 307.715 171.094 306.883 171.094 306.883 157.155 294.884 153.184 295.978z" fill="#1d6cb4"/><path d="M163.752 273.231 166.361 366.99h87.791V273.231H163.752z" fill="#ccb196"/><path d="M160.68 267.922v78.863L166.361 366.99 163.752 273.231 160.68 267.922z" fill="#92715b"/><path d="M174.042 192.44C174.042 192.44 176.832 186.934 179.327 180.936 179.327 180.936 190.62 197.741 200.166 196.802 208.822 195.949 200.453 205.07 200.453 205.07 200.453 205.07 198.423 220.258 212.404 218.662 212.404 218.662 226.076 185.462 213.684 170.371 207.569 162.921 191.666 161.655 185.796 169.358 174.827 169.074 164.319 175.764 174.042 192.44z" fill="#1355a0"/><path d="M191.926 171.804C191.926 171.804 190.016 188.639 177.115 193.885 177.115 193.885 164.56 170.768 191.926 171.804z" fill="#1d6cb4"/><path d="M212.272 184.398C210.607 180.087 206.233 171.336 197.634 168.715 197.552 168.686 197.483 168.628 197.438 168.551 197.393 168.475 197.374 168.385 197.386 168.297 197.397 168.208 197.438 168.126 197.501 168.065 197.564 168.004 197.646 167.967 197.732 167.96 202.299 167.87 211.906 169.463 213.001 184.215 213.012 184.31 212.989 184.406 212.936 184.484 212.884 184.563 212.805 184.619 212.715 184.641 212.625 184.664 212.531 184.652 212.449 184.607 212.367 184.562 212.304 184.488 212.272 184.398z" fill="#1d6cb4"/><path d="M188.233 204.734C190.492 204.523 192.158 202.463 191.954 200.132 191.75 197.801 189.753 196.082 187.494 196.292 185.235 196.503 183.569 198.563 183.773 200.894 183.977 203.225 185.974 204.944 188.233 204.734z" fill="#87bee7" fill-opacity=".3" stroke="#0e456f" stroke-miterlimit="10"/><path d="M181.633 201.577C181.712 202.718 181.355 203.845 180.639 204.718 179.924 205.592 178.905 206.141 177.802 206.25 177.258 206.311 176.708 206.259 176.184 206.097 175.66 205.935 175.173 205.667 174.751 205.308 174.329 204.95 173.981 204.507 173.727 204.008 173.473 203.508 173.318 202.961 173.272 202.399 173.193 201.258 173.55 200.13 174.266 199.257 174.981 198.384 176 197.834 177.103 197.725 177.647 197.665 178.197 197.717 178.721 197.878 179.245 198.04 179.732 198.308 180.154 198.667 180.576 199.026 180.924 199.468 181.178 199.968 181.432 200.468 181.587 201.015 181.633 201.577z" fill="#87bee7" fill-opacity=".3" stroke="#0e456f" stroke-miterlimit="10"/><path d="M191.844 199.86 198.917 195.996" stroke="#0e456f" stroke-miterlimit="10"/><path d="M181.588 202.832 184.155 202.352" stroke="#0e456f" stroke-miterlimit="10"/><path d="M202.372 204.339C204.478 204.07 205.917 201.609 205.586 198.84 205.254 196.072 203.278 194.045 201.172 194.313 199.066 194.582 197.627 197.044 197.958 199.812 198.29 202.58 200.266 204.607 202.372 204.339z" fill="#ffb982"/><path d="M204.292 196.938C203.96 194.169 199.064 194.602 201.17 194.317 203.277 194.033 205.255 196.082 205.587 198.847 205.919 201.612 204.183 203.956 202.794 203.742 202.292 203.664 204.624 199.707 204.292 196.938z" fill="#ffa76c"/><path opacity=".3" d="M176.586 199.182 174.82 201.846" stroke="#fff" stroke-width="2" stroke-miterlimit="10" stroke-linecap="round"/><path opacity=".3" d="M186.268 198.574 184.981 200.515" stroke="#fff" stroke-width="2" stroke-miterlimit="10" stroke-linecap="round"/><path opacity=".3" d="M177.292 200.763 174.865 204.42" stroke="#fff" stroke-miterlimit="10" stroke-linecap="round"/><path opacity=".3" d="M187.174 199.517 185.132 202.594" stroke="#fff" stroke-miterlimit="10" stroke-linecap="round"/><path d="M182.822 203.987V209.261H183.754" fill="#ffa76c"/></svg>