<svg width="408" height="406" viewBox="0 0 408 406" fill="none" xmlns="http://www.w3.org/2000/svg"><g clip-path="url(#clip0)"><path d="M386.943 133.545 276.118 131.511V248.477L262.863 301.723H270.876L273.095 292.54C277.813 252.536 341.91 243.816 348.787 302.884 348.787 302.884 396.842 302.299 403.832 295.316 410.822 288.333 398.301 139.219 386.943 133.545z" fill="#e21018" stroke="#000" stroke-width="5" stroke-linecap="round" stroke-linejoin="round"/><path d="M276.118 132.591C276.118 132.591 183.651 131.133 168.212 135.794 168.212 135.794 167.05 210.277 151.322 218.43V302.811H262.872L270.448 273.133 276.127 249.566 276.118 132.591z" fill="#e21018" stroke="#000" stroke-width="5" stroke-linecap="round" stroke-linejoin="round"/><path d="M168.211 135.786C168.211 135.786 121.659 140.953 114.477 143.93 105.521 147.639 67.2949 185.828 53.0966 208.741 53.0966 208.741 80.6193 223.144 80.1825 227.508 79.7456 231.872 80.1825 265.697 80.1825 265.697 80.1825 265.697 100.715 272.898 99.8415 302.794H151.322V218.421C151.322 218.421 166.027 213.769 168.211 135.786z" fill="#e21018" stroke="#000" stroke-width="5" stroke-linecap="round" stroke-linejoin="round"/><path d="M53.0967 208.75C53.0967 208.75 16.1813 228.608 6.78865 244.101-2.60402 259.595 5.25961 298.22 5.25961 298.22L20.3316 301.275C20.3316 301.275 28.6321 250.107 80.1825 265.705V227.517C80.1825 227.517 81.7116 223.152 53.0967 208.75z" fill="#e21018" stroke="#000" stroke-width="5" stroke-linecap="round" stroke-linejoin="round"/><path d="M313.689 132.373C313.689 132.373 164.84 111.135 291.13 266.526 291.13 266.526 322.837 249.068 344.261 280.492 344.261 280.492 405.877 277.952 405.79 272.915 405.703 267.879 400.775 137.968 386.943 134.625 373.112 131.282 313.689 132.373 313.689 132.373z" fill="#fff"/><path d="M118.627 156.813 146.805 151.794C146.805 151.794 153.358 150.921 154.013 160.96 154.669 170.998 148.553 194.565 148.553 194.565 148.553 194.565 129.986 207.659 81.2748 212.678 81.2748 212.678 73.1927 207.877 74.9402 204.385 76.6877 200.894 118.627 156.813 118.627 156.813z" fill="#b0c8e9" stroke="#000" stroke-width="5" stroke-miterlimit="10"/><path d="M401.63 208.68H389.127C389.127 208.68 386.069 207.51 386.069 216.239 386.069 224.968 385.632 260.939 405.44 260.704L401.63 208.68z" fill="#be0000" stroke="#000" stroke-width="5" stroke-linecap="round" stroke-linejoin="round"/><path d="M97.1682 284.472H151.34V302.803H99.8593C100.145 296.577 99.2311 290.354 97.1682 284.472z" fill="#333" stroke="#000" stroke-width="5" stroke-miterlimit="10"/><path d="M267.547 284.472 262.872 302.803H151.322V284.472H267.547z" fill="#333" stroke="#000" stroke-width="5" stroke-miterlimit="10"/><path d="M405.798 274.268C405.92 286.489 405.326 294.868 403.788 296.405 396.798 303.388 348.743 303.972 348.743 303.972 347.712 294.484 345.091 286.759 341.535 280.623 364.173 279.89 389.337 276.695 405.798 274.268z" fill="#333" stroke="#000" stroke-width="5" stroke-miterlimit="10"/><path d="M377.908 224.444H277.865" stroke="#000" stroke-width="5" stroke-linecap="round" stroke-linejoin="round"/><path d="M102.646 173.73C110.702 165.158 118.627 156.805 118.627 156.805L146.805 151.786C146.805 151.786 153.358 150.913 154.013 160.951 154.101 162.799 154.054 164.652 153.873 166.494 140.086 168.039 131.2 166.747 102.646 173.73z" fill="#92b8dd"/><path d="M87.286 190.245 98.8979 210.321C93.5245 211.194 87.6704 212.006 81.2834 212.669 81.2834 212.669 73.2014 207.868 74.9489 204.377 75.5343 203.207 80.698 197.402 87.286 190.245z" fill="#333" stroke="#000" stroke-width="5" stroke-miterlimit="10"/><path d="M195.157 227.299H178.408C177.481 227.299 176.592 227.666 175.936 228.321 175.281 228.976 174.913 229.864 174.913 230.79V231.951C174.913 232.877 175.281 233.765 175.936 234.42 176.592 235.075 177.481 235.443 178.408 235.443H191.662C192.589 235.443 193.478 235.075 194.134 234.42 194.789 233.765 195.157 232.877 195.157 231.951V227.299z" fill="#b0c8e9" stroke="#000" stroke-width="5" stroke-miterlimit="10"/><path d="M119.579 235.443H132.825C133.752 235.443 134.641 235.075 135.297 234.42 135.952 233.765 136.32 232.877 136.32 231.951V230.79C136.32 229.864 135.952 228.976 135.297 228.321 134.641 227.666 133.752 227.299 132.825 227.299H116.084V231.951C116.084 232.877 116.453 233.765 117.108 234.42 117.764 235.075 118.653 235.443 119.579 235.443z" fill="#b0c8e9" stroke="#000" stroke-width="5" stroke-miterlimit="10"/><path d="M60.7417 334.008C43.6497 334.008 29.7939 320.166 29.7939 303.091 29.7939 286.016 43.6497 272.173 60.7417 272.173 77.8337 272.173 91.6895 286.016 91.6895 303.091 91.6895 320.166 77.8337 334.008 60.7417 334.008z" fill="#333" stroke="#000" stroke-width="5" stroke-miterlimit="10"/><path d="M60.7421 320.225C51.2697 320.225 43.5907 312.554 43.5907 303.091 43.5907 293.628 51.2697 285.956 60.7421 285.956 70.2146 285.956 77.8936 293.628 77.8936 303.091 77.8936 312.554 70.2146 320.225 60.7421 320.225z" fill="#fff" stroke="#000" stroke-width="5" stroke-miterlimit="10"/><path d="M308.822 334.008C291.73 334.008 277.874 320.166 277.874 303.091 277.874 286.016 291.73 272.173 308.822 272.173 325.914 272.173 339.77 286.016 339.77 303.091 339.77 320.166 325.914 334.008 308.822 334.008z" fill="#333" stroke="#000" stroke-width="5" stroke-miterlimit="10"/><path d="M308.822 320.225C299.35 320.225 291.671 312.554 291.671 303.091 291.671 293.628 299.35 285.956 308.822 285.956 318.295 285.956 325.974 293.628 325.974 303.091 325.974 312.554 318.295 320.225 308.822 320.225z" fill="#fff" stroke="#000" stroke-width="5" stroke-miterlimit="10"/><path d="M118.627 156.813 146.805 151.794C146.805 151.794 153.358 150.921 154.013 160.96 154.669 170.998 148.553 194.565 148.553 194.565 148.553 194.565 129.986 207.659 81.2748 212.678 81.2748 212.678 73.1927 207.877 74.9402 204.385 76.6877 200.894 118.627 156.813 118.627 156.813z" stroke="#000" stroke-width="5" stroke-miterlimit="10"/><path d="M386.943 134.625 276.118 132.591V249.557L262.863 302.803H270.876L273.095 293.62C277.813 253.616 341.91 244.896 348.787 303.964 348.787 303.964 396.842 303.379 403.832 296.396 410.822 289.413 398.301 140.298 386.943 134.625z" stroke="#000" stroke-width="5" stroke-linecap="round" stroke-linejoin="round"/><path d="M19.3095 255.013H3.93171C3.93171 255.013 2.6036 241.492 28.6759 224.462L35.7707 230.659C35.7707 230.659 36.6444 232.257 33.4378 236.184 30.2312 240.112 19.3095 255.013 19.3095 255.013z" fill="#e6e6e6" stroke="#000" stroke-width="5" stroke-linecap="round" stroke-linejoin="round"/><path opacity=".35" d="M115.132 162.583l-7.619 46.167" stroke="#fff" stroke-width="6" stroke-linecap="round" stroke-linejoin="round"/><path opacity=".35" d="M135.761 156.621 128.648 199.733" stroke="#fff" stroke-width="10" stroke-linecap="round" stroke-linejoin="round"/><path d="M118.627 156.813 146.805 151.794C146.805 151.794 153.358 150.921 154.013 160.96 154.669 170.998 148.553 194.565 148.553 194.565 148.553 194.565 129.986 207.659 81.2748 212.678 81.2748 212.678 73.1927 207.877 74.9402 204.385 76.6877 200.894 118.627 156.813 118.627 156.813z" stroke="#000" stroke-width="5" stroke-miterlimit="10"/><path d="M107.487 195.875C107.487 195.875 108.361 182.563 98.9678 190.856 89.5751 199.148 91.7595 216.169 91.7595 216.169H104.647C104.647 216.169 107.268 214.205 107.487 195.875z" fill="#fff" stroke="#000" stroke-width="5" stroke-linecap="round" stroke-linejoin="round"/></g><path d="M357.947 81.3502C365.916 73.3926 368.174 62.7463 362.992 57.5711 357.81 52.3958 347.15 54.6514 339.181 62.609 331.213 70.5667 328.955 81.2129 334.137 86.3882 339.319 91.5634 349.979 89.3078 357.947 81.3502z" fill="#ffb982"/><path d="M366.487 61.7175C372.583 61.7175 377.525 57.5069 377.525 52.3129 377.525 47.1188 372.583 42.9082 366.487 42.9082 360.391 42.9082 355.449 47.1188 355.449 52.3129 355.449 57.5069 360.391 61.7175 366.487 61.7175z" fill="#1355a0"/><path d="M365.94 81.4157C370.189 81.4157 373.633 78.4836 373.633 74.8667 373.633 71.2497 370.189 68.3176 365.94 68.3176 361.691 68.3176 358.246 71.2497 358.246 74.8667 358.246 78.4836 361.691 81.4157 365.94 81.4157z" fill="#1355a0"/><path d="M371.008 75.944C377.665 75.944 383.061 70.3426 383.061 63.4329 383.061 56.5233 377.665 50.9219 371.008 50.9219 364.35 50.9219 358.954 56.5233 358.954 63.4329 358.954 70.3426 364.35 75.944 371.008 75.944z" fill="#1355a0"/><path d="M359.793 79.1587 342.922 88.8483C342.922 88.8483 336.324 99.6779 352.425 97.683 352.425 97.683 349.999 93.8812 350.473 91.0314 350.946 88.1815 363.229 81.8661 363.229 81.8661L359.793 79.1587z" fill="#0e456f"/><path d="M383.17 63.7237C383.17 69.8794 378.769 73.3563 376.287 74.1258 365.939 77.3291 378.284 71.3728 378.284 65.217 378.284 59.0612 366.504 52.5806 372.434 52.5806 378.364 52.5806 383.17 57.5679 383.17 63.7237z" fill="#f9b13a"/><path d="M361.741 85.1295C364.556 83.7408 365.991 80.9037 364.947 78.7926 363.903 76.6815 360.775 76.0959 357.96 77.4846 355.145 78.8733 353.71 81.7104 354.754 83.8215 355.798 85.9326 358.927 86.5182 361.741 85.1295z" fill="#ffb982"/><path d="M322.033 378.067C322.033 378.067 356.785 386.657 334.144 399.59 311.503 412.523 271.86 401.431 277.299 395.03 282.738 388.629 282.185 397.521 322.033 378.067z" fill="#e6e6e6"/><path d="M320.19 378.632C320.19 378.632 351.083 386.269 330.954 397.76 310.824 409.251 275.593 399.396 280.421 393.696 285.249 387.996 284.764 395.919 320.19 378.632z" fill="#fff"/><path d="M318.974 379.521C318.974 379.521 345.799 384.839 327.849 394.728 309.899 404.617 279.371 397.623 283.76 392.864 288.149 388.105 287.498 394.54 318.974 379.521z" fill="#000" stroke="#000" stroke-miterlimit="10"/><path d="M232.988 354.938C232.988 354.938 266.427 342.153 255.246 365.688 244.066 389.222 205.182 402.736 205.975 394.375 206.768 386.013 211.408 393.639 232.988 354.938z" fill="#e6e6e6"/><path d="M231.794 356.448C231.794 356.448 261.518 345.088 251.576 366.007 241.634 386.925 207.059 398.94 207.784 391.508 208.509 384.075 212.629 390.852 231.794 356.448z" fill="#fff"/><path d="M231.309 357.867C231.309 357.867 256.353 346.935 247.29 365.277 238.226 383.619 209.159 395.315 210.038 388.908 210.917 382.502 214.067 388.156 231.309 357.867z" fill="#000" stroke="#000" stroke-miterlimit="10"/><path d="M227.149 336.202C227.149 336.202 236.326 352.601 237.496 356.722 237.844 357.958 233.159 359.623 232.656 358.432 230.762 353.957 221.761 338.118 221.761 338.118L227.149 336.202z" fill="#ffb982"/><path d="M315.647 360.512C315.647 360.512 318.786 379.036 318.5 383.311 318.415 384.594 313.438 384.594 313.364 383.311 313.078 378.466 309.939 360.512 309.939 360.512H315.647z" fill="#ffb982"/><path d="M250.583 202.058C250.583 202.058 186.09 267.605 186.09 284.705 186.09 301.804 223.759 351.962 223.759 351.962L233.461 347.972 222.617 293.254 264.281 263.615C264.281 263.615 268.847 263.615 268.847 267.035 268.847 270.455 250.583 318.903 278.549 342.842L310.51 373.621 320.212 369.631C320.212 369.631 298.525 326.313 297.383 318.333 296.242 310.354 305.767 266.004 309.939 259.056 315.076 250.506 327.061 229.417 323.637 215.737 320.212 202.058 250.583 202.058 250.583 202.058z" fill="#1d6cb4"/><path d="M255.434 242.241C255.434 242.241 208.634 279.29 215.483 301.519 222.332 323.749 229.569 328.348 229.569 328.348L222.617 293.255 264.281 263.616C264.281 263.616 255.149 243.666 255.434 242.241z" fill="#1355a0"/><path d="M303.376 217.732C303.376 217.732 299.381 241.671 303.376 244.521 303.376 244.521 313.649 231.411 313.649 217.732H303.376z" fill="#1355a0"/><path d="M318.786 242.241 308.838 261.438C308.838 261.438 294.655 305.327 297.309 315.974 299.207 323.164 301.657 330.198 304.637 337.012 304.637 337.012 295.386 330.588 291.961 316.909 288.537 303.229 303.193 259.233 307.371 255.351 310.556 252.393 318.786 242.241 318.786 242.241z" fill="#1355a0"/><path d="M345.039 96.3264C345.039 96.3264 377 111.716 334.195 178.403 334.195 178.403 325.635 188.663 324.493 194.933 323.352 201.203 327.917 224.572 324.493 230.842 321.069 237.111 319.425 240.725 319.425 240.725 319.425 240.725 327.061 219.727 301.378 219.157 275.695 218.587 239.739 219.727 239.739 219.727L312.793 149.05C312.793 149.05 340.188 147.34 345.325 141.07 350.461 134.8 345.039 96.3264 345.039 96.3264z" fill="#f2f2f2"/><path d="M249.088 69.1956 222.634 71.4698 259.875 4.84497 270.844 12.3516l-21.756 56.844z" fill="#c8a17a"/><path d="M251.439 68.9678 193.225 175.554 268.561 222.862l57.964-99.49L251.439 68.9678z" fill="#a08163"/><path d="M198.932 73.5276 251.439 68.9678 193.224 175.554 143 172.704 198.932 73.5276z" fill="#e5c7a3"/><path d="M217.766 220.012 268.561 222.862 193.224 175.554 143 172.704 217.766 220.012z" fill="#a57c58"/><path d="M307.371 1.14014 268.561 70.1077 326.776 120.266 366.727 55.2882 307.371 1.14014z" fill="#a6886a"/><path d="M251.251 68.9448 325.366 122.534 326.776 120.266 268.561 70.1076 251.251 68.9448z" fill="#ae8765"/><path d="M234.717 14.2496 259.875 4.84497 222.634 71.4698 201.58 73.2995 234.717 14.2496z" fill="#eacba7"/><path d="M268.561.0 232.034 68.3975 268.561 70.1075l38.81-68.96754L268.561.0z" fill="#fbe9d0"/><path d="M305.088 150.475C305.088 150.475 270.273 174.984 262.283 174.984 257.289 174.955 252.313 174.382 247.444 173.274 247.444 173.274 232.605 171.564 249.727 176.124 258.859 177.264 205.889 210.163 258.003 185.528 263.585 182.889 295.1 170.709 295.1 170.709 295.1 170.709 316.217 163.299 317.359 158.739 318.5 154.18 315.361 143.065 312.508 143.635 309.654 144.205 305.088 150.475 305.088 150.475z" fill="#ffb982"/><path d="M332.74 180.233l-22.726 12.631C310.014 192.864 320.858 189.735 322.216 189.376 325.949 188.384 325.994 190.709 325.994 190.709 325.994 190.709 331.199 181.783 332.74 180.233z" fill="#bab9b9"/><path d="M341.655 95.1865C341.655 95.1865 373.616 102.596 335.377 157.884 335.377 157.884 321.109 168.714 316.543 163.584 316.543 163.584 317.684 143.065 308.552 144.205 299.421 145.345 319.967 134.515 319.967 134.515L326.245 120.266 341.655 95.1865z" fill="#f5f7fa"/><path d="M334.766 158.175C334.88 157.474 337.471 141.332 332.449 140.215 327.843 139.195 326.451 138.631 326.211 138.505L330.771 142.495C330.771 142.558 333.054 159.024 334.766 158.175z" fill="#d8d8d8"/><path d="M327.347 161.874C327.347 161.874 327.918 147.625 326.205 148.195 324.493 148.765 323.38 164.342 323.922 164.154 324.465 163.966 327.918 163.014 327.347 161.874z" fill="#d8d8d8"/><defs><clipPath id="clip0"><path d="M0 0h408v206H0z" fill="#fff" transform="matrix(-1 0 0 1 408 130.19)"/></clipPath></defs></svg>