<svg width="130" height="194" viewBox="0 0 130 194" fill="none" xmlns="http://www.w3.org/2000/svg"><path d="M92.9356 22.2446C91.8533 21.9682 90.7868 21.6323 89.7411 21.2384 89.4526 21.1208 89.1614 21.011 88.8807 20.8803 84.9428 19.0246 84.7712 17.3258 85.5016 13.6588 85.5848 13.225 85.9253 13.0708 86.2814 12.9244 88.0749 12.1821 89.9724 11.8398 91.8543 11.432 92.0961 11.3798 92.343 11.3405 92.5873 11.2961 92.6773 11.322 92.7605 11.3672 92.8314 11.4285 92.9023 11.4899 92.9592 11.566 92.998 11.6516 94.7915 14.5266 97.4168 16.2463 100.604 17.1637 102.782 17.7936 104.983 18.3294 107.279 18.2928 107.8 18.3148 108.31 18.1342 108.703 17.7884 109.193 17.3532 109.833 17.1272 110.486 17.1585 110.694 17.1585 110.899 17.182 111.107 17.182 111.155 17.1885 111.203 17.1842 111.248 17.1694 111.294 17.1546 111.335 17.1297 111.369 17.0965 111.404 17.0634 111.431 17.0228 111.447 16.9779 111.464 16.9329 111.47 16.8848 111.466 16.837 111.466 16.5757 111.256 16.6149 111.1 16.6175 109.915 16.6522 108.731 16.5646 107.565 16.3561 103.925 15.6975 101.238 13.7425 99.4443 10.5068 98.3833 8.67432 97.8054 6.59977 97.7651 4.47977 97.757 4.00034 97.8509 3.5247 98.0405 3.08475 98.2302 2.64479 98.5111 2.25069 98.8646 1.92886 99.0544 1.74068 99.2415 1.54204 99.4495 1.36954 100.594.695323 101.867.268914 103.185.117613 103.421-.0235235 103.705.159432 103.944.0H105.69C105.787.0501839 105.894.0763758 106.002.0763758 106.111.0763758 106.218.0501839 106.314.0h.125C106.912.261363 107.461.237839 107.97.365907 112.303 1.46102 115.31 4.02499 116.693 8.36101 117.139 9.868 117.235 11.4578 116.974 13.008 116.915 13.3117 116.975 13.6268 117.143 13.8862 117.938 15.1538 117.957 16.5391 117.619 17.9374 117.447 18.6456 116.735 18.8966 116.241 19.3278 115.628 20.0309 114.757 20.3158 113.948 20.6581 110.727 22.0095 107.315 22.8464 103.837 23.1385 103.629 23.1568 103.429 23.2169 103.224 23.2456 100.125 23.3502 97.0321 23.324 93.9831 22.6445 93.6033 22.6141 93.2399 22.4754 92.9356 22.2446z" fill="#d3151a"/><path d="M103.923.0131836C103.694.215612 103.424.136747 103.164.131489 103.172.112885 103.177.092725 103.177.0723364 103.177.0519478 103.172.0317881 103.164.0131836H103.923z" fill="#e26769"/><path d="M106.294.0131836C106.086.241902 105.878.155147 105.67.0131836H106.294z" fill="#e26769"/><path d="M116.158 82.3838C116.4 83.1679 116.361 83.9781 116.483 84.8328 117.069 84.4074 117.617 83.9307 118.12 83.4083 118.352 83.9154 118.313 84.4224 118.362 84.8955 118.607 87.3471 118.742 89.8039 118.801 92.2686 118.92 97.6543 118.6 103.041 117.842 108.374 117.419 111.559 117.213 114.77 117.226 117.984 117.226 121.241 117.2 124.497 116.777 127.736 116.618 128.933 116.288 130.088 116.244 131.321 116.15 133.987 117.133 136.337 118.209 138.679 119.202 140.838 120.288 142.947 120.982 145.239 121.502 146.967 121.502 148.723 121.39 150.508 121.208 153.72 121.471 156.935 121.515 160.152 121.536 161.569 121.692 162.986 121.536 164.405 121.511 164.592 121.524 164.782 121.572 164.964 122.383 167.562 122.105 170.155 121.572 172.761 121.349 173.882 121.097 175.001 120.969 176.143 120.863 177.112 120.475 177.957 119.529 178.414 119.313 178.604 119.037 178.711 118.749 178.717 114.965 179.572 111.23 179.561 107.588 178.048 107.25 177.907 106.863 177.818 106.699 177.421 106.6 176.741 106.244 176.171 105.919 175.591 105.516 174.896 105.345 174.284 105.849 173.485 106.574 172.308 106.694 170.913 106.629 169.546 106.516 167.837 106.552 166.122 106.738 164.421 106.959 162.628 106.572 160.892 106.096 159.172 105.522 157.105 104.778 155.085 104.37 152.97 104.206 152.258 104.134 151.527 104.157 150.796 104.378 147.591 103.742 144.386 102.314 141.512 101.935 139.591 101.599 137.662 101.251 135.733 100.585 132.04 99.8681 128.355 99.239 124.654 99.1848 124.495 99.1741 124.325 99.2078 124.16 99.291 123.933 99.1403 124.134 99.1143 124.108 98.8699 123.967 98.8855 123.721 98.8829 123.499 98.8439 121.776 98.623 120.065 98.623 118.326 98.5398 118.462 98.4774 118.588 98.3059 118.588 98.0459 118.449 98.0278 118.188 97.9862 117.942 96.541 109.905 95.0256 101.879 93.8273 93.8028 93.6766 92.8524 93.6191 91.8894 93.6557 90.9278 93.6739 90.5305 93.6765 90.128 93.9442 89.7961 94.2328 89.6575 94.5161 89.7647 94.7968 89.8196 97.6732 90.3643 100.599 90.5974 103.525 90.5148 104.045 90.5148 104.565 90.392 105.085 90.3711 105.527 90.3528 105.727 90.1097 105.807 89.6654 105.932 89.012 105.73 88.3795 105.735 87.7339 105.735 87.5091 105.657 87.2791 105.784 87.0622 106.28 86.8008 106.854 86.7302 107.398 86.8636 107.83 87.5353 107.611 88.2801 107.575 88.9858 107.523 90.0313 107.476 90.0156 108.474 89.7699 110.504 89.2429 112.452 88.4345 114.26 87.368 114.464 87.2671 114.632 87.1075 114.745 86.9096 114.858 86.7117 114.909 86.4845 114.892 86.2572 114.892 85.3006 114.804 84.3414 114.954 83.3822 115.305 83.0215 115.591 82.5275 116.158 82.3838z" fill="#1d6cb4"/><path d="M93.9365 89.8563C93.5388 92.2713 94.1236 94.6183 94.4745 96.9732 94.8644 99.5868 95.3505 102.169 95.8106 104.762 96.5046 108.667 97.2194 112.564 97.9134 116.466 98.0064 117.185 98.1453 117.897 98.3293 118.598 98.5554 119.121 98.3969 119.68 98.3293 120.193 97.9984 122.576 98.2564 125.005 99.0805 127.265 99.2703 127.773 99.4105 128.298 99.499 128.833 99.5691 128.964 99.5432 129.126 99.6186 129.257 99.5562 129.066 99.5354 128.865 99.4678 128.674 99.2078 127.466 99.1637 126.235 99.0259 125.015 98.9849 124.863 98.9767 124.705 99.0018 124.549 99.0269 124.394 99.0848 124.246 99.1714 124.116 99.2208 124.006 99.2624 123.815 99.317 124.116 99.8144 126.867 100.314 129.618 100.817 132.37 101.337 135.245 101.865 138.12 102.402 140.995 102.436 141.175 102.493 141.366 102.324 141.517L102.023 140.995H101.927C101.987 141.779 102.067 142.563 102.101 143.365 102.176 145.054 102.207 146.745 102.296 148.433 102.428 151.047 102.878 153.566 104.144 155.898 104.768 157.045 104.469 158.25 104.25 159.447 104.099 160.133 104.071 160.842 104.17 161.538 104.604 164.089 103.728 166.261 102.062 168.145 101.755 168.445 101.575 168.852 101.558 169.282 101.503 170.55 100.814 171.462 99.7537 172.105 98.6256 172.787 97.3545 173.019 96.0861 173.236 95.0022 173.422 93.9105 173.555 92.824 173.73 92.7156 173.757 92.6015 173.748 92.4985 173.705 92.3955 173.662 92.3091 173.586 92.2521 173.49 91.3294 172.285 90.5652 172.105 89.1719 172.627 86.3127 173.694 83.5549 175.029 80.5942 175.819 78.4238 176.399 76.2274 176.634 73.9998 176.2 72.4584 175.9 71.8528 175.116 71.8866 173.54 71.8866 173.249 71.9438 172.959 71.975 172.669 72.1985 172.708 72.2713 172.894 72.3233 173.072 72.6742 174.232 73.5424 174.614 74.6471 174.71 78.2285 175.032 81.8266 174.316 85.0157 172.646 87.6773 171.279 90.5236 170.699 93.4426 170.335 94.8644 170.158 96.2889 169.988 97.7029 169.752 97.9829 169.693 98.2694 169.669 98.5554 169.682 97.8016 169.752 96.9594 169.504 96.1537 169.133 93.9469 168.119 91.5945 167.583 89.2785 166.917 87.8281 166.501 86.4713 165.871 85.5303 164.583 85.2384 164.254 85.0431 163.851 84.9663 163.417 84.5712 162.39 84.7272 161.687 85.6525 161.02 86.9912 160.058 87.472 158.655 87.7917 157.142 87.8779 156.684 87.8207 156.211 87.628 155.788 87.0145 154.387 86.9262 152.876 86.7156 151.397 86.0138 146.431 85.6499 141.434 85.0728 136.457 84.9091 135.043 84.6881 133.637 84.1007 132.333 83.126 130.169 82.8479 127.845 82.4918 125.538 82.0161 122.464 81.5144 119.396 81.0621 116.322 80.5995 113.162 80.3005 109.979 79.9886 106.8 79.6975 103.831 79.422 100.857 79.1932 97.8801 78.8319 93.2305 79.0113 88.6174 80.3265 84.1037 80.3421 83.9129 80.4903 83.8214 80.6255 83.7299 81.2545 83.3196 81.9121 82.9615 82.5593 82.5904 82.6348 82.5332 82.7231 82.4955 82.8164 82.4804 82.9097 82.4654 83.0053 82.4735 83.0948 82.5041 83.7706 83.4738 84.3554 84.514 85.2496 85.3164 85.4679 85.5124 85.6863 85.7032 85.9072 85.894 86.2296 86.1711 86.3725 86.1345 86.4505 85.6876 86.6881 84.4573 87.0559 83.256 87.5474 82.1043 87.6057 81.859 87.7484 81.6424 87.9503 81.4927 88.5585 81.5371 88.9744 81.9135 89.3721 82.3186 89.1408 83.1027 88.6729 83.7718 88.3766 84.5271 88.1166 85.1674 87.9243 85.8339 87.6799 86.4638 87.5162 86.8924 87.6176 87.1355 88.0205 87.3733 89.6398 88.3404 91.3996 88.9415 93.1905 89.4643 93.4556 89.5557 93.7727 89.5557 93.9365 89.8563z" fill="#1355a0"/><path d="M8.10221 54.9459 8.4843 54.465C8.59742 54.45 8.71242 54.4592 8.82173 54.4921 8.93105 54.525 9.0322 54.5808 9.11854 54.6558 14.1976 57.5857 19.2558 60.5417 24.3375 63.4768 29.7215 66.5887 35.1004 69.7068 40.474 72.831 42.4911 73.9966 44.5133 75.1466 46.5096 76.3515 46.6136 76.4613 46.5746 76.5841 46.546 76.7096 46.53 76.7701 46.51 76.8295 46.4862 76.8873 45.4257 80.3408 44.3695 83.7951 43.3176 87.2503 42.7701 89.0468 42.2199 90.8432 41.6671 92.6396 41.4514 93.3427 41.2538 93.4237 40.6274 93.0526 35.8706 90.2691 31.0931 87.5169 26.3312 84.7517 20.9333 81.6154 15.5362 78.479 10.1401 75.3427 9.56821 75.0107 8.93918 74.7572 8.46871 74.2632 7.60574 73.5706 6.57901 73.1446 5.65365 72.5539 5.05743 72.1742 4.44233 71.8252 3.81075 71.5085 3.42085 71.3124 3.34028 71.1086 3.47545 70.6799 4.45019 67.5436 5.39892 64.4072 6.35287 61.2892 6.40485 61.1114 6.43606 60.9259 6.47764 60.7429 6.34508 60.4607 6.50623 60.2202 6.58161 59.9588 7.08327 58.2913 7.61614 56.6238 8.10221 54.9459z" fill="#e5b586"/><path d="M83.0713 82.5646C82.1127 83.0023 81.1927 83.5208 80.3212 84.1145 79.4634 84.4491 78.6004 84.6843 77.7219 84.1929 77.7049 84.1441 77.7061 84.0907 77.7252 84.0427 77.7443 83.9946 77.7801 83.9552 77.8259 83.9316 78.6732 83.4088 79.0787 82.5882 79.4062 81.7021 80.381 80.918 81.5247 80.411 82.5826 79.7628 84.4385 78.6259 84.1422 79.2166 84.1708 77.042 84.1708 76.3572 84.1032 75.6672 84.2305 74.9877 84.5892 74.465 85.1819 74.2585 85.6965 73.9631 88.5558 72.3113 91.415 70.6334 94.2873 68.9972 94.8279 68.6862 94.8305 68.6679 94.4406 68.1713 93.7804 67.3376 93.1618 66.4698 92.5223 65.6204 92.3872 65.4375 92.2312 65.2571 92.2936 64.9984 92.6526 64.6842 93.0759 64.4531 93.5335 64.3214 94.9969 63.8693 96.0938 62.9284 97.0763 61.8071 97.7106 60.9812 98.2746 60.1004 98.9088 59.2771 100.072 57.8338 101.385 56.5195 102.826 55.3567 104.165 54.2276 105.651 53.3049 107.05 52.2595 108.755 51.214 110.361 50.0301 112.03 48.9349 113.351 48.0329 114.571 46.9901 115.669 45.8247 117.489 43.9481 119.568 43.8436 121.855 44.6799 121.932 44.7127 122.011 44.7389 122.092 44.7583 123.834 45.2471 125.5 45.9659 127.236 46.4755 127.875 46.6785 128.457 47.0295 128.936 47.5001 129.282 47.8241 129.648 48.1535 129.622 48.7023 129.782 49.0489 129.847 49.4325 129.809 49.8128 129.771 50.1931 129.632 50.5561 129.406 50.8638 128.367 52.432 127.41 54.0577 126.417 55.6598 126.378 55.7226 126.363 55.8193 126.251 55.8036 125.975 55.6964 125.819 55.8898 125.674 56.0649 125.219 56.5531 124.7 56.9777 124.132 57.3273 121.913 58.838 119.654 60.2938 117.585 62.0188 114.986 64.5828 111.804 66.2712 108.659 68.0171 107.231 68.789 105.875 69.6873 104.607 70.7013 102.839 72.1414 100.864 73.2575 98.888 74.3604 95.275 76.3729 91.5684 78.2103 87.9709 80.2359 87.7526 80.3587 87.5628 80.5234 87.3497 80.6541 86.167 81.1899 85.0103 81.7649 83.8277 82.3216 83.6023 82.4704 83.3407 82.5545 83.0713 82.5646z" fill="#bd1818"/><path d="M8.46865 74.2734C9.50838 74.6812 10.3895 75.3346 11.3435 75.8756 13.9974 77.3811 16.6305 78.9257 19.2688 80.46 21.7641 81.9079 24.2577 83.3594 26.7496 84.8143 29.3489 86.325 31.9534 87.834 34.5631 89.3412 36.575 90.5069 38.5895 91.6673 40.5935 92.8461 41.3109 93.2669 41.3057 93.2904 41.5553 92.4723 43.1149 87.3757 44.6692 82.2782 46.2184 77.1798 46.2674 77.044 46.3247 76.9113 46.39 76.7825 46.6499 77.0282 46.6057 77.3576 46.6057 77.6633 46.6057 85.1175 46.6057 92.5716 46.6057 100.026 46.6509 100.318 46.581 100.616 46.4108 100.857L37.8331 95.891 14.7824 82.5378C12.8225 81.4 10.8609 80.2674 8.89755 79.1401 8.63762 78.9859 8.44266 78.8421 8.44786 78.4762 8.47125 77.0753 8.46346 75.6744 8.46865 74.2734z" fill="#cb9c6f"/><path d="M46.4131 100.857V77.5359C46.4131 77.2745 46.4131 77.0341 46.3975 76.7832 46.3975 76.7466 46.4131 76.71 46.4183 76.6734 46.7146 76.6028 46.8212 76.8407 46.9381 77.0158 48.7057 79.389 50.4827 81.7552 52.2693 84.1144 52.4409 84.3444 52.6514 84.5744 52.5058 84.8985 51.5727 86.5739 50.5902 88.2204 49.631 89.9245 50.4342 89.4175 51.2322 88.9889 52.0172 88.5393 52.5682 88.2257 52.7736 88.3537 52.797 88.9889 52.8178 89.7729 52.797 90.5753 52.797 91.3699 52.797 91.7855 52.9321 91.8377 53.2778 91.6312 54.3176 91.0432 55.3027 90.4028 56.3736 89.8958 56.4152 89.8893 56.4578 89.893 56.4976 89.9066 56.5375 89.9203 56.5734 89.9435 56.6024 89.9742 56.9507 90.4969 57.3302 90.4133 57.8137 90.1284 63.7219 86.6653 69.6561 83.2467 75.5773 79.8098L83.4637 75.2359C83.7236 75.0791 83.9835 74.802 84.3578 74.9014 84.3578 76.0487 84.3344 77.1935 84.3578 78.3383 84.3748 78.5222 84.3337 78.7068 84.2404 78.8659 84.1471 79.0249 84.0063 79.1503 83.838 79.2243 82.3641 80.0659 80.9085 80.9415 79.4477 81.804 78.7147 82.5018 77.7816 82.8782 76.929 83.3722 75.0523 84.4725 73.186 85.5911 71.2729 86.6261 71.0545 86.7437 70.8206 86.8248 70.5971 86.9267 67.9484 88.4478 65.2971 89.9611 62.6536 91.4901 57.403 94.5289 52.1541 97.5721 46.9069 100.62 46.7562 100.732 46.621 100.881 46.4131 100.857z" fill="#8d623e"/><path d="M106.717 177.421C108.976 178.652 111.43 179.094 113.956 179.101 115.57 179.119 117.179 178.934 118.747 178.55 118.947 178.764 118.765 178.942 118.674 179.112 117.738 180.863 117.083 182.732 116.413 184.601 115.797 186.31 115.092 187.98 113.995 189.449 113.805 189.723 113.563 189.958 113.283 190.139 109.987 192.141 106.452 192.867 102.655 192.11 102.059 191.989 101.42 191.895 100.965 191.401 100.689 188.665 101.685 186.284 103.029 184.01 104.141 182.131 105.405 180.351 106.325 178.344 106.463 178.038 106.595 177.727 106.717 177.421z" fill="#000"/><path d="M84.9611 163.425C86.0762 165.654 88.1011 166.545 90.3417 167.066 92.3491 167.52 94.3097 168.162 96.198 168.984 97.0651 169.34 97.9778 169.571 98.9091 169.671 97.4561 169.991 95.9859 170.226 94.5058 170.374 91.6804 170.722 88.8471 171.062 86.2296 172.274 84.5479 173.059 82.8921 173.864 81.0908 174.331 78.8589 174.922 76.5376 175.092 74.2442 174.833 73.0979 174.7 72.4455 174.078 72.1257 173.017 72.0836 172.9 72.0332 172.786 71.975 172.677 71.7151 170.529 73.0277 169.222 74.4703 168.02 76.0611 166.692 77.9898 166.015 79.9133 165.348 81.6106 164.755 83.334 164.219 84.9611 163.425z" fill="#000"/><path d="M117.525 61.864C119.55 60.1651 121.772 58.7459 123.948 57.2587 124.542 56.8789 125.097 56.4412 125.606 55.9519 125.773 55.782 125.957 55.471 126.259 55.8003 125.739 56.046 125.479 56.506 125.219 56.9765 122.864 61.3935 121.424 66.1635 119.901 70.902 119.02 73.6437 118.24 76.409 117.629 79.2213 117.598 79.365 117.58 79.5767 117.486 79.6264 116.36 80.2249 116.68 81.5134 116.155 82.3942 115.744 82.6739 115.5 83.1522 115.027 83.3587 114.796 83.045 114.523 83.1522 114.247 83.2777 113.345 83.7037 112.428 84.1192 111.523 84.5035 111.305 84.5923 111.081 84.7805 110.84 84.54 110.725 84.2578 110.855 84.0173 110.933 83.7559 112.662 78.2673 114.263 72.7237 115.872 67.188 116.314 65.6642 116.748 64.1379 117.187 62.6115 117.262 62.347 117.376 62.0951 117.525 61.864z" fill="#9c2415"/><path d="M129.63 48.6914C129.11 47.5754 128.18 46.9194 127.073 46.577 125.534 46.1013 124.039 45.5002 122.498 45.0324 122.342 44.9853 122.181 44.9566 122.019 44.92 121.957 44.8638 121.917 44.7867 121.908 44.7031 121.908 43.263 121.052 42.1966 120.348 41.0806 118.544 38.172 116.449 35.457 114.094 32.9785 113.983 32.8819 113.9 32.7575 113.852 32.6178 113.941 32.0455 114.312 31.6064 114.572 31.1203 114.942 30.4238 115.223 29.6836 115.409 28.917 115.516 28.5778 115.52 28.2144 115.421 27.873 115.322 27.5315 115.124 27.2272 114.853 26.9986 114.362 26.5491 113.655 26.3505 113.333 25.6918 113.333 25.3756 113.431 25.1168 113.803 25.0776 116.018 27.5971 118.258 30.0905 120.655 32.4401 122.825 34.5702 124.985 36.7133 127.174 38.8251 127.718 39.3707 128.159 40.012 128.474 40.7174 129.23 42.2809 129.727 43.9583 129.945 45.6832 130.078 46.6968 129.97 47.7277 129.63 48.6914z" fill="#9c2415"/><path d="M113.803 25.0802C113.62 25.2401 113.482 25.4456 113.403 25.6761 113.387 26.0838 113.054 26.2511 112.805 26.4837 112.362 26.7645 111.844 26.9014 111.321 26.8757 110.886 26.8757 110.801 26.7085 111.024 26.3295 111.204 26.0237 111.422 25.7415 111.604 25.4357 111.922 24.9388 112.052 24.3429 111.968 23.7578 111.853 23.0233 111.375 22.6836 110.668 22.9083 109.608 23.2455 108.771 23.8492 108.482 25.0175 108.337 25.6055 108.194 26.1936 108.038 26.779 107.94 27.2093 107.734 27.6071 107.44 27.9342 107.313 28.0786 107.147 28.1822 106.962 28.2319 106.777 28.2817 106.581 28.2754 106.4 28.2139 106.031 28.1015 105.914 27.78 105.88 27.4298 105.846 27.0796 105.797 26.8104 105.755 26.4994 105.584 25.2606 104.846 24.4294 103.861 23.7604 103.616 23.5957 103.27 23.499 103.263 23.1017 104.362 22.9397 105.467 22.8038 106.564 22.6104 109.943 22.0171 113.202 21.0632 116.205 19.3408 115.877 21.2064 115.161 22.9815 114.104 24.5497 114.008 24.7222 113.907 24.9025 113.803 25.0802z" fill="#62461e"/><path d="M100.965 191.396C105.327 193.001 109.41 192.253 113.299 189.914 113.819 189.608 114.079 189.054 114.388 188.563 115 187.592 115.506 186.558 115.898 185.479 116.769 183.126 117.564 180.774 118.757 178.55L119.553 178.414C119.891 179.841 119.516 181.148 118.851 182.389 118.538 182.958 118.191 183.506 117.811 184.031 116.86 185.348 116.117 186.804 115.607 188.348 114.827 190.779 112.875 192.034 110.577 192.82 108.004 193.701 105.34 193.665 102.681 193.563 101.42 193.513 100.791 192.614 100.965 191.396z" fill="#536087"/><path d="M8.1021 54.9458C8.24767 55.0216 8.23206 55.1471 8.19307 55.2699 7.62469 57.0943 7.05284 58.9195 6.47753 60.7457 4.56269 61.8521 2.64439 62.9543.72262 64.052.499078 64.1801.301522 64.4049.0 64.3526L8.1021 54.9458z" fill="#8e623e"/><path d="M70.605 86.9419C72.8161 85.644 75.0281 84.3478 77.241 83.0533 77.9714 82.6274 78.7174 82.2249 79.4556 81.812 79.2528 82.8808 78.5978 83.6152 77.7192 84.1849 76.2428 84.5716 74.899 85.2746 73.5318 85.9253 72.5968 86.3725 71.6151 86.7134 70.605 86.9419z" fill="#f9d3c2"/><path d="M32.5848 23.611C37.1319 20.9694 41.6763 18.3253 46.2182 15.6785 46.3406 15.6043 46.4829 15.5703 46.6254 15.5811 46.7679 15.5918 46.9036 15.6469 47.0136 15.7386L73.2666 30.9736C75.7464 32.4111 78.2339 33.8486 80.7033 35.2966 81.0828 35.5187 81.2231 35.4638 81.4519 35.1084 83.0686 32.581 84.6412 30.0118 86.6193 27.7457 88.3114 25.8038 90.3883 24.4264 92.9382 23.8619 92.9524 23.965 92.9414 24.0702 92.906 24.1681 92.8707 24.266 92.8122 24.3538 92.7355 24.4238 91.5837 25.8475 90.9062 27.5994 90.799 29.4315 90.6248 31.1121 89.9542 32.6594 89.5253 34.272 89.1978 35.503 88.9249 36.7419 89.0912 38.0383 89.151 38.4983 88.9846 38.9478 88.8807 39.3948 88.5376 40.8584 88.1217 42.3038 87.7422 43.7596 87.2444 45.5542 87.0494 47.4201 87.1651 49.2796 86.8246 49.6952 86.3151 49.8912 85.9149 50.2388 84.8309 51.1693 83.76 52.1128 82.7151 53.0877 82.6299 53.1792 82.5224 53.2468 82.4032 53.2837 82.1844 53.2822 81.9702 53.2202 81.7841 53.1045 81.5979 52.9888 81.447 52.8238 81.3479 52.6277 81.2778 52.2486 81.2568 51.8621 81.2855 51.4777V36.9981C81.2855 36.1355 81.2855 36.1251 80.5395 36.5537 76.4378 38.9374 72.3335 41.3167 68.2266 43.6916 68.0398 43.8256 67.8301 43.924 67.6079 43.9817 67.5096 43.9905 67.4106 43.9752 67.3194 43.9373 65.1828 42.7768 63.1033 41.5144 60.9953 40.3017 54.497 36.5694 48.0533 32.7875 41.5732 29.0473 38.6897 27.3868 35.8158 25.7141 32.9513 24.0291 32.7954 23.935 32.5328 23.9063 32.5848 23.611z" fill="#bd1818"/><path d="M11.7206 35.7466 18.9987 31.476 26.1962 27.2759C27.4048 27.7986 28.4861 28.5409 29.6194 29.1917 35.8578 32.788 42.0875 36.3965 48.3085 40.0173 52.3599 42.3643 56.4097 44.7166 60.4576 47.0741 60.6968 47.2152 61.0035 47.3197 61.0243 47.6804 60.7436 48.1639 60.2263 48.3338 59.7844 48.5874 55.6489 50.9736 51.5238 53.3807 47.3909 55.7722 47.1758 55.9368 46.9273 56.0519 46.6631 56.1094 46.3688 56.111 46.0815 56.0195 45.8417 55.848 41.753 53.4487 37.6461 51.0834 33.5444 48.705 27.9507 45.4606 22.357 42.2171 16.7633 38.9745 15.2037 38.0675 13.6259 37.1737 12.0845 36.2406 11.8948 36.1282 11.6296 36.0603 11.7206 35.7466z" fill="#e6161a"/><path d="M11.7206 35.7467C12.2093 36.2694 12.8825 36.5307 13.4803 36.881 18.2449 39.6592 23.0302 42.4009 27.8025 45.1687 31.9614 47.5802 36.1203 50.0021 40.2792 52.4345 42.1611 53.5287 44.0447 54.6203 45.9301 55.7093 46.1479 55.8737 46.4116 55.9651 46.6839 55.9707 46.7113 56.0862 46.7032 56.2075 46.6605 56.3183 46.5995 56.5828 46.5811 56.8555 46.6059 57.1259 46.6059 61.2554 46.6059 65.3857 46.6059 69.5169 46.6144 69.6942 46.5897 69.8715 46.5331 70.0397 46.2082 70.4108 45.9119 70.1076 45.6546 69.9639 44.4927 69.3105 43.3438 68.6414 42.1923 67.9749L25.944 58.566C21.3172 55.8844 16.6922 53.2046 12.0689 50.5266 11.7882 50.3645 11.5308 50.192 11.549 49.8104 11.549 45.3569 11.549 40.9033 11.549 36.4497 11.5054 36.2234 11.5279 35.9891 11.614 35.7754 11.6288 35.7635 11.646 35.7548 11.6643 35.7499 11.6826 35.7449 11.7018 35.7438 11.7206 35.7467z" fill="#ca141d"/><path d="M32.585 23.6118C35.1271 25.099 37.664 26.5966 40.2113 28.0759 49.2656 33.3432 58.3207 38.5975 67.3767 43.8386 67.4911 44.053 67.3248 44.1497 67.1896 44.2281 65.4689 45.2239 63.7715 46.2536 62.0274 47.2076 61.9528 47.2432 61.8729 47.2662 61.7908 47.2756 61.7287 47.2787 61.6665 47.2725 61.6063 47.2573 59.0226 45.8276 56.4882 44.3117 53.9331 42.835 47.719 39.2491 41.5119 35.6563 35.3116 32.0564 32.8267 30.6216 30.3366 29.1815 27.8724 27.7231 27.4435 27.4617 26.9834 27.2761 26.5728 26.9965 28.4547 25.9022 30.3487 24.8106 32.2548 23.7216 32.3514 23.6525 32.4665 23.6142 32.585 23.6118z" fill="#fbe8e7"/><path d="M103.278 23.1019C103.51 23.2797 103.725 23.4731 103.972 23.6247 105.321 24.4636 105.963 25.6972 106.052 27.2654 106.07 27.6025 106.013 28.0285 106.496 28.1174 106.703 28.1586 106.917 28.1295 107.105 28.0349 107.293 27.9403 107.445 27.7854 107.536 27.5947 107.918 26.9517 108.056 26.2304 108.175 25.5038 108.381 24.3878 108.914 23.5227 109.94 23 110.507 22.7125 111.118 22.4093 111.692 22.8563 112.267 23.3032 112.259 24.0271 112.087 24.7014 111.895 25.4463 111.398 26.0239 110.925 26.6982 111.566 26.7743 112.214 26.6473 112.779 26.3349 113.215 26.5153 112.961 26.8106 112.862 27.0354 112.002 29.0295 110.504 29.9103 108.272 29.7613 107.507 29.7117 107.492 29.7065 107.297 30.433 107.091 31.2171 106.561 31.7241 105.948 32.1658 104.523 33.193 102.855 33.6451 101.209 34.1469 101.068 34.1775 100.929 34.2186 100.793 34.2698 99.5665 34.6304 98.3812 35.161 97.0529 35.0538 96.2419 34.9911 95.995 34.8604 95.7689 34.0581 95.5427 33.2557 95.3322 32.4272 94.6044 31.847 94.2223 31.5412 94.4744 30.9662 94.3133 30.5402 94.2717 30.273 94.1348 30.0301 93.9281 29.857 93.7215 29.6838 93.4593 29.5922 93.1904 29.5993 92.2338 29.5314 91.8413 28.8152 92.1506 27.8874 92.4036 27.2232 92.7132 26.5822 93.076 25.9717 93.2326 25.7254 93.3282 25.4451 93.3549 25.154 93.3816 24.863 93.3385 24.5698 93.2293 24.299 93.1805 24.206 93.1514 24.1039 93.1438 23.9991 93.1362 23.8943 93.1503 23.7891 93.1852 23.69 93.2408 23.188 93.1505 22.6805 92.9252 22.229 96.3381 23.0784 99.7952 23.264 103.278 23.1019z" fill="#f9d3c2"/><path d="M99.4288 1.38232C99.2208 1.95211 98.6931 2.27359 98.3682 2.75712 98.0888 3.14454 97.9345 3.60897 97.9263 4.0875 97.8614 7.86428 99.3326 10.9929 102.005 13.5412 103.549 15.018 105.47 15.8543 107.593 16.2072 108.797 16.3962 110.014 16.4793 111.232 16.4555 111.406 16.4555 111.775 16.3039 111.648 16.7404 111.565 17.02 111.724 17.5062 111.087 17.3807 110.146 17.1925 109.267 17.3546 108.571 18.0969 108.277 18.4053 107.884 18.4419 107.481 18.4576 105.259 18.5412 103.133 18.0106 101.007 17.467 98.5953 16.8873 96.3772 15.6824 94.5732 13.9725 93.7618 13.1954 93.0807 12.2917 92.5562 11.2961 93.128 8.78953 94.0248 6.42936 95.6753 4.41682 96.6798 3.13058 97.9637 2.09258 99.4288 1.38232z" fill="#e6161a"/><path d="M11.6035 35.7778 11.6191 50.0743C11.7694 50.4228 11.825 50.8052 11.7803 51.1824 11.7673 51.5117 11.7803 51.8437 11.7803 52.1756 11.7803 52.5075 11.7803 52.8159 11.7803 53.1348 11.785 53.3008 11.7603 53.4662 11.7075 53.6235 11.4736 54.0051 10.9849 54.0626 10.6886 54.4076 10.9485 54.7239 11.341 54.8258 11.6685 55.0218 14.8293 56.8653 17.9944 58.7018 21.1638 60.5313 25.3903 62.9846 29.6168 65.437 33.8432 67.8886 37.9086 70.2409 41.9843 72.5931 46.0366 74.9636 46.1083 75.0239 46.1912 75.0692 46.2804 75.097 46.3696 75.1248 46.4635 75.1346 46.5565 75.1257 48.7711 73.8973 50.9493 72.6036 53.1431 71.3333 55.8204 69.7843 58.496 68.2301 61.1698 66.6707 61.3465 66.5583 61.5311 66.4537 61.7157 66.357 63.6651 65.2358 65.5886 64.0754 67.5589 62.9933 69.3316 61.9008 71.1485 60.9024 72.9447 59.8439 75.544 58.3254 78.1667 56.8252 80.7634 55.2963 80.9609 55.1786 81.1637 55.0715 81.369 54.9696 81.6864 54.8091 81.9936 54.6293 82.2892 54.4311 82.0293 54.1044 81.5796 54.0391 81.3846 53.6837 81.3586 53.6244 81.3403 53.562 81.33 53.4981 81.33 53.2367 81.252 52.9571 81.4964 52.7506 81.8239 52.8708 82.0708 53.1714 82.4451 53.1897 83.1028 53.3988 83.646 53.8222 84.2413 54.1489 84.3295 54.1834 84.4025 54.2484 84.4473 54.3323 84.4921 54.4161 84.5056 54.5133 84.4856 54.6063 82.4061 55.866 80.2851 57.063 78.1823 58.2862 73.9887 60.7256 69.7943 63.1589 65.599 65.586 60.2133 68.7014 54.8292 71.8212 49.4469 74.9454 48.7633 75.34 48.0901 75.7556 47.3987 76.1398 47.1387 76.2861 46.8788 76.5187 46.5409 76.4194 45.6181 76.1398 44.8617 75.5413 44.0403 75.0734 41.3813 73.5575 38.7533 72.0181 36.1125 70.4761 33.3399 68.8748 30.575 67.2718 27.818 65.667 25.5203 64.3306 23.2242 62.9951 20.9299 61.6604 16.7848 59.2559 12.6363 56.854 8.48438 54.4547 9.26417 54.0051 9.99458 53.5059 10.7926 53.1191 11.3514 52.8578 11.497 52.4892 11.4944 51.896 11.471 46.7576 11.4788 41.6192 11.4944 36.4757 11.4866 36.2535 11.3878 35.9765 11.6035 35.7778z" fill="#efc59c"/><path d="M26.5673 26.9857C26.6785 26.9615 26.7938 26.9633 26.9042 26.9909 27.0146 27.0185 27.1172 27.0713 27.2042 27.1451L61.4136 46.9851C61.4987 47.0418 61.5795 47.1047 61.6553 47.1733 61.6943 47.4973 61.3954 47.547 61.2239 47.696 61.1746 47.72 61.1198 47.7299 61.0653 47.7247L61.0055 47.6698C60.0178 46.8675 58.8663 46.3343 57.7798 45.6939 55.1805 44.1598 52.5474 42.6517 49.9273 41.1358 47.38 39.6582 44.8327 38.1815 42.2853 36.7057L29.4838 29.27C28.5497 28.7298 27.6123 28.1958 26.6713 27.6678 26.4843 27.5776 26.322 27.4431 26.1982 27.2758L26.5673 26.9857z" fill="#ca141d"/><path d="M93.1931 23.7056C93.674 24.6544 93.6896 25.551 93.0397 26.4606 92.7497 26.9183 92.5141 27.4088 92.3379 27.9218 91.987 28.7844 92.3379 29.4901 93.2373 29.4509 94.0821 29.4196 94.3004 29.8483 94.4408 30.4965 94.378 30.5516 94.301 30.5877 94.2187 30.6006 94.1363 30.6136 94.052 30.6028 93.9755 30.5697 93.0163 30.3083 92.052 30.0469 91.1162 29.7045 90.9421 29.6391 90.7627 29.5738 90.6899 29.3725 90.6899 27.5062 91.4464 25.9274 92.5095 24.4636 92.6551 24.2649 92.798 24.0611 92.9436 23.8598L93.1931 23.7056z" fill="#cc5617"/><path d="M117.525 61.8643C117.193 63.4508 116.686 64.9876 116.241 66.5427 115.267 69.9562 114.274 73.3644 113.26 76.7674 112.563 79.1197 111.825 81.4538 111.105 83.7982 110.992 84.0448 110.926 84.311 110.913 84.5823 110.913 84.8881 110.653 84.9064 110.45 85.0005 109.842 85.3037 109.218 85.5729 108.597 85.8395 108.053 86.0695 107.578 86.3335 107.396 86.9425L105.836 87.0967C105.731 86.958 105.587 86.8531 105.423 86.7947 105.26 86.7362 105.083 86.7267 104.914 86.7674 102.703 87.0239 100.465 86.8626 98.3139 86.2917 95.4886 85.5837 92.8041 84.3966 90.3755 82.7815 90.0719 82.5217 89.6963 82.362 89.2994 82.3241L87.9998 81.54C87.9166 81.114 87.4149 80.9519 87.3447 80.5154 87.745 80.0319 88.3481 79.8568 88.8654 79.5667 90.898 78.4376 92.954 77.3503 95.0127 76.2734 97.9005 74.7627 100.791 73.2547 103.46 71.3754 104.932 70.33 106.32 69.1956 107.879 68.2782 109.774 67.1648 111.742 66.1873 113.598 64.9902 114.806 64.1907 115.952 63.2985 117.024 62.3217L117.525 61.8643z" fill="#bd1818"/><path d="M89.2944 82.3214C89.4582 81.9895 89.6453 82.1071 89.8819 82.2613 91.4648 83.3067 93.0582 84.3286 94.8362 84.9846 97.3315 85.9072 99.8606 86.7252 102.561 86.7461 103.431 86.7765 104.302 86.7178 105.161 86.571 105.634 86.4743 105.857 86.5945 105.826 87.0937 105.849 88.0059 106.065 88.9023 105.943 89.8301 105.881 90.3189 105.699 90.5175 105.231 90.5619 103.56 90.7165 101.88 90.7497 100.204 90.6612 98.0953 90.558 95.9982 90.2888 93.9316 89.8563 91.8054 89.297 89.7363 88.5913 87.8232 87.4675 87.4021 87.2192 87.3034 86.997 87.4541 86.5397 87.9256 85.0752 88.5421 83.662 89.2944 82.3214z" fill="#fff"/><path d="M107.395 86.9423C107.302 86.3882 107.531 86.1112 108.063 85.8969 109.036 85.5154 109.964 85.0241 110.923 84.5772L114.975 82.8105 115.04 83.3489C115.04 84.4334 115.019 85.518 115.024 86.5999 115.045 86.7325 115.026 86.8683 114.97 86.9902 114.914 87.112 114.824 87.2145 114.71 87.2846 112.466 88.6798 109.994 89.6637 107.408 90.1907 107.336 90.1927 107.264 90.183 107.195 90.1619 107.432 89.1062 107.5 88.0193 107.395 86.9423z" fill="#fff"/><path d="M99.164 124.113C99.2082 125.7 99.4473 127.265 99.5773 128.844 99.6111 128.969 99.5591 129.006 99.4395 128.972 98.8312 127.161 98.2464 125.344 98.002 123.436 97.9767 122.918 97.9959 122.399 98.0592 121.884 98.0705 120.784 98.1573 119.686 98.3192 118.598 98.4387 118.337 98.5583 118.076 98.7429 117.676 98.8079 118.805 98.8598 119.785 98.9248 120.762 99.0106 121.878 98.9924 123.01 99.164 124.113z" fill="#fdfdfd"/><path d="M87.3292 80.5073C87.4913 80.669 87.6651 80.8184 87.8491 80.9543 87.8992 80.9798 87.9433 81.016 87.9782 81.0603 88.013 81.1047 88.0379 81.1561 88.051 81.2111 88.0641 81.2661 88.0651 81.3232 88.0541 81.3787 88.043 81.4341 88.0201 81.4864 87.9868 81.532 87.2355 83.1106 86.7162 84.7907 86.4455 86.5195 84.9795 85.4138 83.7994 84.1878 83.0664 82.5645 84.4522 81.8074 85.8749 81.1208 87.3292 80.5073z" fill="#fff"/><path d="M99.4395 128.972 99.5773 128.844C99.6335 128.926 99.6699 129.02 99.6834 129.118 99.697 129.217 99.6873 129.317 99.6553 129.411 99.5873 129.361 99.5323 129.294 99.4948 129.218 99.4573 129.141 99.4384 129.057 99.4395 128.972z" fill="#aeb4c7"/><path d="M46.533 76.4173C49.5014 74.7045 52.4689 72.9926 55.4356 71.2816 59.4074 68.9851 63.3774 66.6842 67.3457 64.379L79.0426 57.5836 84.054 54.6772C84.1766 54.5969 84.3212 54.5575 84.4673 54.5648 84.7272 54.6249 84.852 54.8549 85.0002 55.0483 85.6396 55.8795 86.2349 56.7472 86.9133 57.5496 88.5664 59.813 90.269 62.0372 91.9325 64.2953 92.0885 64.5097 92.2964 64.6978 92.3172 64.9906 93.097 66.036 93.8534 67.1128 94.6566 68.1426 94.9789 68.5582 95.0049 68.7542 94.4954 69.0443 91.1163 70.9784 87.7372 72.9491 84.3581 74.9067 80.3725 77.2154 76.3921 79.5223 72.4169 81.8275 67.6099 84.6154 62.8064 87.4033 58.0063 90.1911 57.1252 90.7139 57.1252 90.7139 56.387 89.9481 56.0932 89.8331 55.9737 89.5508 55.8021 89.3234 54.6636 87.818 53.5563 86.289 52.397 84.7992 52.4262 84.7456 52.4391 84.6846 52.434 84.6237 52.4289 84.5628 52.4061 84.5048 52.3684 84.4568 50.4449 81.906 48.5249 79.3524 46.6083 76.7963 46.5486 76.7385 46.4813 76.6893 46.4082 76.65 46.4524 76.5872 46.4914 76.501 46.533 76.4173z" fill="#b07e57"/><path d="M92.3122 65.001C90.8592 63.0773 89.3958 61.1589 87.9557 59.2248 87.5581 58.7021 87.0928 58.2108 86.8172 57.5939 86.5365 57.1392 86.7159 56.6556 86.7626 56.193 86.9498 54.2642 86.8536 52.3327 86.8848 50.4038 86.8848 50.0771 86.8198 49.7321 87.0746 49.4525 86.7705 47.9758 87.0044 46.5121 87.2721 45.0694 87.6828 42.8687 88.4626 40.7543 88.8785 38.551 88.9237 38.4136 88.9457 38.2696 88.9435 38.125 88.6679 36.3608 89.1748 34.7142 89.7077 33.0807 90.101 31.8639 90.429 30.6267 90.6902 29.3745 91.916 29.8272 93.1687 30.2026 94.441 30.4984 94.5141 31.2755 94.8662 31.9993 95.4314 32.5344 95.8187 32.9264 95.816 33.5799 95.9304 34.1209 96.0448 34.6619 96.3697 34.8631 96.8818 34.905 97.7319 34.9587 98.584 34.8359 99.3849 34.5443 99.8554 34.3875 100.336 34.2646 100.815 34.1261 101.282 34.032 101.189 34.4058 101.207 34.6358 101.246 35.1716 101.207 35.7126 101.285 36.2484 101.38 37.1636 101.803 38.0127 102.475 38.6372 103.468 39.4004 104.586 39.4213 105.738 39.16 107.401 38.781 108.792 37.8976 110.089 36.8077 111.386 35.7178 112.472 34.3744 113.468 32.9839 113.577 32.8324 113.624 32.5736 113.907 32.6233 115.15 33.6687 116.117 34.9755 117.12 36.2353 118.734 38.2615 120.19 40.4092 121.476 42.6596 121.883 43.3366 122.071 44.1237 122.014 44.9126 119.415 43.9926 117.856 43.8959 115.875 45.8848 113.348 48.4201 110.312 50.2601 107.388 52.2517 107.294 52.2929 107.192 52.3159 107.089 52.3196 106.647 52.0321 106.51 51.5355 106.257 51.1095 104.381 47.9731 101.787 45.8822 98.1034 45.302 95.3897 44.8786 92.832 46.2429 91.8235 48.8304 90.4589 52.3327 91.1841 57.8161 95.0337 60.5055 95.5236 60.8213 96.0323 61.1067 96.5568 61.3602 96.7882 61.483 97.0767 61.5562 97.1807 61.8437 96.2683 62.9806 95.2026 63.898 93.8016 64.3606 93.2869 64.5358 92.8191 64.7867 92.3122 65.001z" fill="#bd1818"/><path d="M97.1858 61.8516C96.0447 61.3288 94.9374 60.7773 94.0225 59.8887 91.9222 57.8448 91.0983 55.2991 91.0697 52.4241 91.0461 51.4838 91.1501 50.5447 91.379 49.6327 92.2705 46.2951 95.2182 44.5204 98.683 45.2339 102.447 46.018 104.963 48.3703 106.741 51.6635 106.858 51.8831 106.972 52.1079 107.087 52.3274 107.032 52.6227 106.751 52.6829 106.567 52.8109 104.029 54.4302 101.703 56.3619 99.6422 58.561 99.0339 59.2222 98.6025 60.0089 98.0618 60.7199 97.7733 61.1014 97.477 61.4752 97.1858 61.8516z" fill="#bd1818"/><path d="M52.3995 84.8205C52.4623 84.8186 52.5247 84.8315 52.5816 84.8583 52.6385 84.8851 52.6883 84.925 52.727 84.9747 53.9331 86.6499 55.2509 88.2415 56.3894 89.9689 55.3497 90.7216 54.1722 91.2574 53.0857 91.9368 52.6984 92.1799 52.6386 91.9734 52.6412 91.6232 52.6542 90.7268 52.6412 89.8304 52.6412 88.934 52.6412 88.4793 52.5061 88.427 52.1422 88.6387 51.2335 89.19 50.2936 89.6874 49.3271 90.1284L52.3995 84.8205z" fill="#ac835b"/><path d="M60.0079 90.5801C60.1456 91.1029 59.7973 91.3642 59.3086 91.6439 56.4078 93.2984 53.5278 94.9895 50.6373 96.6649 50.5726 96.7176 50.4985 96.7576 50.419 96.7826 50.1071 96.8218 49.8601 97.3759 49.556 97.0439 49.2519 96.712 49.582 95.6796 49.9225 95.4757 53.0417 93.6705 56.1695 91.8678 59.306 90.0678 59.9949 89.6758 60.0079 89.6967 60.0079 90.5801z" fill="#ac835b"/><path d="M102.415 38.7832C101.446 37.9991 101.134 36.9067 101.056 35.7201 101.03 35.3255 101.056 34.9361 101.056 34.5336 101.056 34.3376 101.074 34.1494 100.796 34.1233 101.885 33.807 102.953 33.4333 104.014 33.0308 104.732 32.7604 105.407 32.3863 106.018 31.92 106.587 31.4836 107.058 30.9687 107.162 30.2029 107.229 29.6802 107.422 29.445 108.069 29.5705 109.14 29.7805 110.25 29.587 111.188 29.0268 112.054 28.4884 112.537 27.4822 112.867 26.4786 112.867 26.4499 112.794 26.3924 112.755 26.348L113.382 25.6763C113.803 26.1728 114.421 26.4264 114.882 26.8576 114.905 26.9165 114.909 26.9812 114.893 27.0426 114.878 27.104 114.844 27.1591 114.796 27.2 113.413 28.6897 112.703 30.5976 111.677 32.3042 111.354 32.8162 111.063 33.3478 110.806 33.8959 110.411 34.7845 109.704 35.3385 108.872 35.7619 106.946 36.7394 105.017 37.7169 103.055 38.6238 102.857 38.7263 102.638 38.7809 102.415 38.7832z" fill="#c08d76"/><path d="M102.416 38.7833C104.446 37.7875 106.468 36.7735 108.508 35.7986 109.561 35.3022 110.416 34.4609 110.931 33.4124 111.939 31.4992 112.904 29.5521 114.146 27.7696 114.372 27.4455 114.65 27.1606 114.903 26.8574 115.638 27.3122 115.698 28.0257 115.589 28.7732 115.412 29.9702 114.825 31.0026 114.24 32.035 114.128 32.231 114.021 32.4323 113.912 32.6309 112.485 34.7505 110.85 36.6741 108.672 38.0567 107.229 38.9715 105.693 39.6092 103.934 39.4132 103.374 39.3701 102.842 39.1495 102.416 38.7833z" fill="#c08d76"/><path d="M67.4965 43.9273C71.9847 41.3138 76.4728 38.7002 80.961 36.0867 81.3899 35.8253 81.4808 35.9429 81.4808 36.3977 81.467 41.4122 81.4609 46.4277 81.4627 51.444 80.6387 52.0843 79.7055 52.5469 78.8087 53.0644 75.3083 55.089 71.814 57.1171 68.3257 59.1487 68.1683 59.2505 67.9989 59.3322 67.8214 59.3918 67.7738 59.4157 67.7211 59.4277 67.6679 59.4267 67.6146 59.4257 67.5624 59.4118 67.5157 59.3861 67.4689 59.3604 67.4291 59.3238 67.3995 59.2792 67.3699 59.2347 67.3515 59.1837 67.3458 59.1304 67.2968 58.9057 67.2776 58.6755 67.2886 58.4457 67.2886 53.9155 67.2886 49.3923 67.2886 44.8761 67.2495 44.5453 67.3228 44.211 67.4965 43.9273z" fill="#911d22"/><path d="M67.4961 43.9267C67.4961 48.2828 67.4891 52.631 67.4753 56.9713 67.4753 57.7554 67.4909 58.5578 67.4987 59.3524 67.8522 60.0215 67.626 60.7402 67.6728 61.4433 67.7105 62.0122 67.687 62.5835 67.6026 63.1473L61.7646 66.5059C61.528 66.2785 61.5514 65.9831 61.5514 65.6852 61.5514 59.7993 61.5514 53.9143 61.5514 48.0301 61.5302 47.7366 61.604 47.4441 61.762 47.1964 63.5503 46.1666 65.3395 45.1368 67.1296 44.1071 67.2467 44.0573 67.34 43.9635 67.3895 43.8457L67.4961 43.9267z" fill="#b5aaaa"/><path d="M67.499 61.4856V59.3529C68.6167 58.9008 69.6071 58.2082 70.6494 57.6123 72.9888 56.2689 75.3281 54.9099 77.6493 53.5587 78.5643 53.036 79.4689 52.4976 80.3916 51.9592 80.7173 51.7368 81.075 51.5658 81.4521 51.4521 81.4521 51.8834 81.4755 52.3146 81.4885 52.7589 81.4729 53.036 81.4599 53.3156 81.4443 53.5926 79.9003 54.6172 78.2654 55.4796 76.6694 56.4127 74.0302 57.9547 71.3867 59.4862 68.7389 61.0073 68.3542 61.219 68.0007 61.5561 67.499 61.4856z" fill="#8a1b20"/><path d="M46.5353 56.1013 46.6601 55.981C48.2821 55.0558 49.9118 54.1515 51.526 53.2028 54.6885 51.3715 57.8484 49.5306 61.0057 47.6802V47.7115C61.2656 47.9938 61.1798 48.344 61.1824 48.6681 61.1824 53.3239 61.1824 57.977 61.1824 62.6275 61.1972 62.8854 61.1754 63.1442 61.1175 63.3959 60.478 63.9186 59.719 64.2584 59.0068 64.6687 55.269 66.825 51.5442 69.0073 47.809 71.1636 47.5254 71.3366 47.2301 71.4895 46.9252 71.621 46.7355 71.6994 46.5223 71.7935 46.4054 71.5007 46.2338 70.8552 46.4886 70.2253 46.4704 69.5849 46.4704 65.3143 46.4704 61.0454 46.4704 56.7782 46.4288 56.5509 46.4513 56.3164 46.5353 56.1013z" fill="#911d22"/><path d="M19.0919 34.8657C18.9983 34.377 19.2583 34.0659 19.6378 33.8412 20.7477 33.1878 21.8498 32.5187 22.9831 31.9097 23.3852 31.6821 23.8403 31.5663 24.3017 31.5741 24.7631 31.5819 25.2141 31.7131 25.6084 31.9541 28.4191 33.5659 31.222 35.1915 34.0171 36.8311 34.4668 37.0925 34.8697 37.4035 34.5838 38.0308 34.5838 38.3366 34.3238 38.4516 34.1315 38.5797 33.058 39.254 31.9585 39.8865 30.846 40.4928 30.4155 40.7351 29.9283 40.857 29.4351 40.846 28.9419 40.835 28.4607 40.6914 28.0413 40.4301 25.3328 38.8828 22.6348 37.3147 19.9471 35.7256 19.5884 35.5243 19.2349 35.297 19.0919 34.8657z" fill="#fbe8e7"/><path d="M19.092 34.8662C19.3696 35.1758 19.6996 35.4334 20.0668 35.6268 22.6323 37.1115 25.2134 38.5778 27.7582 40.0991 28.9564 40.8153 30.0975 40.8466 31.2568 40.0991 32.3511 39.3907 33.5728 38.8889 34.584 38.042 34.8439 38.4184 34.5684 38.6536 34.324 38.8261 33.1015 39.6511 31.819 40.3824 30.4874 41.0139 29.5153 41.4504 28.5847 41.1368 27.7036 40.6218 25.054 39.071 22.4018 37.5253 19.7471 35.9849 19.3182 35.7157 18.9985 35.4177 19.092 34.8662z" fill="#cb141d"/><path d="M11.6216 51.2038C11.6216 50.8274 11.6216 50.4511 11.6216 50.0747 13.1812 50.9843 14.7408 51.9043 16.3003 52.806 18.6137 54.1494 20.9289 55.4875 23.2457 56.8205l6.9922 4.0563L37.1234 64.8731C39.4368 66.2139 41.7424 67.5651 44.0662 68.8876 44.846 69.3267 45.553 69.8782 46.4186 70.1422 46.5433 70.4741 46.4498 70.8165 46.4783 71.1536 46.2808 71.5614 46.0131 71.2895 45.8077 71.1876 45.1007 70.8374 44.4275 70.4192 43.7439 70.0219 36.0499 65.5457 28.349 61.079 20.6412 56.6218 17.8547 55.0014 15.0657 53.3836 12.274 51.7683 12.0115 51.6246 11.736 51.5018 11.6216 51.2038z" fill="#c2161e"/><path d="M46.5354 56.1011C46.5354 60.6175 46.5354 65.1331 46.5354 69.6478 46.4964 69.7079 46.4574 69.7079 46.4158 69.6478 46.4158 65.3683 46.4158 61.0888 46.4158 56.8094 46.4106 56.5637 46.3119 56.2945 46.5354 56.1011z" fill="#c2161e"/><path d="M46.4056 69.6401H46.5251V71.6511C46.5914 71.7175 46.6304 71.8067 46.6342 71.9007 46.6381 71.9947 46.6065 72.0868 46.5459 72.1585 46.5134 72.1772 46.4753 72.1835 46.4386 72.1763 46.4019 72.1691 46.3689 72.1488 46.3458 72.1192 46.2646 71.991 46.2259 71.8402 46.2353 71.6884 46.2446 71.5366 46.3015 71.3917 46.3978 71.2746V69.6401H46.4056z" fill="#b6191f"/><path d="M61.7596 47.189C61.7596 53.6255 61.7596 60.0619 61.7596 66.4984L61.2528 66.7598C60.7902 66.5951 60.9383 66.1848 60.9331 65.8711 60.9209 64.8241 60.9642 63.7772 61.0631 62.7348 61.0631 57.9432 61.0631 53.1515 61.0631 48.3599 61.0318 48.1326 61.0477 47.9012 61.1099 47.6803L61.6479 47.1811C61.6852 47.1747 61.7236 47.1774 61.7596 47.189z" fill="#6c1217"/><path d="M11.5617 53.6759 11.6033 53.2054C11.884 53.0251 12.0764 53.2577 12.2765 53.3727 15.1357 55.0245 17.995 56.6921 20.8542 58.3387 25.9489 61.2817 31.0305 64.2508 36.1278 67.1912 39.4237 69.0913 42.7092 71.0098 46.0051 72.9125 46.1717 72.9979 46.3222 73.1121 46.4496 73.2497 46.5201 73.3783 46.5551 73.5236 46.551 73.6705 46.5744 74.3553 46.3248 74.5252 45.7348 74.1932 44.0894 73.2575 42.4519 72.3061 40.8143 71.3574 35.2518 68.1338 29.6901 64.9103 24.1294 61.6868 20.2564 59.4495 16.3895 57.2008 12.5286 54.9409 12.1751 54.7344 11.7488 54.6455 11.4889 54.2692 11.4524 54.1717 11.4399 54.0668 11.4526 53.9635 11.4652 53.8601 11.5027 53.7614 11.5617 53.6759z" fill="#b01a20"/><path d="M46.4058 71.2603V72.1384C46.4245 72.1622 46.4333 72.1924 46.4304 72.2226 46.4275 72.2528 46.4131 72.2807 46.3902 72.3004 46.0445 72.4181 45.7871 72.1959 45.5272 72.0391 41.429 69.6538 37.3255 67.2746 33.2169 64.9016 28.9366 62.424 24.6512 59.9472 20.3606 57.4713L12.1 52.6781C11.889 52.584 11.7185 52.4172 11.6191 52.2077V51.2041C15.558 53.4988 19.4977 55.7943 23.4382 58.0907 27.9195 60.6912 32.4137 63.2707 36.8975 65.8686 39.7567 67.5308 42.616 69.2087 45.496 70.8709 45.771 71.0593 46.0801 71.1916 46.4058 71.2603z" fill="#bc181f"/><path d="M46.4055 72.2748V72.1493H46.5276C46.8656 72.6171 46.6784 73.1503 46.7122 73.6574 46.6836 74.2062 46.8656 74.7786 46.5328 75.2935 46.3223 75.4111 46.1897 75.2334 46.0442 75.1497 34.6332 68.5286 23.2239 61.9136 11.8164 55.3046 11.7252 55.2495 11.6383 55.1874 11.5565 55.119 11.4681 55.0061 11.4224 54.8653 11.4277 54.7217 11.4329 54.5781 11.4887 54.4411 11.5851 54.335 12.8041 54.7767 13.8413 55.5555 14.9642 56.1854 17.6155 57.683 20.2408 59.2303 22.8765 60.7592L29.7569 64.758C32.0668 66.0979 34.3802 67.437 36.697 68.7751L43.58 72.7661C44.3338 73.2026 45.1058 73.6103 45.8388 74.0729 46.2807 74.3578 46.4289 74.2872 46.4003 73.775 46.4003 73.6077 46.4003 73.4404 46.4003 73.2732 46.2856 73.1321 46.2235 72.9552 46.2244 72.773 46.2254 72.5908 46.2894 72.4147 46.4055 72.2748z" fill="#a91b20"/><path d="M46.4058 72.2747V73.2783C44.8748 72.5387 43.4555 71.6004 41.9869 70.7614 39.6475 69.4545 37.3524 68.085 35.0364 66.7442L28.1482 62.7479C25.8504 61.4167 23.5543 60.0837 21.26 58.749 18.9206 57.3951 16.602 56.0334 14.2574 54.6978 13.3789 54.196 12.5445 53.6106 11.6113 53.2054L11.6269 52.207C15.5675 54.5018 19.508 56.7975 23.4486 59.094 27.7167 61.5665 31.9978 64.0155 36.2684 66.488 39.3538 68.2758 42.4236 70.0844 45.5064 71.8748 45.7774 72.0657 46.0829 72.2016 46.4058 72.2747z" fill="#b6191f"/><path d="M67.499 61.4856C70.1165 60.0873 72.643 58.5348 75.2137 57.0424 77.1372 55.9342 79.0503 54.8129 80.9712 53.6969 81.112 53.6064 81.2775 53.5626 81.4443 53.5714L81.4729 53.6943C81.5991 53.8993 81.6647 54.1363 81.6619 54.3774 81.6591 54.6185 81.5882 54.8539 81.4573 55.056L68.2008 62.7663C68.0032 62.8813 67.8109 63.0067 67.6185 63.127 67.3456 62.6016 67.5146 62.0371 67.499 61.4856z" fill="#83191e"/><path d="M46.5327 75.2935V73.6546C48.2977 72.596 50.0912 71.5819 51.8691 70.5468 54.6591 68.921 57.4507 67.304 60.2441 65.6956 60.4503 65.5993 60.6207 65.4394 60.7305 65.2392 60.8403 65.039 60.8839 64.8089 60.855 64.5821 60.8368 64.2188 60.7406 63.8241 61.0031 63.4922V62.7394C61.0447 62.6819 61.0837 62.6819 61.1253 62.7394 61.1253 63.8633 61.1253 64.9873 61.1253 66.1112 61.1253 66.3308 61.0447 66.5765 61.2527 66.7594 58.6326 68.2911 56.0133 69.8237 53.3949 71.3571 51.2392 72.6152 49.0809 73.8672 46.92 75.1131 46.8108 75.1811 46.6627 75.2333 46.5327 75.2935z" fill="#83191e"/><path d="M11.598 54.3345C11.598 54.5959 11.5798 54.8573 11.5694 55.1187 11.1378 54.936 10.7301 54.7007 10.3555 54.4181 10.728 54.1251 11.1327 53.8761 11.5616 53.6758 11.5746 53.8953 11.585 54.1149 11.598 54.3345z" fill="#916240"/><path d="M81.457 55.0562 81.4726 53.6943 82.6371 54.3975 81.457 55.0562z" fill="#916541"/><path d="M61.1251 62.7397H61.0029C61.0029 57.7269 61.0029 52.714 61.0029 47.7011L61.1199 47.6724 61.1251 62.7397z" fill="#8a1b20"/><path d="M61.0031 63.4929C61.328 64.9669 60.6262 65.7275 59.3629 66.4253 55.2976 68.6731 51.3051 71.0645 47.2865 73.3959 47.0697 73.5622 46.8054 73.6538 46.5327 73.6572 46.5327 73.1554 46.5327 72.6536 46.5327 72.1518 46.5327 71.9845 46.5327 71.8172 46.5327 71.65 49.1476 70.2647 51.669 68.7096 54.2319 67.2356 56.2784 66.0577 58.3215 64.8772 60.3611 63.6941 60.5479 63.5591 60.7731 63.4885 61.0031 63.4929z" fill="#8a1b20"/></svg>