<svg width="757" height="135" viewBox="0 0 757 135" fill="none" xmlns="http://www.w3.org/2000/svg">
<path d="M86.812 32.4V108H61.756V52.164H38.752V108H13.696V32.4H86.812ZM138.628 109.728C130.492 109.728 123.184 108.036 116.704 104.652C110.224 101.268 105.148 96.588 101.476 90.612C97.8044 84.564 95.9684 77.76 95.9684 70.2C95.9684 62.64 97.8044 55.872 101.476 49.896C105.148 43.848 110.224 39.132 116.704 35.748C123.184 32.364 130.492 30.672 138.628 30.672C146.764 30.672 154.072 32.364 160.552 35.748C167.032 39.132 172.108 43.848 175.78 49.896C179.452 55.872 181.288 62.64 181.288 70.2C181.288 77.76 179.452 84.564 175.78 90.612C172.108 96.588 167.032 101.268 160.552 104.652C154.072 108.036 146.764 109.728 138.628 109.728ZM138.628 89.1C141.796 89.1 144.64 88.344 147.16 86.832C149.752 85.248 151.804 83.052 153.316 80.244C154.828 77.364 155.584 74.016 155.584 70.2C155.584 66.384 154.828 63.072 153.316 60.264C151.804 57.384 149.752 55.188 147.16 53.676C144.64 52.092 141.796 51.3 138.628 51.3C135.46 51.3 132.58 52.092 129.988 53.676C127.468 55.188 125.452 57.384 123.94 60.264C122.428 63.072 121.672 66.384 121.672 70.2C121.672 74.016 122.428 77.364 123.94 80.244C125.452 83.052 127.468 85.248 129.988 86.832C132.58 88.344 135.46 89.1 138.628 89.1ZM243.274 69.12L265.63 108H236.902L222.43 80.676H215.302V108H189.814V32.4H215.302V60.588H223.078L239.17 32.4H265.738L243.274 69.12ZM305.482 31.536C316.858 31.536 325.714 34.164 332.05 39.42C338.386 44.676 341.554 52.128 341.554 61.776C341.554 70.992 338.71 78.156 333.022 83.268C327.406 88.38 319.414 90.936 309.046 90.936C304.366 90.936 299.686 90.252 295.006 88.884V108H269.95V64.584C269.95 53.856 272.938 45.684 278.914 40.068C284.89 34.38 293.746 31.536 305.482 31.536ZM304.726 72.9C312.214 72.9 315.958 69.372 315.958 62.316C315.958 58.932 315.094 56.34 313.366 54.54C311.638 52.668 309.19 51.732 306.022 51.732C302.566 51.732 299.866 52.848 297.922 55.08C295.978 57.312 295.006 60.408 295.006 64.368V70.848C297.886 72.216 301.126 72.9 304.726 72.9ZM387.01 54.324C397.234 54.324 405.082 56.664 410.554 61.344C416.098 65.952 418.87 72.612 418.87 81.324C418.87 90.54 415.702 97.632 409.366 102.6C403.03 107.496 393.922 109.944 382.042 109.944C370.378 109.944 361.666 107.496 355.906 102.6C350.146 97.704 347.266 90.324 347.266 80.46V32.4H372.322V56.592C374.914 55.8 377.326 55.224 379.558 54.864C381.862 54.504 384.346 54.324 387.01 54.324ZM450.622 32.4V108H425.566V32.4H450.622ZM383.338 91.044C386.506 91.044 388.954 90.252 390.682 88.668C392.41 87.084 393.274 84.816 393.274 81.864C393.274 75.744 389.53 72.684 382.042 72.684C378.442 72.684 375.202 73.26 372.322 74.412V79.812C372.322 83.412 373.258 86.184 375.13 88.128C377.074 90.072 379.81 91.044 383.338 91.044ZM569.564 32.4V108H464.048V32.4H489.104V88.236H504.332V32.4H529.388V88.236H544.508V32.4H569.564ZM635.723 69.12L658.079 108H629.351L614.879 80.676H607.751V108H582.263V32.4H607.751V60.588H615.527L631.619 32.4H658.187L635.723 69.12ZM699.983 30.672C707.327 30.672 713.807 32.148 719.423 35.1C725.039 37.98 729.395 42.228 732.491 47.844C735.659 53.388 737.243 60.012 737.243 67.716V108H711.755V92.772H687.779V108H662.723V67.716C662.723 60.012 664.271 53.388 667.367 47.844C670.535 42.228 674.927 37.98 680.543 35.1C686.159 32.148 692.639 30.672 699.983 30.672ZM711.755 73.548V65.556C711.755 60.876 710.639 57.348 708.407 54.972C706.247 52.524 703.367 51.3 699.767 51.3C696.167 51.3 693.251 52.524 691.019 54.972C688.859 57.348 687.779 60.876 687.779 65.556V73.548H711.755Z" fill="#87BEE7"/>
<path d="M82.029 29.3H83.029V28.3H82.029V29.3ZM82.029 107V108H83.029V107H82.029ZM56.277 107H55.277V108H56.277V107ZM56.277 49.613H57.277V48.613H56.277V49.613ZM32.634 49.613V48.613H31.634V49.613H32.634ZM32.634 107V108H33.634V107H32.634ZM6.882 107H5.882V108H6.882V107ZM6.882 29.3V28.3H5.882V29.3H6.882ZM81.029 29.3V107H83.029V29.3H81.029ZM82.029 106H56.277V108H82.029V106ZM57.277 107V49.613H55.277V107H57.277ZM56.277 48.613H32.634V50.613H56.277V48.613ZM31.634 49.613V107H33.634V49.613H31.634ZM32.634 106H6.882V108H32.634V106ZM7.882 107V29.3H5.882V107H7.882ZM6.882 30.3H82.029V28.3H6.882V30.3ZM112.752 103.559L113.215 102.673L112.752 103.559ZM97.1007 89.129L96.2459 89.648L96.2487 89.6525L97.1007 89.129ZM97.1007 47.282L97.9527 47.8055L97.9555 47.801L97.1007 47.282ZM157.818 32.741L158.281 31.8546L157.818 32.741ZM173.469 47.282L172.614 47.801L172.617 47.8055L173.469 47.282ZM173.469 89.129L174.321 89.6525L174.324 89.648L173.469 89.129ZM157.818 103.559L158.281 104.445L157.818 103.559ZM144.054 85.244L144.568 86.1015L144.575 86.0973L144.054 85.244ZM150.381 78.473L151.261 78.9471L151.266 78.9378L150.381 78.473ZM150.381 57.938L149.495 58.4029L149.5 58.4121L150.381 57.938ZM144.054 51.167L143.522 52.0136L143.536 52.0224L143.55 52.0308L144.054 51.167ZM126.405 51.167L126.919 52.0245L126.926 52.0203L126.405 51.167ZM120.189 57.938L121.069 58.4121L121.074 58.4028L120.189 57.938ZM120.189 78.473L119.303 78.9379L119.308 78.9471L120.189 78.473ZM126.405 85.244L125.873 86.0906L125.887 86.0994L125.901 86.1078L126.405 85.244ZM135.285 107.776C127.065 107.776 119.716 106.068 113.215 102.673L112.289 104.445C119.107 108.006 126.78 109.776 135.285 109.776V107.776ZM113.215 102.673C106.708 99.2745 101.628 94.5869 97.9527 88.6055L96.2487 89.6525C100.121 95.9551 105.476 100.887 112.289 104.445L113.215 102.673ZM97.9555 88.61C94.283 82.5612 92.4397 75.75 92.4397 68.15H90.4397C90.4397 76.09 92.3704 83.2647 96.2459 89.648L97.9555 88.61ZM92.4397 68.15C92.4397 60.5499 94.283 53.7778 97.9527 47.8055L96.2487 46.7585C92.3704 53.0702 90.4397 60.2101 90.4397 68.15H92.4397ZM97.9555 47.801C101.632 41.7462 106.711 37.0239 113.215 33.6274L112.289 31.8546C105.473 35.4141 100.118 40.3857 96.2459 46.763L97.9555 47.801ZM113.215 33.6274C119.716 30.2321 127.065 28.524 135.285 28.524V26.524C126.78 26.524 119.107 28.2939 112.289 31.8546L113.215 33.6274ZM135.285 28.524C143.504 28.524 150.853 30.2321 157.355 33.6274L158.281 31.8546C151.462 28.2939 143.789 26.524 135.285 26.524V28.524ZM157.355 33.6274C163.859 37.0239 168.938 41.7462 172.614 47.801L174.324 46.763C170.452 40.3857 165.097 35.4141 158.281 31.8546L157.355 33.6274ZM172.617 47.8055C176.286 53.7778 178.13 60.5499 178.13 68.15H180.13C180.13 60.2101 178.199 53.0702 174.321 46.7585L172.617 47.8055ZM178.13 68.15C178.13 75.75 176.286 82.5612 172.614 88.61L174.324 89.648C178.199 83.2647 180.13 76.09 180.13 68.15H178.13ZM172.617 88.6055C168.941 94.5869 163.862 99.2745 157.355 102.673L158.281 104.445C165.094 100.887 170.448 95.9551 174.321 89.6525L172.617 88.6055ZM157.355 102.673C150.853 106.068 143.504 107.776 135.285 107.776V109.776C143.789 109.776 151.462 108.006 158.281 104.445L157.355 102.673ZM135.285 88.575C138.707 88.575 141.811 87.756 144.568 86.1015L143.539 84.3865C141.117 85.84 138.374 86.575 135.285 86.575V88.575ZM144.575 86.0973C147.398 84.3722 149.628 81.981 151.261 78.9471L149.5 77.9989C148.026 80.737 146.037 82.8598 143.532 84.3907L144.575 86.0973ZM151.266 78.9378C152.907 75.8115 153.712 72.2059 153.712 68.15H151.712C151.712 71.9381 150.962 75.2145 149.495 78.0082L151.266 78.9378ZM153.712 68.15C153.712 64.0949 152.908 60.5217 151.261 57.4639L149.5 58.4121C150.962 61.1263 151.712 64.3611 151.712 68.15H153.712ZM151.266 57.4732C149.633 54.3615 147.397 51.9597 144.558 50.3032L143.55 52.0308C146.038 53.4823 148.021 55.5945 149.495 58.4028L151.266 57.4732ZM144.586 50.3204C141.826 48.5856 138.716 47.725 135.285 47.725V49.725C138.365 49.725 141.101 50.4924 143.522 52.0136L144.586 50.3204ZM135.285 47.725C131.853 47.725 128.711 48.5855 125.883 50.3137L126.926 52.0203C129.426 50.4925 132.204 49.725 135.285 49.725V47.725ZM125.89 50.3095C123.126 51.9678 120.933 54.3686 119.303 57.4732L121.074 58.4028C122.552 55.5874 124.503 53.4742 126.919 52.0245L125.89 50.3095ZM119.308 57.4639C117.662 60.5217 116.858 64.0949 116.858 68.15H118.858C118.858 64.3611 119.608 61.1263 121.069 58.4121L119.308 57.4639ZM116.858 68.15C116.858 72.2059 117.662 75.8115 119.303 78.9378L121.074 78.0082C119.607 75.2145 118.858 71.9381 118.858 68.15H116.858ZM119.308 78.9471C120.938 81.9741 123.126 84.3641 125.873 86.0906L126.937 84.3974C124.504 82.8679 122.547 80.7439 121.069 77.9989L119.308 78.9471ZM125.901 86.1078C128.726 87.756 131.862 88.575 135.285 88.575V86.575C132.196 86.575 129.411 85.84 126.909 84.3802L125.901 86.1078ZM242.837 67.04L241.984 66.5181L241.674 67.0242L241.97 67.5385L242.837 67.04ZM265.814 107V108H267.542L266.681 106.502L265.814 107ZM236.288 107L235.404 107.468L235.686 108H236.288V107ZM221.414 78.917L222.297 78.449L222.016 77.917H221.414V78.917ZM214.088 78.917V77.917H213.088V78.917H214.088ZM214.088 107V108H215.088V107H214.088ZM187.892 107H186.892V108H187.892V107ZM187.892 29.3V28.3H186.892V29.3H187.892ZM214.088 29.3H215.088V28.3H214.088V29.3ZM214.088 58.271H213.088V59.271H214.088V58.271ZM222.08 58.271V59.271H222.66L222.948 58.7668L222.08 58.271ZM238.619 29.3V28.3H238.038L237.75 28.8042L238.619 29.3ZM265.925 29.3L266.778 29.8218L267.709 28.3H265.925V29.3ZM241.97 67.5385L264.947 107.498L266.681 106.502L243.704 66.5415L241.97 67.5385ZM265.814 106H236.288V108H265.814V106ZM237.171 106.532L222.297 78.449L220.53 79.385L235.404 107.468L237.171 106.532ZM221.414 77.917H214.088V79.917H221.414V77.917ZM213.088 78.917V107H215.088V78.917H213.088ZM214.088 106H187.892V108H214.088V106ZM188.892 107V29.3H186.892V107H188.892ZM187.892 30.3H214.088V28.3H187.892V30.3ZM213.088 29.3V58.271H215.088V29.3H213.088ZM214.088 59.271H222.08V57.271H214.088V59.271ZM222.948 58.7668L239.487 29.7958L237.75 28.8042L221.211 57.7752L222.948 58.7668ZM238.619 30.3H265.925V28.3H238.619V30.3ZM265.072 28.7781L241.984 66.5181L243.69 67.5619L266.778 29.8218L265.072 28.7781ZM334.079 36.515L334.717 35.7453L334.079 36.515ZM335.078 81.581L334.409 80.8372L334.405 80.8415L335.078 81.581ZM296.006 87.353L296.286 86.3932L295.006 86.0188V87.353H296.006ZM296.006 107V108H297.006V107H296.006ZM270.254 107H269.254V108H270.254V107ZM279.467 37.181L280.152 37.9097L280.156 37.9053L279.467 37.181ZM314.876 52.055L314.141 52.7333L314.148 52.7405L314.154 52.7475L314.876 52.055ZM299.003 52.61L299.757 53.2668L299.003 52.61ZM296.006 68.816H295.006V69.4481L295.577 69.7193L296.006 68.816ZM306.773 29.412C318.32 29.412 327.166 32.0796 333.44 37.2846L334.717 35.7453C327.968 30.1464 318.61 27.412 306.773 27.412V29.412ZM333.44 37.2846C339.683 42.4631 342.847 49.8166 342.847 59.492H344.847C344.847 49.3354 341.499 41.3709 334.717 35.7453L333.44 37.2846ZM342.847 59.492C342.847 68.7436 340.001 75.8114 334.409 80.8372L335.746 82.3248C341.846 76.8426 344.847 69.1844 344.847 59.492H342.847ZM334.405 80.8415C328.875 85.8749 320.935 88.462 310.436 88.462V90.462C321.249 90.462 329.737 87.7951 335.751 82.3205L334.405 80.8415ZM310.436 88.462C305.725 88.462 301.009 87.7736 296.286 86.3932L295.725 88.3128C300.623 89.7444 305.527 90.462 310.436 90.462V88.462ZM295.006 87.353V107H297.006V87.353H295.006ZM296.006 106H270.254V108H296.006V106ZM271.254 107V62.378H269.254V107H271.254ZM271.254 62.378C271.254 51.5387 274.268 43.4392 280.152 37.9097L278.782 36.4523C272.382 42.4668 269.254 51.1653 269.254 62.378H271.254ZM280.156 37.9053C286.046 32.2992 294.859 29.412 306.773 29.412V27.412C294.563 27.412 285.171 30.3708 278.777 36.4567L280.156 37.9053ZM305.996 71.925C309.984 71.925 313.16 70.9867 315.34 68.9333C317.53 66.8694 318.54 63.8428 318.54 60.047H316.54C316.54 63.5032 315.626 65.9156 313.968 67.4777C312.299 69.0503 309.704 69.925 305.996 69.925V71.925ZM318.54 60.047C318.54 56.4047 317.608 53.4569 315.597 51.3625L314.154 52.7475C315.696 54.3531 316.54 56.7333 316.54 60.047H318.54ZM315.611 51.3767C313.601 49.1996 310.79 48.169 307.328 48.169V50.169C310.378 50.169 312.599 51.0624 314.141 52.7333L315.611 51.3767ZM307.328 48.169C303.54 48.169 300.469 49.4038 298.249 51.9532L299.757 53.2668C301.532 51.2282 304.011 50.169 307.328 50.169V48.169ZM298.249 51.9532C296.045 54.4831 295.006 57.9271 295.006 62.156H297.006C297.006 58.2449 297.964 55.3249 299.757 53.2668L298.249 51.9532ZM295.006 62.156V68.816H297.006V62.156H295.006ZM295.577 69.7193C298.687 71.1967 302.167 71.925 305.996 71.925V69.925C302.425 69.925 299.244 69.2473 296.435 67.9127L295.577 69.7193ZM414.764 59.048L414.114 59.808L414.124 59.817L414.764 59.048ZM413.543 101.45L414.154 102.241L414.16 102.237L413.543 101.45ZM358.598 101.45L359.245 100.688L358.598 101.45ZM349.718 29.3V28.3H348.718V29.3H349.718ZM375.47 29.3H376.47V28.3H375.47V29.3ZM375.47 54.164H374.47V55.5152L375.762 55.1203L375.47 54.164ZM382.907 52.388L382.752 51.4L382.747 51.4008L382.907 52.388ZM455.945 29.3H456.945V28.3H455.945V29.3ZM455.945 107V108H456.945V107H455.945ZM430.193 107H429.193V108H430.193V107ZM430.193 29.3V28.3H429.193V29.3H430.193ZM394.34 87.131L393.664 86.3938L394.34 87.131ZM375.47 72.479L375.098 71.5505L374.47 71.802V72.479H375.47ZM378.356 86.576L377.635 87.2696L377.642 87.2764L377.649 87.2831L378.356 86.576ZM390.566 52.833C400.934 52.833 408.734 55.2068 414.114 59.808L415.414 58.288C409.545 53.2692 401.213 50.833 390.566 50.833V52.833ZM414.124 59.817C419.546 64.3234 422.311 70.858 422.311 79.583H424.311C424.311 70.4 421.377 63.2446 415.403 58.279L414.124 59.817ZM422.311 79.583C422.311 88.7981 419.159 95.7756 412.926 100.663L414.16 102.237C420.95 96.9124 424.311 89.3119 424.311 79.583H422.311ZM412.931 100.659C406.661 105.504 397.551 107.998 385.46 107.998V109.998C397.788 109.998 407.4 107.46 414.154 102.241L412.931 100.659ZM385.46 107.998C373.586 107.998 364.909 105.502 359.245 100.688L357.95 102.212C364.126 107.462 373.357 109.998 385.46 109.998V107.998ZM359.245 100.688C353.613 95.9003 350.718 88.6352 350.718 78.695H348.718C348.718 89.0308 351.743 96.9357 357.95 102.212L359.245 100.688ZM350.718 78.695V29.3H348.718V78.695H350.718ZM349.718 30.3H375.47V28.3H349.718V30.3ZM374.47 29.3V54.164H376.47V29.3H374.47ZM375.762 55.1203C378.391 54.3171 380.825 53.7367 383.066 53.3752L382.747 51.4008C380.401 51.7793 377.877 52.3829 375.177 53.2076L375.762 55.1203ZM383.061 53.376C385.371 53.015 387.872 52.833 390.566 52.833V50.833C387.783 50.833 385.178 51.021 382.752 51.4L383.061 53.376ZM454.945 29.3V107H456.945V29.3H454.945ZM455.945 106H430.193V108H455.945V106ZM431.193 107V29.3H429.193V107H431.193ZM430.193 30.3H455.945V28.3H430.193V30.3ZM386.792 90.573C390.209 90.573 392.998 89.7171 395.015 87.8682L393.664 86.3938C392.129 87.8009 389.887 88.573 386.792 88.573V90.573ZM395.015 87.8682C397.049 86.004 398.004 83.3746 398.004 80.138H396.004C396.004 82.9694 395.182 85.002 393.664 86.3938L395.015 87.8682ZM398.004 80.138C398.004 76.7796 396.967 74.0987 394.75 72.2875C392.573 70.5078 389.418 69.703 385.46 69.703V71.703C389.197 71.703 391.814 72.4707 393.485 73.836C395.117 75.1698 396.004 77.2064 396.004 80.138H398.004ZM385.46 69.703C381.653 69.703 378.194 70.3123 375.098 71.5505L375.841 73.4075C378.666 72.2777 381.867 71.703 385.46 71.703V69.703ZM374.47 72.479V78.029H376.47V72.479H374.47ZM374.47 78.029C374.47 81.899 375.479 85.0299 377.635 87.2696L379.076 85.8824C377.385 84.1261 376.47 81.559 376.47 78.029H374.47ZM377.649 87.2831C379.883 89.5178 382.979 90.573 386.792 90.573V88.573C383.352 88.573 380.824 87.6302 379.063 85.8689L377.649 87.2831ZM578.19 29.3H579.19V28.3H578.19V29.3ZM578.19 107V108H579.19V107H578.19ZM469.743 107H468.743V108H469.743V107ZM469.743 29.3V28.3H468.743V29.3H469.743ZM495.495 29.3H496.495V28.3H495.495V29.3ZM495.495 86.687H494.495V87.687H495.495V86.687ZM511.146 86.687V87.687H512.146V86.687H511.146ZM511.146 29.3V28.3H510.146V29.3H511.146ZM536.898 29.3H537.898V28.3H536.898V29.3ZM536.898 86.687H535.898V87.687H536.898V86.687ZM552.438 86.687V87.687H553.438V86.687H552.438ZM552.438 29.3V28.3H551.438V29.3H552.438ZM577.19 29.3V107H579.19V29.3H577.19ZM578.19 106H469.743V108H578.19V106ZM470.743 107V29.3H468.743V107H470.743ZM469.743 30.3H495.495V28.3H469.743V30.3ZM494.495 29.3V86.687H496.495V29.3H494.495ZM495.495 87.687H511.146V85.687H495.495V87.687ZM512.146 86.687V29.3H510.146V86.687H512.146ZM511.146 30.3H536.898V28.3H511.146V30.3ZM535.898 29.3V86.687H537.898V29.3H535.898ZM536.898 87.687H552.438V85.687H536.898V87.687ZM553.438 86.687V29.3H551.438V86.687H553.438ZM552.438 30.3H578.19V28.3H552.438V30.3ZM646.187 67.04L645.334 66.5181L645.025 67.0242L645.32 67.5385L646.187 67.04ZM669.164 107V108H670.893L670.031 106.502L669.164 107ZM639.638 107L638.755 107.468L639.036 108H639.638V107ZM624.764 78.917L625.648 78.449L625.366 77.917H624.764V78.917ZM617.438 78.917V77.917H616.438V78.917H617.438ZM617.438 107V108H618.438V107H617.438ZM591.242 107H590.242V108H591.242V107ZM591.242 29.3V28.3H590.242V29.3H591.242ZM617.438 29.3H618.438V28.3H617.438V29.3ZM617.438 58.271H616.438V59.271H617.438V58.271ZM625.43 58.271V59.271H626.011L626.299 58.7668L625.43 58.271ZM641.969 29.3V28.3H641.389L641.101 28.8042L641.969 29.3ZM669.275 29.3L670.128 29.8218L671.059 28.3H669.275V29.3ZM645.32 67.5385L668.297 107.498L670.031 106.502L647.054 66.5415L645.32 67.5385ZM669.164 106H639.638V108H669.164V106ZM640.522 106.532L625.648 78.449L623.881 79.385L638.755 107.468L640.522 106.532ZM624.764 77.917H617.438V79.917H624.764V77.917ZM616.438 78.917V107H618.438V78.917H616.438ZM617.438 106H591.242V108H617.438V106ZM592.242 107V29.3H590.242V107H592.242ZM591.242 30.3H617.438V28.3H591.242V30.3ZM616.438 29.3V58.271H618.438V29.3H616.438ZM617.438 59.271H625.43V57.271H617.438V59.271ZM626.299 58.7668L642.838 29.7958L641.101 28.8042L624.562 57.7752L626.299 58.7668ZM641.969 30.3H669.275V28.3H641.969V30.3ZM668.422 28.7781L645.334 66.5181L647.04 67.5619L670.128 29.8218L668.422 28.7781ZM732.212 32.075L731.747 32.9602L731.756 32.9648L732.212 32.075ZM745.643 45.173L744.768 45.6558L744.771 45.6625L744.775 45.6691L745.643 45.173ZM750.527 107V108H751.527V107H750.527ZM724.331 107H723.331V108H724.331V107ZM724.331 91.349H725.331V90.349H724.331V91.349ZM699.689 91.349V90.349H698.689V91.349H699.689ZM699.689 107V108H700.689V107H699.689ZM673.937 107H672.937V108H673.937V107ZM678.71 45.173L677.839 44.6817L677.837 44.6854L678.71 45.173ZM692.252 32.075L692.709 32.9649L692.718 32.9602L692.252 32.075ZM724.331 71.591V72.591H725.331V71.591H724.331ZM720.89 52.499L720.141 53.1606L720.151 53.1723L720.161 53.1837L720.89 52.499ZM703.019 52.499L702.28 51.8252L702.279 51.8263L703.019 52.499ZM699.689 71.591H698.689V72.591H699.689V71.591ZM712.232 28.524C719.644 28.524 726.14 30.0127 731.747 32.9602L732.678 31.1898C726.741 28.0693 719.917 26.524 712.232 26.524V28.524ZM731.756 32.9648C737.348 35.8324 741.68 40.0552 744.768 45.6558L746.519 44.6902C743.243 38.7468 738.621 34.2376 732.669 31.1852L731.756 32.9648ZM744.775 45.6691C747.929 51.1877 749.527 57.8171 749.527 65.597H751.527C751.527 57.5409 749.87 50.5543 746.512 44.6769L744.775 45.6691ZM749.527 65.597V107H751.527V65.597H749.527ZM750.527 106H724.331V108H750.527V106ZM725.331 107V91.349H723.331V107H725.331ZM724.331 90.349H699.689V92.349H724.331V90.349ZM698.689 91.349V107H700.689V91.349H698.689ZM699.689 106H673.937V108H699.689V106ZM674.937 107V65.597H672.937V107H674.937ZM674.937 65.597C674.937 57.8135 676.501 51.1808 679.583 45.6606L677.837 44.6854C674.556 50.5612 672.937 57.5445 672.937 65.597H674.937ZM679.581 45.6643C682.743 40.059 687.115 35.8334 692.709 32.9648L691.796 31.1852C685.846 34.2366 681.189 38.743 677.839 44.6817L679.581 45.6643ZM692.718 32.9602C698.325 30.0127 704.821 28.524 712.232 28.524V26.524C704.548 26.524 697.724 28.0693 691.787 31.1898L692.718 32.9602ZM725.331 71.591V63.377H723.331V71.591H725.331ZM725.331 63.377C725.331 58.423 724.151 54.509 721.619 51.8143L720.161 53.1837C722.218 55.373 723.331 58.711 723.331 63.377H725.331ZM721.64 51.8374C719.21 49.0827 715.964 47.725 712.01 47.725V49.725C715.456 49.725 718.131 50.8833 720.141 53.1606L721.64 51.8374ZM712.01 47.725C708.056 47.725 704.782 49.0821 702.28 51.8252L703.758 53.1728C705.845 50.8839 708.564 49.725 712.01 49.725V47.725ZM702.279 51.8263C699.829 54.5213 698.689 58.4304 698.689 63.377H700.689C700.689 58.7036 701.769 55.3607 703.759 53.1717L702.279 51.8263ZM698.689 63.377V71.591H700.689V63.377H698.689ZM699.689 72.591H724.331V70.591H699.689V72.591Z" fill="black"/>
</svg>
