<svg width="546" height="62" viewBox="0 0 546 62" fill="none" xmlns="http://www.w3.org/2000/svg">
<path d="M59.5435 4.55593V59.8693H41.1899V19.0164H24.3394V59.8693H5.98584V4.55593H59.5435Z" fill="#4694D1"/>
<path d="M97.4991 61.1336C91.5395 61.1336 86.1864 59.8956 81.4398 57.4197C76.6931 54.9438 72.975 51.5196 70.2852 47.1472C67.5955 42.7221 66.2506 37.7439 66.2506 32.2126C66.2506 26.6813 67.5955 21.7294 70.2852 17.357C72.975 12.932 76.6931 9.48145 81.4398 7.00552C86.1864 4.52959 91.5395 3.29163 97.4991 3.29163C103.459 3.29163 108.812 4.52959 113.559 7.00552C118.305 9.48145 122.023 12.932 124.713 17.357C127.403 21.7294 128.748 26.6813 128.748 32.2126C128.748 37.7439 127.403 42.7221 124.713 47.1472C122.023 51.5196 118.305 54.9438 113.559 57.4197C108.812 59.8956 103.459 61.1336 97.4991 61.1336ZM97.4991 46.0409C99.8197 46.0409 101.903 45.4878 103.749 44.3815C105.647 43.2226 107.151 41.6159 108.258 39.5614C109.366 37.4542 109.919 35.0046 109.919 32.2126C109.919 29.4206 109.366 26.9973 108.258 24.9429C107.151 22.8357 105.647 21.229 103.749 20.1227C101.903 18.9637 99.8197 18.3843 97.4991 18.3843C95.1786 18.3843 93.069 18.9637 91.1703 20.1227C89.3244 21.229 87.8477 22.8357 86.7401 24.9429C85.6326 26.9973 85.0788 29.4206 85.0788 32.2126C85.0788 35.0046 85.6326 37.4542 86.7401 39.5614C87.8477 41.6159 89.3244 43.2226 91.1703 44.3815C93.069 45.4878 95.1786 46.0409 97.4991 46.0409Z" fill="#4694D1"/>
<path d="M174.152 31.4224L190.528 59.8693H169.485L158.884 39.8775H153.662V59.8693H134.992V4.55593H153.662V25.1799H159.358L171.146 4.55593H190.607L174.152 31.4224Z" fill="#4694D1"/>
<path d="M219.72 3.92378C228.053 3.92378 234.54 5.84658 239.181 9.69217C243.822 13.5378 246.142 18.9901 246.142 26.0491C246.142 32.7921 244.059 38.0337 239.893 41.7739C235.779 45.5141 229.925 47.3843 222.33 47.3843C218.902 47.3843 215.474 46.8838 212.046 45.8829V59.8693H193.692V28.1036C193.692 20.2544 195.881 14.2753 200.258 10.1663C204.636 6.00462 211.123 3.92378 219.72 3.92378ZM219.166 34.1881C224.651 34.1881 227.393 31.6068 227.393 26.4442C227.393 23.9683 226.76 22.0718 225.495 20.7548C224.229 19.3852 222.436 18.7003 220.115 18.7003C217.584 18.7003 215.606 19.5169 214.182 21.1499C212.758 22.783 212.046 25.0482 212.046 27.9456V32.6867C214.156 33.6876 216.529 34.1881 219.166 34.1881Z" fill="#4694D1"/>
<path d="M279.439 20.5968C286.928 20.5968 292.677 22.3089 296.685 25.733C300.746 29.1045 302.777 33.9774 302.777 40.3516C302.777 47.0945 300.456 52.2835 295.815 55.9183C291.174 59.5005 284.502 61.2916 275.8 61.2916C267.256 61.2916 260.875 59.5005 256.655 55.9183C252.436 52.3361 250.327 46.9365 250.327 39.7194V4.55593H268.68V22.2562C270.579 21.6767 272.346 21.2553 273.981 20.9919C275.668 20.7285 277.488 20.5968 279.439 20.5968ZM326.035 4.55593V59.8693H307.682V4.55593H326.035ZM276.749 47.4633C279.07 47.4633 280.863 46.8838 282.129 45.7249C283.395 44.5659 284.028 42.9065 284.028 40.7467C284.028 36.2689 281.285 34.03 275.8 34.03C273.163 34.03 270.79 34.4515 268.68 35.2943V39.2453C268.68 41.8793 269.366 43.9074 270.737 45.3298C272.161 46.7521 274.165 47.4633 276.749 47.4633Z" fill="#4694D1"/>
<path d="M413.16 4.55593V59.8693H335.87V4.55593H354.223V45.4088H365.378V4.55593H383.731V45.4088H394.807V4.55593H413.16Z" fill="#4694D1"/>
<path d="M461.622 31.4224L477.998 59.8693H456.955L446.354 39.8775H441.133V59.8693H422.463V4.55593H441.133V25.1799H446.829L458.616 4.55593H478.077L461.622 31.4224Z" fill="#4694D1"/>
<path d="M508.693 3.29163C514.072 3.29163 518.819 4.37155 522.933 6.53141C527.046 8.63858 530.237 11.7467 532.505 15.8557C534.826 19.912 535.986 24.7585 535.986 30.3952V59.8693H517.316V48.7276H499.753V59.8693H481.4V30.3952C481.4 24.7585 482.534 19.912 484.801 15.8557C487.122 11.7467 490.339 8.63858 494.453 6.53141C498.567 4.37155 503.313 3.29163 508.693 3.29163ZM517.316 34.6622V28.8148C517.316 25.3906 516.498 22.8093 514.863 21.0709C513.281 19.2798 511.172 18.3843 508.535 18.3843C505.898 18.3843 503.762 19.2798 502.127 21.0709C500.544 22.8093 499.753 25.3906 499.753 28.8148V34.6622H517.316Z" fill="#4694D1"/>
<mask id="path-2-outside-1" maskUnits="userSpaceOnUse" x="0" y="0" width="546" height="62" fill="black">
<rect fill="white" width="546" height="62"/>
<path d="M55.9724 2.3079V59.5286H37.134V17.267H19.8384V59.5286H1V2.3079H55.9724ZM94.9306 60.8365C88.8136 60.8365 83.319 59.5559 78.447 56.9946C73.575 54.4332 69.7586 50.891 66.9978 46.3678C64.237 41.7902 62.8566 36.6403 62.8566 30.9183C62.8566 25.1962 64.237 20.0736 66.9978 15.5504C69.7586 10.9727 73.575 7.40327 78.447 4.84196C83.319 2.28065 88.8136 1 94.9306 1C101.048 1 106.542 2.28065 111.414 4.84196C116.286 7.40327 120.103 10.9727 122.863 15.5504C125.624 20.0736 127.005 25.1962 127.005 30.9183C127.005 36.6403 125.624 41.7902 122.863 46.3678C120.103 50.891 116.286 54.4332 111.414 56.9946C106.542 59.5559 101.048 60.8365 94.9306 60.8365ZM94.9306 45.2234C97.3125 45.2234 99.4508 44.6512 101.345 43.5068C103.294 42.3079 104.837 40.6458 105.974 38.5204C107.111 36.3406 107.679 33.8065 107.679 30.9183C107.679 28.03 107.111 25.5232 105.974 23.3978C104.837 21.218 103.294 19.5559 101.345 18.4114C99.4508 17.2125 97.3125 16.6131 94.9306 16.6131C92.5488 16.6131 90.3834 17.2125 88.4346 18.4114C86.54 19.5559 85.0242 21.218 83.8874 23.3978C82.7506 25.5232 82.1822 28.03 82.1822 30.9183C82.1822 33.8065 82.7506 36.3406 83.8874 38.5204C85.0242 40.6458 86.54 42.3079 88.4346 43.5068C90.3834 44.6512 92.5488 45.2234 94.9306 45.2234ZM173.608 30.1008L190.417 59.5286H168.818L157.937 38.8474H152.578V59.5286H133.414V2.3079H152.578V23.6431H158.424L170.523 2.3079H190.498L173.608 30.1008ZM220.38 1.65395C228.933 1.65395 235.591 3.64305 240.355 7.62125C245.118 11.5995 247.5 17.2398 247.5 24.5422C247.5 31.5177 245.362 36.9401 241.086 40.8093C236.863 44.6785 230.854 46.6131 223.059 46.6131C219.54 46.6131 216.022 46.0954 212.503 45.0599V59.5286H193.665V26.6676C193.665 18.5477 195.911 12.3624 200.404 8.11172C204.897 3.80654 211.556 1.65395 220.38 1.65395ZM219.811 32.9619C225.441 32.9619 228.256 30.2916 228.256 24.951C228.256 22.3896 227.606 20.4278 226.307 19.0654C225.008 17.6485 223.167 16.9401 220.786 16.9401C218.187 16.9401 216.157 17.7847 214.696 19.4741C213.234 21.1635 212.503 23.5068 212.503 26.5041V31.4087C214.668 32.4441 217.104 32.9619 219.811 32.9619ZM281.677 18.9019C289.364 18.9019 295.264 20.673 299.378 24.2153C303.547 27.703 305.631 32.7439 305.631 39.3379C305.631 46.3134 303.249 51.6812 298.485 55.4414C293.721 59.1471 286.873 61 277.941 61C269.172 61 262.622 59.1471 258.291 55.4414C253.96 51.7357 251.795 46.1499 251.795 38.6839V2.3079H270.633V20.6185C272.582 20.0191 274.396 19.5831 276.074 19.3106C277.806 19.0381 279.674 18.9019 281.677 18.9019ZM329.503 2.3079V59.5286H310.665V2.3079H329.503ZM278.916 46.6948C281.298 46.6948 283.138 46.0954 284.437 44.8965C285.737 43.6975 286.386 41.9809 286.386 39.7466C286.386 35.1144 283.571 32.7984 277.941 32.7984C275.235 32.7984 272.799 33.2343 270.633 34.1063V38.1935C270.633 40.9183 271.337 43.0163 272.745 44.4877C274.206 45.9591 276.263 46.6948 278.916 46.6948ZM418.93 2.3079V59.5286H339.598V2.3079H358.436V44.5695H369.885V2.3079H388.724V44.5695H400.092V2.3079H418.93ZM468.672 30.1008L485.48 59.5286H463.881L453 38.8474H447.641V59.5286H428.478V2.3079H447.641V23.6431H453.488L465.586 2.3079H485.562L468.672 30.1008ZM516.986 1C522.508 1 527.38 2.11717 531.602 4.3515C535.824 6.53133 539.099 9.74659 541.427 13.9973C543.809 18.1935 545 23.2071 545 29.0381V59.5286H525.837V48.0027H507.81V59.5286H488.972V29.0381C488.972 23.2071 490.136 18.1935 492.464 13.9973C494.845 9.74659 498.148 6.53133 502.37 4.3515C506.592 2.11717 511.464 1 516.986 1ZM525.837 33.4523V27.4033C525.837 23.861 524.998 21.1907 523.32 19.3924C521.696 17.5395 519.53 16.6131 516.824 16.6131C514.117 16.6131 511.925 17.5395 510.246 19.3924C508.622 21.1907 507.81 23.861 507.81 27.4033V33.4523H525.837Z"/>
</mask>
<path d="M55.9724 2.3079V59.5286H37.134V17.267H19.8384V59.5286H1V2.3079H55.9724ZM94.9306 60.8365C88.8136 60.8365 83.319 59.5559 78.447 56.9946C73.575 54.4332 69.7586 50.891 66.9978 46.3678C64.237 41.7902 62.8566 36.6403 62.8566 30.9183C62.8566 25.1962 64.237 20.0736 66.9978 15.5504C69.7586 10.9727 73.575 7.40327 78.447 4.84196C83.319 2.28065 88.8136 1 94.9306 1C101.048 1 106.542 2.28065 111.414 4.84196C116.286 7.40327 120.103 10.9727 122.863 15.5504C125.624 20.0736 127.005 25.1962 127.005 30.9183C127.005 36.6403 125.624 41.7902 122.863 46.3678C120.103 50.891 116.286 54.4332 111.414 56.9946C106.542 59.5559 101.048 60.8365 94.9306 60.8365ZM94.9306 45.2234C97.3125 45.2234 99.4508 44.6512 101.345 43.5068C103.294 42.3079 104.837 40.6458 105.974 38.5204C107.111 36.3406 107.679 33.8065 107.679 30.9183C107.679 28.03 107.111 25.5232 105.974 23.3978C104.837 21.218 103.294 19.5559 101.345 18.4114C99.4508 17.2125 97.3125 16.6131 94.9306 16.6131C92.5488 16.6131 90.3834 17.2125 88.4346 18.4114C86.54 19.5559 85.0242 21.218 83.8874 23.3978C82.7506 25.5232 82.1822 28.03 82.1822 30.9183C82.1822 33.8065 82.7506 36.3406 83.8874 38.5204C85.0242 40.6458 86.54 42.3079 88.4346 43.5068C90.3834 44.6512 92.5488 45.2234 94.9306 45.2234ZM173.608 30.1008L190.417 59.5286H168.818L157.937 38.8474H152.578V59.5286H133.414V2.3079H152.578V23.6431H158.424L170.523 2.3079H190.498L173.608 30.1008ZM220.38 1.65395C228.933 1.65395 235.591 3.64305 240.355 7.62125C245.118 11.5995 247.5 17.2398 247.5 24.5422C247.5 31.5177 245.362 36.9401 241.086 40.8093C236.863 44.6785 230.854 46.6131 223.059 46.6131C219.54 46.6131 216.022 46.0954 212.503 45.0599V59.5286H193.665V26.6676C193.665 18.5477 195.911 12.3624 200.404 8.11172C204.897 3.80654 211.556 1.65395 220.38 1.65395ZM219.811 32.9619C225.441 32.9619 228.256 30.2916 228.256 24.951C228.256 22.3896 227.606 20.4278 226.307 19.0654C225.008 17.6485 223.167 16.9401 220.786 16.9401C218.187 16.9401 216.157 17.7847 214.696 19.4741C213.234 21.1635 212.503 23.5068 212.503 26.5041V31.4087C214.668 32.4441 217.104 32.9619 219.811 32.9619ZM281.677 18.9019C289.364 18.9019 295.264 20.673 299.378 24.2153C303.547 27.703 305.631 32.7439 305.631 39.3379C305.631 46.3134 303.249 51.6812 298.485 55.4414C293.721 59.1471 286.873 61 277.941 61C269.172 61 262.622 59.1471 258.291 55.4414C253.96 51.7357 251.795 46.1499 251.795 38.6839V2.3079H270.633V20.6185C272.582 20.0191 274.396 19.5831 276.074 19.3106C277.806 19.0381 279.674 18.9019 281.677 18.9019ZM329.503 2.3079V59.5286H310.665V2.3079H329.503ZM278.916 46.6948C281.298 46.6948 283.138 46.0954 284.437 44.8965C285.737 43.6975 286.386 41.9809 286.386 39.7466C286.386 35.1144 283.571 32.7984 277.941 32.7984C275.235 32.7984 272.799 33.2343 270.633 34.1063V38.1935C270.633 40.9183 271.337 43.0163 272.745 44.4877C274.206 45.9591 276.263 46.6948 278.916 46.6948ZM418.93 2.3079V59.5286H339.598V2.3079H358.436V44.5695H369.885V2.3079H388.724V44.5695H400.092V2.3079H418.93ZM468.672 30.1008L485.48 59.5286H463.881L453 38.8474H447.641V59.5286H428.478V2.3079H447.641V23.6431H453.488L465.586 2.3079H485.562L468.672 30.1008ZM516.986 1C522.508 1 527.38 2.11717 531.602 4.3515C535.824 6.53133 539.099 9.74659 541.427 13.9973C543.809 18.1935 545 23.2071 545 29.0381V59.5286H525.837V48.0027H507.81V59.5286H488.972V29.0381C488.972 23.2071 490.136 18.1935 492.464 13.9973C494.845 9.74659 498.148 6.53133 502.37 4.3515C506.592 2.11717 511.464 1 516.986 1ZM525.837 33.4523V27.4033C525.837 23.861 524.998 21.1907 523.32 19.3924C521.696 17.5395 519.53 16.6131 516.824 16.6131C514.117 16.6131 511.925 17.5395 510.246 19.3924C508.622 21.1907 507.81 23.861 507.81 27.4033V33.4523H525.837Z" stroke="black" stroke-width="2" mask="url(#path-2-outside-1)"/>
</svg>
