<svg width="220" height="82" viewBox="0 0 220 82" fill="none" xmlns="http://www.w3.org/2000/svg">
<path d="M55.0025 33.7488C60.8082 35.1839 65.2521 37.803 68.3342 41.606C71.488 45.3373 73.0649 49.8579 73.0649 55.1679C73.0649 59.6885 71.8105 63.9221 69.3018 67.8686C66.8649 71.7434 63.066 74.9007 57.9053 77.3404C52.7446 79.78 46.3296 80.9999 38.6603 80.9999C33.3562 80.9999 28.0522 80.4258 22.7482 79.2778C17.5158 78.1297 12.9285 76.4434 8.98633 74.219L17.5875 55.4908C20.6695 57.2846 23.9667 58.648 27.4788 59.5808C31.0626 60.5137 34.5031 60.9801 37.8002 60.9801C40.7389 60.9801 43.1042 60.4778 44.8961 59.4732C46.688 58.4686 47.584 57.0335 47.584 55.1679C47.584 51.7236 44.6094 50.0014 38.6603 50.0014H28.6614V34.3946L39.7354 23.0931H12.8568V3.93433H68.9793V19.5412L55.0025 33.7488Z" fill="#4694D1"/>
<path d="M118.034 3.93433C124.986 3.93433 131.043 5.08242 136.203 7.3786C141.364 9.67478 145.342 12.9755 148.138 17.2809C150.933 21.5862 152.331 26.6091 152.331 32.3496C152.331 38.09 150.933 43.1129 148.138 47.4182C145.342 51.7236 141.364 55.0243 136.203 57.3205C131.043 59.6167 124.986 60.7648 118.034 60.7648H107.175V79.2778H81.8012V3.93433H118.034ZM116.421 41.1755C119.861 41.1755 122.442 40.4221 124.162 38.9152C125.882 37.3366 126.742 35.148 126.742 32.3496C126.742 29.5511 125.882 27.3984 124.162 25.8916C122.442 24.3129 119.861 23.5236 116.421 23.5236H107.175V41.1755H116.421Z" fill="#4694D1"/>
<path d="M160.652 3.93433H186.025V59.5808H220V79.2778H160.652V3.93433Z" fill="#4694D1"/>
<path d="M32.4133 21.1909L21.8645 31.9565L21.7216 32.1023V32.3064V48.3468V48.8468H22.2216H32.4982C35.5235 48.8468 37.711 49.2875 39.1264 50.107C40.5002 50.9023 41.1698 52.0647 41.1698 53.6567C41.1698 55.372 40.3661 56.6906 38.6628 57.6455C36.9211 58.6219 34.5836 59.1304 31.6142 59.1304C28.2731 59.1304 24.7798 58.6578 21.1329 57.7086C17.5662 56.7611 14.2195 55.377 11.0916 53.5564L10.6156 53.2794L10.3857 53.7799L1.54563 73.0283L1.35363 73.4464L1.75429 73.6725C5.85637 75.9871 10.6193 77.7359 16.0369 78.9247L16.0383 78.925C21.5236 80.1123 27.0105 80.7063 32.4982 80.7063C40.4304 80.7063 47.1019 79.4451 52.4916 76.8971C57.86 74.3592 61.8468 71.058 64.4134 66.9777C67.0406 62.8444 68.3585 58.401 68.3585 53.6567C68.3585 48.094 66.7039 43.3318 63.3816 39.3993C60.2842 35.5793 55.8969 32.9122 50.2578 31.3763L64.0159 17.391L64.1595 17.2451V17.0404V1V0.5H63.6595H5.97803H5.47803V1V20.6909V21.1909H5.97803H32.4133ZM102.916 78.9363H103.416V78.4363V59.9091H114.076C121.276 59.9091 127.573 58.7202 132.954 56.326C138.337 53.9308 142.505 50.4782 145.436 45.9641C148.368 41.4487 149.826 36.1893 149.826 30.2046C149.826 24.2198 148.368 18.9604 145.436 14.445C142.505 9.93089 138.337 6.47831 132.954 4.08312C127.573 1.68892 121.276 0.5 114.076 0.5H76.8375H76.3375V1V78.4363V78.9363H76.8375H102.916ZM120.037 23.9355L120.037 23.9356L120.045 23.9433C121.681 25.3762 122.527 27.4374 122.527 30.2046C122.527 32.9685 121.683 35.0714 120.041 36.5802C118.401 38.0148 115.89 38.7757 112.419 38.7757H103.416V21.6334H112.419C115.888 21.6334 118.396 22.4302 120.037 23.9355ZM157.879 0.5H157.379V1V78.4363V78.9363H157.879H218.875H219.375V78.4363V58.1922V57.6922H218.875H184.457V1V0.5H183.957H157.879Z" stroke="black"/>
</svg>
