<svg width="425" height="81" viewBox="0 0 425 81" fill="none" xmlns="http://www.w3.org/2000/svg">
<path d="M39.4334 55.0958L33.7738 61.4113V79.9296H9V5H33.7738V32.1887L58.3341 5H85.7775L55.878 37.969L87.2725 79.9296H58.1205L39.4334 55.0958Z" fill="#4694D1"/>
<path d="M90.652 5H115.853V79.9296H90.652V5Z" fill="#4694D1"/>
<path d="M144.216 24.5887H122.325V5H191.307V24.5887H169.417V79.9296H144.216V24.5887Z" fill="#4694D1"/>
<path d="M257.652 40.7521C262.065 42.3934 265.482 44.784 267.903 47.9239C270.323 51.0638 271.534 54.846 271.534 59.2704C271.534 65.8357 268.828 70.938 263.418 74.5775C258.008 78.1455 250.177 79.9296 239.926 79.9296H197.853V5H237.79C247.756 5 255.267 6.78404 260.321 10.3521C265.447 13.9202 268.01 18.6657 268.01 24.5887C268.01 28.0854 267.12 31.2254 265.34 34.0085C263.632 36.7915 261.069 39.0394 257.652 40.7521ZM222.627 22.662V33.7944H234.373C239.854 33.7944 242.595 31.939 242.595 28.2282C242.595 24.5174 239.854 22.662 234.373 22.662H222.627ZM237.79 62.2676C243.343 62.2676 246.119 60.3052 246.119 56.3803C246.119 52.4554 243.343 50.493 237.79 50.493H222.627V62.2676H237.79Z" fill="#4694D1"/>
<path d="M310.556 81C304.078 81 298.241 79.7155 293.044 77.1465C287.918 74.5061 283.896 70.9023 280.977 66.3352C278.058 61.6967 276.599 56.4516 276.599 50.6C276.599 44.7484 278.058 39.539 280.977 34.9718C283.896 30.3333 287.918 26.7296 293.044 24.1606C298.241 21.5915 304.078 20.307 310.556 20.307C317.106 20.307 322.943 21.5915 328.069 24.1606C333.266 26.7296 337.288 30.3333 340.135 34.9718C343.054 39.539 344.514 44.7484 344.514 50.6C344.514 56.4516 343.054 61.6967 340.135 66.3352C337.288 70.9023 333.266 74.5061 328.069 77.1465C322.943 79.7155 317.106 81 310.556 81ZM310.556 62.1606C313.333 62.1606 315.611 61.1615 317.391 59.1634C319.17 57.0939 320.06 54.2394 320.06 50.6C320.06 46.9606 319.17 44.1418 317.391 42.1437C315.611 40.1455 313.333 39.1465 310.556 39.1465C307.78 39.1465 305.502 40.1455 303.722 42.1437C301.942 44.1418 301.053 46.9606 301.053 50.6C301.053 54.2394 301.942 57.0939 303.722 59.1634C305.502 61.1615 307.78 62.1606 310.556 62.1606Z" fill="#4694D1"/>
<path d="M387.343 79.9296L379.334 67.4056L370.364 79.9296H344.202L366.307 50.9211L344.843 21.3775H372.073L380.402 33.7944L389.158 21.3775H414.466L393.003 49.8507L415 79.9296H387.343Z" fill="#4694D1"/>
<path d="M345.609 65.0218C348.696 60.1152 350.236 54.5698 350.236 48.4C350.236 42.2313 348.696 36.7226 345.609 31.8892C342.597 26.9847 338.344 23.1781 332.867 20.4696C327.46 17.7599 321.314 16.4113 314.44 16.4113C307.639 16.4113 301.494 17.7604 296.016 20.4687L296.014 20.4699C290.609 23.1787 286.359 26.9846 283.274 31.8857C280.185 36.7199 278.645 42.2299 278.645 48.4C278.645 54.5702 280.185 60.1158 283.272 65.0226L283.274 65.0256C286.359 69.8521 290.608 73.6565 296.009 76.4389L296.016 76.4426C301.494 79.1509 307.639 80.5 314.44 80.5C321.315 80.5 327.461 79.1513 332.867 76.4414L332.87 76.4401C338.345 73.658 342.597 69.8525 345.609 65.0218ZM345.609 65.0218C345.609 65.0221 345.608 65.0223 345.608 65.0226L345.185 64.7563M345.609 65.0218C345.609 65.0215 345.609 65.0212 345.609 65.0209L345.185 64.7563M345.185 64.7563C342.225 69.5038 338.045 73.2498 332.643 75.9944M345.185 64.7563C348.219 59.9347 349.736 54.4826 349.736 48.4C349.736 42.3174 348.219 36.9023 345.185 32.1549C342.225 27.3333 338.045 23.5873 332.643 20.9169V75.9944M332.643 75.9944C327.315 78.6648 321.248 80 314.44 80C307.707 80 301.639 78.6648 296.238 75.9944C290.91 73.2498 286.729 69.5038 283.696 64.7563L332.643 75.9944ZM27.2501 27.9625V1V0.5H26.7501H1H0.5V1V78.8873V79.3873H1H26.7501H27.2501V78.8873V59.8293L32.599 53.8601L51.6568 79.1879L51.8068 79.3873H52.0563H82.3571H83.3556L82.7574 78.5878L50.3727 35.301L81.1736 1.33588L81.9316 0.5H80.8032H52.2783H52.0561L51.9072 0.664848L27.2501 27.9625ZM85.8698 0.5H85.3698V1V78.8873V79.3873H85.8698H112.064H112.564V78.8873V1V0.5H112.064H85.8698ZM118.291 21.362V21.862H118.791H141.044V78.8873V79.3873H141.544H167.738H168.238V78.8873V21.862H190.492H190.992V21.362V1V0.5H190.492H118.791H118.291V1V21.362ZM265.72 73.7414L265.723 73.7388C271.486 69.862 274.38 64.4021 274.38 57.4127C274.38 52.7167 273.093 48.6745 270.502 45.3131C268.112 42.212 264.82 39.8098 260.65 38.0957C263.79 36.3514 266.202 34.1282 267.866 31.4188C269.769 28.4416 270.717 25.0846 270.717 21.362C270.717 15.0316 267.965 9.95006 262.512 6.15374C257.137 2.35967 249.21 0.5 238.806 0.5H197.295H196.795V1V78.8873V79.3873H197.295H241.026C251.727 79.3873 259.98 77.5271 265.72 73.7414ZM393.832 79.1567L393.979 79.3873H394.253H423H423.985L423.404 78.5922L400.758 47.6256L422.844 18.3249L423.448 17.5239H422.445H396.14H395.881L395.731 17.7358L387.049 30.0487L378.796 17.7454L378.648 17.5239H378.381H350.078H349.097L349.674 18.3178L371.764 48.7267L349.015 78.5843L348.403 79.3873H349.412H376.605H376.862L377.012 79.1785L385.905 66.7605L393.832 79.1567ZM235.255 30.431H223.545V19.8592H235.255C238.063 19.8592 240.081 20.3373 241.384 21.2197C242.653 22.0785 243.301 23.3588 243.301 25.1451C243.301 26.9313 242.653 28.2116 241.384 29.0705C240.081 29.9529 238.063 30.431 235.255 30.431ZM246.964 54.4084C246.964 56.3148 246.299 57.6792 245.011 58.5899C243.691 59.5232 241.648 60.0282 238.806 60.0282H223.545V48.7887H238.806C241.648 48.7887 243.691 49.2937 245.011 50.227C246.299 51.1377 246.964 52.502 246.964 54.4084ZM321.167 56.9725C319.417 58.9361 317.188 59.9169 314.44 59.9169C311.693 59.9169 309.464 58.9361 307.713 56.9725C305.966 54.9387 305.062 52.102 305.062 48.4C305.062 44.695 305.967 41.8993 307.71 39.9424C309.461 37.9764 311.691 36.9944 314.44 36.9944C317.19 36.9944 319.419 37.9764 321.17 39.9424C322.913 41.8993 323.819 44.695 323.819 48.4C323.819 52.102 322.915 54.9387 321.167 56.9725Z" stroke="#0E456F"/>
</svg>
